<svg width="68" height="296" viewBox="0 0 68 296" fill="none" xmlns="http://www.w3.org/2000/svg">
<path d="M49.2308 294.596C49.2319 294.596 49.232 294.598 49.2309 294.598C47.3147 295.66 45.0674 295.95 42.9453 295.418L4.85601 285.747C3.02482 285.367 1.49804 284.107 0.779411 282.381C0.0590203 280.653 0.239236 278.684 1.25932 277.113C2.28116 275.544 4.00828 274.578 5.8793 274.533L22.5266 273.289C24.665 273.129 25.6873 270.807 24.8384 268.837C22.9392 264.432 21.136 259.99 19.744 255.389C17.3735 247.557 14.8287 239.767 13.1263 231.75C12.483 228.725 12.1653 225.62 11.5657 222.596C7.87433 203.957 6.66933 185.132 7.12803 166.179C7.2926 159.403 7.19628 152.602 8.08412 145.856C8.93063 139.424 9.87537 133.002 10.6767 126.562C11.2336 122.084 12.3494 117.671 12.3213 113.121C12.3176 112.53 12.5009 111.962 12.8401 111.476C13.2638 110.874 13.4677 110.203 13.6117 109.491C15.4769 100.277 17.8046 91.1727 20.136 82.0689C20.5285 80.5411 20.3975 78.7175 22.1115 77.7492C22.4467 77.5614 22.4602 77.1302 22.3984 76.7679C22.0526 74.754 23.034 73.0031 23.5635 71.1822C24.0876 69.3838 24.9322 67.6841 25.5943 65.9259C31.1739 51.1279 37.316 36.5847 45.0909 22.7752C49.015 15.8027 53.2566 9.04902 58.075 2.69415C60.0526 0.0859353 63.9052 0.0539906 66.0504 2.5262C67.5114 4.20985 67.7827 6.63508 66.6461 8.55272C66.5627 8.69339 66.479 8.83387 66.3948 8.97413C58.8282 21.5969 52.4805 34.8291 46.7578 48.3472C37.5461 70.1145 31.8784 92.8872 28.4628 116.226C27.4274 123.306 26.5379 130.423 26.1672 137.58C25.8944 142.853 25.7449 148.134 25.5937 153.412C25.4452 158.599 25.1268 163.791 25.3305 168.978C25.6189 176.317 26.6677 183.593 27.2512 190.907C28.8556 210.967 33.4902 230.398 39.5342 249.503C40.7214 253.253 42.099 256.923 43.6173 260.534C43.9267 261.269 44.8894 261.43 45.3639 260.788L55.3637 247.23C56.4423 245.8 58.1317 244.964 59.9226 244.974C61.7135 244.984 63.393 245.837 64.4518 247.278C65.5125 248.718 65.8313 250.578 65.3097 252.289L53.2664 289.701C52.589 291.784 51.1479 293.533 49.2306 294.593C49.2296 294.594 49.2297 294.595 49.2308 294.596Z" fill="#0B503E"/>
</svg>
