<svg width="76" height="73" viewBox="0 0 76 73" fill="none" xmlns="http://www.w3.org/2000/svg">
<mask id="mask0_1_1176" style="mask-type:luminance" maskUnits="userSpaceOnUse" x="0" y="0" width="76" height="73">
<path d="M0.796875 73V0.389839H75.7594V73H0.796875Z" fill="white"/>
</mask>
<g mask="url(#mask0_1_1176)">
<path d="M73.4441 42.7217L46.623 71.2584C45.3815 72.5389 43.6076 73.1579 41.8385 72.9271C40.0692 72.697 38.5133 71.6444 37.6409 70.0885C36.7679 68.532 36.6819 66.6553 37.4085 65.0262L45.7902 46.762L5.79655 42.7127H5.36296H5.36354C3.63622 42.3198 2.18134 41.1638 1.40896 39.57C0.635947 37.9763 0.628968 36.1182 1.39036 34.5187C2.15118 32.9198 3.59783 31.7533 5.32173 31.3477L5.54665 31.3058H5.77158L45.7652 27.0485L37.3335 8.71739C36.4698 7.06447 36.4779 5.09178 37.3544 3.44571C38.2315 1.79977 39.8641 0.692474 41.7182 0.487289C43.5717 0.28212 45.4071 1.00459 46.6231 2.41861L73.4442 30.9642C74.9351 32.5585 75.7644 34.6596 75.7644 36.8421C75.7644 39.0251 74.935 41.1262 73.4442 42.7205L73.4441 42.7217Z" fill="#084F3D"/>
</g>
</svg>
