<svg width="76" height="73" viewBox="0 0 76 73" fill="none" xmlns="http://www.w3.org/2000/svg">
<mask id="mask0_1_1203" style="mask-type:luminance" maskUnits="userSpaceOnUse" x="0" y="-1" width="76" height="74">
<path d="M75.7598 72.6094V-0.000785828H0.797211V72.6094H75.7598Z" fill="white"/>
</mask>
<g mask="url(#mask0_1_1203)">
<path d="M3.1125 42.3311L29.9336 70.8678C31.1751 72.1482 32.949 72.7673 34.7182 72.5365C36.4874 72.3063 38.0433 71.2538 38.9157 69.6979C39.7887 68.1414 39.8747 66.2646 39.1482 64.6355L30.7665 46.3714L70.7601 42.322H71.1937H71.1931C72.9204 41.9291 74.3753 40.7731 75.1477 39.1794C75.9207 37.5857 75.9277 35.7276 75.1663 34.1281C74.4055 32.5292 72.9588 31.3627 71.2349 30.9571L71.01 30.9152H70.7851L30.7915 26.6579L39.2232 8.32677C40.0868 6.67384 40.0787 4.70116 39.2022 3.05508C38.3252 1.40915 36.6926 0.301849 34.8385 0.0966644C32.985 -0.108505 31.1495 0.61396 29.9336 2.02798L3.11246 30.5736C1.62157 32.1679 0.792206 34.269 0.792206 36.4514C0.792206 38.6345 1.6216 40.7356 3.11246 42.3299L3.1125 42.3311Z" fill="#084F3D"/>
</g>
</svg>
