<svg width="248" height="250" viewBox="0 0 248 250" fill="none" xmlns="http://www.w3.org/2000/svg">
<g opacity="0.2">
<path d="M38.75 46.875C38.75 44.803 39.5665 42.8159 41.0199 41.3507C42.4733 39.8856 44.4446 39.0625 46.5 39.0625H240.25C242.305 39.0625 244.277 39.8856 245.73 41.3507C247.183 42.8159 248 44.803 248 46.875V242.188C248 244.26 247.183 246.247 245.73 247.712C244.277 249.177 242.305 250 240.25 250H46.5C44.4446 250 42.4733 249.177 41.0199 247.712C39.5665 246.247 38.75 244.26 38.75 242.188V46.875Z" fill="#A5AC8A"/>
<path fill-rule="evenodd" clip-rule="evenodd" d="M62 62.5V226.562H224.75V62.5H62ZM46.5 39.0625C44.4446 39.0625 42.4733 39.8856 41.0199 41.3507C39.5665 42.8159 38.75 44.803 38.75 46.875V242.188C38.75 244.26 39.5665 246.247 41.0199 247.712C42.4733 249.177 44.4446 250 46.5 250H240.25C242.305 250 244.277 249.177 245.73 247.712C247.183 246.247 248 244.26 248 242.188V46.875C248 44.803 247.183 42.8159 245.73 41.3507C244.277 39.8856 242.305 39.0625 240.25 39.0625H46.5Z" fill="#A5AC8A"/>
</g>
<path fill-rule="evenodd" clip-rule="evenodd" d="M46.5 46.875V93.75H93V46.875H46.5ZM38.75 31.25C36.6946 31.25 34.7233 32.0731 33.2699 33.5382C31.8165 35.0034 31 36.9905 31 39.0625V101.562C31 103.635 31.8165 105.622 33.2699 107.087C34.7233 108.552 36.6946 109.375 38.75 109.375H100.75C102.805 109.375 104.777 108.552 106.23 107.087C107.683 105.622 108.5 103.635 108.5 101.562V39.0625C108.5 36.9905 107.683 35.0034 106.23 33.5382C104.777 32.0731 102.805 31.25 100.75 31.25H38.75ZM139.5 46.875V93.75H186V46.875H139.5ZM131.75 31.25C129.695 31.25 127.723 32.0731 126.27 33.5382C124.817 35.0034 124 36.9905 124 39.0625V101.562C124 103.635 124.817 105.622 126.27 107.087C127.723 108.552 129.695 109.375 131.75 109.375H193.75C195.805 109.375 197.777 108.552 199.23 107.087C200.683 105.622 201.5 103.635 201.5 101.562V39.0625C201.5 36.9905 200.683 35.0034 199.23 33.5382C197.777 32.0731 195.805 31.25 193.75 31.25H131.75ZM46.5 140.625V187.5H93V140.625H46.5ZM38.75 125C36.6946 125 34.7233 125.823 33.2699 127.288C31.8165 128.753 31 130.74 31 132.812V195.312C31 197.385 31.8165 199.372 33.2699 200.837C34.7233 202.302 36.6946 203.125 38.75 203.125H100.75C102.805 203.125 104.777 202.302 106.23 200.837C107.683 199.372 108.5 197.385 108.5 195.312V132.812C108.5 130.74 107.683 128.753 106.23 127.288C104.777 125.823 102.805 125 100.75 125H38.75Z" fill="#A5AC8A"/>
<path d="M124 132.812C124 130.74 124.817 128.753 126.27 127.288C127.723 125.823 129.695 125 131.75 125H193.75C195.805 125 197.777 125.823 199.23 127.288C200.683 128.753 201.5 130.74 201.5 132.812V195.312C201.5 197.385 200.683 199.372 199.23 200.837C197.777 202.302 195.805 203.125 193.75 203.125H131.75C129.695 203.125 127.723 202.302 126.27 200.837C124.817 199.372 124 197.385 124 195.312V132.812Z" fill="#A5AC8A"/>
<path fill-rule="evenodd" clip-rule="evenodd" d="M139.5 140.625V187.5H186V140.625H139.5ZM131.75 125C129.695 125 127.723 125.823 126.27 127.288C124.817 128.753 124 130.74 124 132.812V195.312C124 197.385 124.817 199.372 126.27 200.837C127.723 202.302 129.695 203.125 131.75 203.125H193.75C195.805 203.125 197.777 202.302 199.23 200.837C200.683 199.372 201.5 197.385 201.5 195.312V132.812C201.5 130.74 200.683 128.753 199.23 127.288C197.777 125.823 195.805 125 193.75 125H131.75ZM0 7.8125C0 5.7405 0.816517 3.75336 2.26992 2.28823C3.72333 0.823102 5.69457 0 7.75 0H62C64.0554 0 66.0267 0.823102 67.4801 2.28823C68.9335 3.75336 69.75 5.7405 69.75 7.8125C69.75 9.8845 68.9335 11.8716 67.4801 13.3368C66.0267 14.8019 64.0554 15.625 62 15.625H7.75C5.69457 15.625 3.72333 14.8019 2.26992 13.3368C0.816517 11.8716 0 9.8845 0 7.8125Z" fill="#A5AC8A"/>
<path fill-rule="evenodd" clip-rule="evenodd" d="M7.75 0C9.80543 0 11.7767 0.823102 13.2301 2.28823C14.6835 3.75336 15.5 5.7405 15.5 7.8125V62.5C15.5 64.572 14.6835 66.5591 13.2301 68.0243C11.7767 69.4894 9.80543 70.3125 7.75 70.3125C5.69457 70.3125 3.72333 69.4894 2.26992 68.0243C0.816517 66.5591 0 64.572 0 62.5V7.8125C0 5.7405 0.816517 3.75336 2.26992 2.28823C3.72333 0.823102 5.69457 0 7.75 0ZM7.75 234.375C5.69457 234.375 3.72333 233.552 2.26992 232.087C0.816517 230.622 0 228.635 0 226.562V171.875C0 169.803 0.816517 167.816 2.26992 166.351C3.72333 164.886 5.69457 164.062 7.75 164.062C9.80543 164.062 11.7767 164.886 13.2301 166.351C14.6835 167.816 15.5 169.803 15.5 171.875V226.562C15.5 228.635 14.6835 230.622 13.2301 232.087C11.7767 233.552 9.80543 234.375 7.75 234.375Z" fill="#A5AC8A"/>
<path fill-rule="evenodd" clip-rule="evenodd" d="M0 226.562C0 224.49 0.816517 222.503 2.26992 221.038C3.72333 219.573 5.69457 218.75 7.75 218.75H62C64.0554 218.75 66.0267 219.573 67.4801 221.038C68.9335 222.503 69.75 224.49 69.75 226.562C69.75 228.635 68.9335 230.622 67.4801 232.087C66.0267 233.552 64.0554 234.375 62 234.375H7.75C5.69457 234.375 3.72333 233.552 2.26992 232.087C0.816517 230.622 0 228.635 0 226.562ZM232.5 226.562C232.5 228.635 231.683 230.622 230.23 232.087C228.777 233.552 226.805 234.375 224.75 234.375H170.5C168.445 234.375 166.473 233.552 165.02 232.087C163.567 230.622 162.75 228.635 162.75 226.562C162.75 224.49 163.567 222.503 165.02 221.038C166.473 219.573 168.445 218.75 170.5 218.75H224.75C226.805 218.75 228.777 219.573 230.23 221.038C231.683 222.503 232.5 224.49 232.5 226.562Z" fill="#A5AC8A"/>
<path fill-rule="evenodd" clip-rule="evenodd" d="M224.75 234.375C222.695 234.375 220.723 233.552 219.27 232.087C217.817 230.622 217 228.635 217 226.562V171.875C217 169.803 217.817 167.816 219.27 166.351C220.723 164.886 222.695 164.062 224.75 164.062C226.805 164.062 228.777 164.886 230.23 166.351C231.683 167.816 232.5 169.803 232.5 171.875V226.562C232.5 228.635 231.683 230.622 230.23 232.087C228.777 233.552 226.805 234.375 224.75 234.375ZM224.75 0C226.805 0 228.777 0.823102 230.23 2.28823C231.683 3.75336 232.5 5.7405 232.5 7.8125V62.5C232.5 64.572 231.683 66.5591 230.23 68.0243C228.777 69.4894 226.805 70.3125 224.75 70.3125C222.695 70.3125 220.723 69.4894 219.27 68.0243C217.817 66.5591 217 64.572 217 62.5V7.8125C217 5.7405 217.817 3.75336 219.27 2.28823C220.723 0.823102 222.695 0 224.75 0Z" fill="#A5AC8A"/>
<path fill-rule="evenodd" clip-rule="evenodd" d="M232.5 7.8125C232.5 9.8845 231.683 11.8716 230.23 13.3368C228.777 14.8019 226.805 15.625 224.75 15.625H170.5C168.445 15.625 166.473 14.8019 165.02 13.3368C163.567 11.8716 162.75 9.8845 162.75 7.8125C162.75 5.7405 163.567 3.75336 165.02 2.28823C166.473 0.823102 168.445 0 170.5 0H224.75C226.805 0 228.777 0.823102 230.23 2.28823C231.683 3.75336 232.5 5.7405 232.5 7.8125Z" fill="#A5AC8A"/>
</svg>
