<svg width="14" height="11" viewBox="0 0 14 11" fill="none" xmlns="http://www.w3.org/2000/svg">
<path d="M12.6 0H1.4C0.63 0 0.00699999 0.61875 0.00699999 1.375L0 9.625C0 10.3813 0.63 11 1.4 11H12.6C13.37 11 14 10.3813 14 9.625V1.375C14 0.61875 13.37 0 12.6 0ZM12.32 2.92188L7.371 5.96063C7.147 6.09812 6.853 6.09812 6.629 5.96063L1.68 2.92188C1.60981 2.88318 1.54834 2.83089 1.49932 2.76819C1.4503 2.70548 1.41474 2.63366 1.3948 2.55707C1.37486 2.48048 1.37095 2.40071 1.38331 2.32259C1.39567 2.24447 1.42404 2.16962 1.4667 2.10258C1.50936 2.03554 1.56543 1.9777 1.63151 1.93256C1.69759 1.88742 1.77231 1.85591 1.85115 1.83996C1.92998 1.824 2.0113 1.82391 2.09017 1.83971C2.16904 1.85551 2.24382 1.88687 2.31 1.93187L7 4.8125L11.69 1.93187C11.7562 1.88687 11.831 1.85551 11.9098 1.83971C11.9887 1.82391 12.07 1.824 12.1489 1.83996C12.2277 1.85591 12.3024 1.88742 12.3685 1.93256C12.4346 1.9777 12.4906 2.03554 12.5333 2.10258C12.576 2.16962 12.6043 2.24447 12.6167 2.32259C12.629 2.40071 12.6251 2.48048 12.6052 2.55707C12.5853 2.63366 12.5497 2.70548 12.5007 2.76819C12.4517 2.83089 12.3902 2.88318 12.32 2.92188Z" fill="#BCBCBC"/>
</svg>
