<svg width="18" height="18" viewBox="0 0 18 18" fill="none" xmlns="http://www.w3.org/2000/svg">
<path d="M0 0V6.23077H6.23077V0H0ZM7.61539 0V1.38462H9V0H7.61539ZM9 1.38462V2.76923H7.61539V5.53846H9V4.15385H10.3846V1.38462H9ZM9 5.53846V7.61539H2.76923V9H1.38462V10.3846H4.15385V9H5.53846V10.3846H9V9H10.3846V10.3846H12.4615V9H13.8462V7.61539H10.3846V5.53846H9ZM13.8462 9V10.3846H18V9H16.6154V7.61539H15.2308V9H13.8462ZM1.38462 9V7.61539H0V9H1.38462ZM11.7692 0V6.23077H18V0H11.7692ZM1.38462 1.38462H4.84615V4.84615H1.38462V1.38462ZM13.1538 1.38462H16.6154V4.84615H13.1538V1.38462ZM2.07692 2.07692V4.15385H4.15385V2.07692H2.07692ZM13.8462 2.07692V4.15385H15.9231V2.07692H13.8462ZM7.61539 11.0769V12.4615H9V11.0769H7.61539ZM9 12.4615V13.8462H7.61539V16.6154H9V15.2308H11.7692V13.8462H13.1538V12.4615H14.5385V13.8462H13.1538V15.2308H11.7692V18H13.1538V16.6154H14.5385V15.2308H15.2308V16.6154H14.5385V18H15.9231V16.6154H16.6154V15.2308H18V12.4615H16.6154V11.0769H11.7692V12.4615H9ZM16.6154 16.6154V18H18V16.6154H16.6154ZM9 16.6154V18H10.3846V16.6154H9ZM0 11.7692V18H6.23077V11.7692H0ZM1.38462 13.1538H4.84615V16.6154H1.38462V13.1538ZM2.07692 13.8462V15.9231H4.15385V13.8462H2.07692Z" fill="white"/>
</svg>
