<svg width="184" height="193" viewBox="0 0 184 193" fill="none" xmlns="http://www.w3.org/2000/svg">
<path d="M105.5 192.741C84.4439 192.741 63.3882 192.741 42.3272 192.741C33.477 192.741 27.499 186.871 27.4512 178.038C27.3982 167.467 27.4725 156.897 27.4035 146.332C27.3928 144.361 27.9609 143.766 30.0261 143.522C40.2885 142.321 49.6006 138.502 57.9995 132.505C61.7849 129.801 65.3367 126.805 68.3097 123.204C69.4087 121.876 70.651 121.355 72.3765 121.371C80.871 121.44 89.3708 121.169 97.8546 121.462C108.244 121.818 116.765 113.122 116.612 102.7C116.33 83.3494 116.341 63.9932 116.612 44.6423C116.75 34.587 108.68 25.8385 97.7697 25.9288C75.3602 26.1147 52.9453 25.9872 30.5305 25.9819C27.4566 25.9819 27.4406 25.9659 27.4353 22.8745C27.43 18.8056 27.3982 14.7315 27.4459 10.6626C27.5203 4.2247 31.3587 0.426758 37.772 0.426758C68.538 0.426758 99.2987 0.426758 130.065 0.426758C133.001 0.426758 133.011 0.437381 133.011 3.3695C133.011 15.5813 133.128 27.7932 132.969 40.005C132.878 46.8148 137.227 50.8252 143.688 50.6871C155.957 50.4215 168.242 50.6074 180.517 50.6127C183.357 50.6127 183.447 50.6924 183.447 53.4492C183.447 94.9398 183.437 136.436 183.458 177.926C183.463 187.955 175.425 192.921 168.449 192.831C147.468 192.566 126.481 192.736 105.494 192.736L105.5 192.741ZM114.435 169.401C127.564 169.401 140.688 169.401 153.817 169.401C154.672 169.401 155.537 169.427 156.382 169.321C158.431 169.061 160.002 167.239 160.024 165.194C160.045 163.159 158.479 161.295 156.445 161.008C155.676 160.902 154.879 160.923 154.093 160.923C127.766 160.923 101.444 160.923 75.1159 160.923C74.3302 160.923 73.5392 160.902 72.764 160.997C70.6829 161.258 69.191 163.011 69.1751 165.13C69.1592 167.249 70.6351 169.04 72.7003 169.316C73.5445 169.427 74.4098 169.401 75.2646 169.401C88.3196 169.401 101.375 169.401 114.435 169.401ZM119.181 146.613C130.951 146.613 142.721 146.618 154.486 146.613C157.937 146.613 160.04 144.966 160.029 142.321C160.018 139.66 157.911 137.96 154.529 137.88C154.316 137.88 154.099 137.88 153.886 137.88C130.707 137.88 107.522 137.88 84.3431 137.891C83.4246 137.891 82.4849 137.971 81.5983 138.194C79.4587 138.73 78.1368 140.547 78.2961 142.581C78.45 144.611 80.0481 146.284 82.1664 146.555C82.9415 146.65 83.7325 146.613 84.5183 146.613C96.0761 146.613 107.629 146.613 119.186 146.613H119.181ZM141.946 115.13C137.598 115.13 133.25 115.098 128.902 115.141C125.961 115.167 124.049 116.878 124.018 119.395C123.986 121.881 125.886 123.799 128.796 123.82C137.566 123.894 146.332 123.894 155.102 123.82C158.134 123.794 160.119 121.802 160.024 119.278C159.928 116.808 157.964 115.157 154.991 115.135C150.643 115.103 146.294 115.13 141.946 115.13ZM142.063 92.3476C137.572 92.3476 133.08 92.3104 128.594 92.3582C125.764 92.3901 123.991 94.1005 124.012 96.613C124.034 99.1255 125.801 100.788 128.668 100.799C137.508 100.836 146.348 100.831 155.182 100.799C158.118 100.788 160.056 99.0192 160.029 96.5333C160.002 94.0421 158.081 92.3635 155.107 92.3423C150.759 92.3104 146.411 92.3317 142.063 92.3423V92.3476Z" fill="#5C130D"/>
<path d="M55.2796 32.2491C69.338 32.2491 83.4017 32.2279 97.4601 32.2597C104.203 32.2757 108.97 36.0418 110.08 42.1503C110.255 43.1224 110.26 44.137 110.26 45.1356C110.271 64.205 110.276 83.2691 110.26 102.338C110.26 110.269 105.376 115.113 97.4123 115.124C88.3498 115.135 79.2819 115.214 70.2193 115.071C67.7665 115.034 66.1898 115.783 64.613 117.668C56.0123 127.963 44.996 134.294 31.8614 136.897C24.0943 138.438 18.6737 132.823 20.3036 125.078C20.877 122.359 21.3123 119.607 21.9282 116.898C22.252 115.485 21.737 115.108 20.4363 115.129C17.9411 115.172 15.4405 115.135 12.9399 115.129C4.89141 115.108 0.033624 110.269 0.0176968 102.147C-0.0141575 89.0058 0.00707874 75.8697 0.00707874 62.7283C0.00707874 56.9437 -0.00884842 51.1592 0.00707874 45.3746C0.0389331 37.2104 4.93388 32.2757 13.0727 32.2597C27.131 32.2332 41.1947 32.2544 55.2531 32.2544L55.2796 32.2491ZM68.5417 66.7334C68.6372 56.0248 62.1708 49.0079 53.2888 48.8167C45.0438 48.6361 37.8925 54.5109 37.1386 63.8491C36.9316 66.4306 38.6517 68.5607 41.0992 68.8581C43.467 69.145 45.4526 67.3496 45.7764 64.6193C45.803 64.4068 45.7977 64.189 45.8242 63.9766C46.2967 60.2849 49.0787 57.6396 52.6464 57.4802C56.0707 57.3315 58.9482 59.5465 59.8136 63.0098C60.6312 66.2819 58.8898 69.862 55.4814 71.1528C50.4166 73.0651 48.3195 76.6452 48.5637 81.9252C48.7177 85.2079 50.0608 87.0086 52.7207 87.0723C55.5079 87.1414 57.2812 85.33 57.2546 82.0473C57.2387 80.321 57.9129 79.588 59.3995 78.8762C65.2501 76.0769 68.3346 71.36 68.5417 66.7334ZM52.9596 100.793C55.2956 100.756 57.1909 98.8964 57.2228 96.6123C57.2546 94.2698 55.2584 92.3469 52.8216 92.3682C50.4378 92.3894 48.638 94.1795 48.6168 96.5433C48.5955 98.9973 50.475 100.83 52.9596 100.793Z" fill="#5C130D"/>
<path d="M162.401 41.8752C156.481 41.8752 150.556 41.8805 144.637 41.8752C141.77 41.8752 141.754 41.8646 141.749 39.0494C141.743 27.4855 141.733 15.9217 141.77 4.35792C141.77 3.50803 141.234 2.25445 142.322 1.87731C143.23 1.56391 143.973 2.57316 144.631 3.18401C150.365 8.54894 156.067 13.9351 161.78 19.3213C167.8 24.9996 173.815 30.6886 179.841 36.3616C180.892 37.3496 181.816 38.4119 182.442 39.724C183.17 41.2484 182.835 41.9124 181.025 41.8912C174.819 41.8327 168.612 41.8699 162.406 41.8699L162.401 41.8752Z" fill="#5C130D"/>
</svg>
