<svg width="189" height="223" viewBox="0 0 189 223" fill="none" xmlns="http://www.w3.org/2000/svg">
<path d="M147.995 46.9354C147.959 52.1356 145.517 60.1739 140.549 67.3943C139.677 68.6638 139.536 69.7502 139.945 71.1846C141.508 76.7448 142.966 82.3296 144.443 87.9142C145.139 90.5509 144.565 91.1185 141.874 90.4044C134.812 88.5429 127.745 86.6813 120.696 84.7526C119.322 84.3742 118.083 84.362 116.692 84.7526C87.9824 92.7787 60.2373 70.7878 61.5068 41.0517C62.5382 16.8697 84.2594 -2.02671 108.422 0.243782C131.138 2.38 148.013 20.7637 148.001 46.9354H147.995ZM128.3 69.9639C129.747 69.9639 131.199 69.9822 132.646 69.9639C136.094 69.915 137.327 68.7127 137.333 65.2642C137.351 55.755 137.357 46.2397 137.333 36.7304C137.327 33.3369 136.033 32.0918 132.572 32.0612C129.295 32.0307 126.017 32.0612 122.74 32.049C121.983 32.049 121.227 32.104 120.543 31.6157C118.315 30.0166 116.027 28.509 114.104 26.5193C112.224 24.5723 111.187 22.3262 111.297 19.543C111.4 16.9612 111.352 14.3673 111.309 11.7794C111.26 8.80088 109.844 7.4764 106.89 7.55574C99.9019 7.75106 93.6889 13.3907 93.0175 20.3487C92.7429 23.2173 92.7795 26.1287 92.8466 29.0095C92.8771 30.218 92.5781 30.5842 91.3819 30.5598C88.3364 30.4988 85.2848 30.5049 82.2332 30.5537C78.7849 30.6086 75.6784 32.1223 74.946 35.3694C74.0306 39.4465 73.0662 43.5419 72.3216 47.6618C71.8456 50.3046 74.5799 52.0868 75.2451 54.2535C75.9287 56.4874 75.3793 59.1668 77.0394 61.2908C77.2713 61.5899 77.5338 61.8707 77.8023 62.1392C78.1441 62.481 78.2295 62.8411 78.2051 63.3538C77.8816 70.2385 80.8173 73.333 87.72 73.3025C92.4378 73.2841 97.119 73.3513 101.794 74.273C107.922 75.4753 114.092 75.28 119.469 71.7949C121.922 70.2019 124.266 69.8784 126.927 69.97C127.385 69.9883 127.842 69.97 128.3 69.97V69.9639Z" fill="#5C130D"/>
<path d="M15.4138 144.97C15.4138 139.111 15.3344 133.251 15.4382 127.392C15.5603 120.422 21.3949 115.942 27.7788 117.791C31.929 118.994 34.6327 122.491 34.6083 127.215C34.6022 129.321 35.4871 130.328 37.0373 131.585C41.926 135.546 47.3213 136.834 53.5587 136.419C60.0892 135.986 66.6684 136.254 73.2232 136.352C78.002 136.425 80.9499 140.643 79.2105 144.775C78.2462 147.064 76.4579 148.504 73.9311 148.516C63.4092 148.583 52.8873 148.559 42.3654 148.541C39.9852 148.541 38.3252 146.899 36.482 145.733C35.3163 144.994 34.6388 144.671 34.6633 146.569C34.7304 151.208 34.6204 155.853 34.712 160.497C34.7913 164.477 37.074 166.65 41.0655 166.68C43.7387 166.698 46.4119 166.65 49.0302 167.248C56.5982 168.969 61.1694 174.132 64.4163 180.755C64.6971 181.328 64.6604 182.085 64.6604 182.757C64.6726 195.391 64.6726 208.025 64.6726 220.653C64.6726 220.958 64.6909 221.264 64.6665 221.569C64.6299 221.99 64.8191 222.594 64.1905 222.673C63.6534 222.741 63.4581 222.246 63.33 221.795C62.7074 219.683 62.0849 217.565 61.4623 215.453C59.1858 207.726 56.9155 199.999 54.6268 192.278C53.0094 186.84 51.7033 185.912 46.0151 185.882C42.2861 185.863 38.5387 186.15 34.8585 185.271C23.2136 182.482 15.6213 172.765 15.4321 160.284C15.3527 155.187 15.4199 150.085 15.4199 144.988L15.4138 144.97Z" fill="#5C130D"/>
<path d="M124.155 201.482C124.155 195.238 124.173 188.995 124.143 182.751C124.143 181.652 124.375 180.688 124.888 179.711C129.434 171.032 136.349 166.375 146.401 166.662C152.321 166.827 154.146 164.855 154.152 158.886C154.152 154.772 154.122 150.665 154.171 146.551C154.189 145.086 153.75 144.634 152.553 145.666C149.38 148.412 145.639 148.724 141.635 148.65C133.017 148.492 124.393 148.663 115.776 148.571C110.649 148.516 107.652 143.908 109.849 139.666C111.162 137.139 113.389 136.303 116.117 136.315C123.972 136.346 131.833 136.206 139.688 136.383C142.88 136.456 145.7 135.961 148.159 133.856C148.788 133.319 149.514 132.842 150.271 132.501C153.078 131.225 154.335 129.345 154.366 126.019C154.409 121.154 158.736 117.48 163.6 117.376C168.452 117.272 172.633 120.812 173.243 125.665C173.445 127.239 173.42 128.857 173.414 130.45C173.377 141.259 173.658 152.087 173.176 162.872C172.609 175.646 161.733 185.625 148.885 185.87C146.523 185.912 144.155 185.882 141.794 185.888C137.515 185.894 135.91 186.962 134.604 191.094C132.889 196.526 131.326 202.013 129.709 207.476C128.391 211.919 127.109 216.375 125.767 220.818C125.565 221.489 125.644 222.704 124.711 222.6C123.685 222.49 124.192 221.343 124.186 220.678C124.143 214.281 124.161 207.885 124.161 201.494L124.155 201.482Z" fill="#5C130D"/>
<path d="M77.722 0.000478456C77.6488 0.885484 77.0323 0.989285 76.6234 1.26394C71.6493 4.62086 67.3465 8.69183 63.8616 13.5746C63.1109 14.6305 62.3236 15.0212 61.042 15.009C55.0181 14.948 48.9942 14.9724 42.9642 14.9846C40.0286 14.9907 38.4722 16.309 38.515 18.6893C38.5516 20.9415 40.1141 22.266 42.8788 22.2843C48.036 22.3148 53.1933 22.2904 58.4603 22.2904C57.5204 25.1896 56.6293 27.8385 55.8176 30.5179C55.5124 31.5128 54.8228 31.4884 54.0416 31.4884C50.3797 31.4762 46.7178 31.464 43.0559 31.4884C40.108 31.5067 38.5272 32.8006 38.5211 35.1444C38.5089 37.5003 40.0653 38.7698 43.0253 38.7881C46.0769 38.8065 49.1346 38.9041 52.174 38.7515C53.9805 38.6599 54.4017 39.2886 54.2186 40.9671C54.0416 42.5479 53.9988 44.1898 54.2307 45.7522C54.542 47.8396 53.651 48.157 51.8566 48.0837C48.8844 47.9617 45.9061 48.0227 42.9338 48.0593C40.1203 48.0959 38.5821 49.3594 38.5211 51.6055C38.46 53.9492 40.0225 55.3164 42.9398 55.3469C46.6017 55.3835 50.2638 55.3591 53.9196 55.3591C54.7618 55.3591 55.6222 55.2492 55.9091 56.3845C57.1297 61.194 59.1865 65.6618 61.7193 69.8793C61.2006 70.5079 60.6026 70.337 60.1509 70.2577C55.897 69.513 52.8453 71.161 50.1538 74.4508C47.3158 77.9175 43.9896 80.9876 40.8709 84.2224C40.2483 84.8694 39.6502 85.7422 38.57 85.2601C37.5141 84.7901 37.7095 83.7586 37.7095 82.8614C37.6972 79.2847 37.6301 75.702 37.74 72.1315C37.7888 70.5934 37.2577 70.1661 35.7991 70.2577C33.9742 70.3675 32.1372 70.337 30.3123 70.2577C25.7654 70.0685 22.1585 66.5712 22.1402 62.0424C22.0731 44.1531 22.0731 26.2638 22.1402 8.37451C22.1585 3.34524 26.0157 0.0249043 31.6001 0.0126973C46.5469 -0.0117166 61.4997 0.0065879 76.4464 0.0065879C76.8736 0.0065879 77.3008 0.0065879 77.7341 0.0065879L77.722 0.000478456Z" fill="#5C130D"/>
<path d="M116.832 197.522C116.832 205.212 116.789 212.896 116.862 220.587C116.874 222.18 116.618 222.845 114.781 222.833C101.208 222.754 87.628 222.766 74.0545 222.821C72.5165 222.821 71.9549 222.485 71.961 220.825C72.022 205.218 72.022 189.612 71.961 174.011C71.9549 172.351 72.5104 172.015 74.0484 172.015C87.6219 172.07 101.201 172.082 114.775 172.003C116.588 171.991 116.881 172.62 116.868 174.231C116.789 181.995 116.832 189.758 116.832 197.522Z" fill="#5C130D"/>
<path d="M94.4268 164.733C81.7688 164.733 69.1169 164.733 56.4588 164.733C53.3767 164.733 53.1997 164.581 53.2302 161.529C53.2851 155.425 52.3147 155.92 58.8329 155.914C83.2274 155.914 107.628 155.914 132.023 155.914C135.599 155.914 135.617 155.914 135.599 159.448C135.568 165.02 136.368 164.745 130.332 164.739C118.364 164.727 106.395 164.739 94.4207 164.739L94.4268 164.733Z" fill="#5C130D"/>
<path d="M25.0391 189.391C20.7607 189.391 17.0072 189.782 13.3697 189.312C5.46603 188.287 0.0708953 181.78 0.0342761 173.577C-0.0267559 159.277 0.00985139 144.976 0.0220578 130.676C0.0220578 127.777 1.38914 126.104 3.64732 126.11C5.86888 126.116 7.32757 127.862 7.32757 130.694C7.34588 144.464 7.33368 158.233 7.33978 171.996C7.33978 178.661 8.98148 180.718 15.518 182.195C16.0856 182.323 16.4823 182.586 16.8485 182.983C19.0883 185.4 21.7372 187.316 25.0391 189.391Z" fill="#5C130D"/>
<path d="M164.418 189.532C167.159 187.316 169.893 185.29 172.188 182.751C172.651 182.232 173.256 182.269 173.854 182.177C178.871 181.371 181.465 178.393 181.477 173.284C181.501 159.594 181.489 145.898 181.489 132.208C181.489 131.597 181.471 130.987 181.489 130.383C181.593 127.771 183.106 126.062 185.261 126.117C187.385 126.171 188.788 127.758 188.788 130.316C188.807 144.921 188.88 159.527 188.752 174.127C188.672 182.873 181.843 189.434 173.085 189.526C170.192 189.556 167.299 189.526 164.412 189.526L164.418 189.532Z" fill="#5C130D"/>
<path d="M12.8873 99.8905C12.9361 93.1644 18.4779 87.7629 25.2098 87.8727C31.9904 87.9826 37.2819 93.4147 37.2269 100.208C37.172 106.909 31.5937 112.354 24.8924 112.256C18.1606 112.152 12.8324 106.671 12.8812 99.8905H12.8873Z" fill="#5C130D"/>
<path d="M175.941 100.158C175.899 106.884 170.375 112.323 163.662 112.255C156.93 112.188 151.565 106.707 151.602 99.9386C151.632 93.2187 157.162 87.7866 163.881 87.8721C170.662 87.9575 175.984 93.3774 175.941 100.158Z" fill="#5C130D"/>
<path d="M33.0955 207.116C33.0955 202.782 33.1382 198.449 33.0711 194.121C33.0528 192.827 33.3457 192.315 34.7128 192.681C35.5856 192.919 36.5134 192.998 37.4166 193.09C39.98 193.346 41.2615 194.801 41.2615 197.454C41.2615 204.9 41.2615 212.346 41.2615 219.799C41.2615 222.533 41.0052 222.771 38.2466 222.789C32.3997 222.832 33.12 222.985 33.1016 217.607C33.0894 214.11 33.1016 210.613 33.1016 207.122L33.0955 207.116Z" fill="#5C130D"/>
<path d="M155.734 207.348C155.734 211.682 155.685 216.015 155.758 220.343C155.788 222.119 155.044 222.802 153.317 222.796C146.811 222.766 147.58 223.236 147.568 217.272C147.555 210.131 147.622 202.984 147.525 195.843C147.5 193.921 147.799 192.767 150.051 193.139C150.564 193.225 151.113 193.121 151.644 193.066C154.37 192.765 155.734 193.955 155.734 196.637C155.734 200.207 155.734 203.778 155.734 207.354V207.348Z" fill="#5C130D"/>
<path d="M103.997 15.8262C103.997 17.352 104.039 18.469 103.99 19.5859C103.734 25.1096 106.011 29.4492 110.191 32.9159C110.716 33.3554 111.18 33.9352 111.778 34.2099C115.904 36.1019 116.722 39.349 116.472 43.6154C116.105 49.9874 116.307 56.396 116.429 62.7863C116.459 64.4526 115.794 65.2644 114.458 65.948C110.484 67.9743 106.322 67.5227 102.147 66.9673C101.879 66.9307 101.409 66.6377 101.427 66.5522C102.007 64.0071 99.4925 61.7732 100.762 59.1181C101.5 57.5801 101.5 55.8711 100.994 54.2049C100.829 53.6678 100.768 53.1673 101.256 52.7461C101.848 52.2396 102.233 52.8194 102.66 53.033C105.211 54.272 107.097 53.918 108.19 51.9649C109.276 50.0179 108.635 48.2662 106.2 46.661C105.046 45.9042 103.966 45.0741 103.045 44.0487C101.189 41.9857 100.872 40.2096 102.282 37.8109C103.551 35.6503 103.441 33.8436 101.702 32.037C100.542 30.8407 100.054 29.3576 100.127 27.6608C100.207 25.7627 100.103 23.8523 100.194 21.9541C100.322 19.4517 101.391 17.4436 104.009 15.8262H103.997Z" fill="#5C130D"/>
<path d="M130.016 51.1471C130.016 54.4125 129.967 57.6839 130.04 60.9493C130.064 62.2249 129.643 62.64 128.349 62.6888C123.699 62.8597 123.699 62.9085 123.699 58.2881C123.699 52.6668 123.748 47.0455 123.668 41.4242C123.644 39.8983 123.992 39.3063 125.658 39.3185C130.022 39.3491 130.022 39.2697 130.022 43.6276C130.022 46.1361 130.022 48.6447 130.022 51.1471H130.016Z" fill="#5C130D"/>
<path d="M87.616 48.2791C85.4127 48.2791 83.2094 48.2914 81.0062 48.2731C80.4081 48.2731 79.6573 48.2853 79.7306 47.4002C79.7916 46.7228 80.4385 46.6922 80.9695 46.6922C85.4493 46.68 89.9351 46.6739 94.4149 46.6922C95.013 46.6922 95.7698 46.7228 95.6966 47.5834C95.6417 48.2365 94.9886 48.273 94.4515 48.2791C92.175 48.2852 89.8925 48.2791 87.616 48.2791Z" fill="#5C130D"/>
<path d="M87.9025 37.8599C89.4954 37.8599 91.0944 37.8599 92.6873 37.8599C93.2427 37.8599 93.8592 37.9393 93.8592 38.6229C93.8592 39.3614 93.1696 39.3309 92.6691 39.3309C89.3307 39.3492 85.986 39.3431 82.6476 39.3309C82.2082 39.3309 81.6589 39.3065 81.6101 38.7083C81.549 37.982 82.1044 37.866 82.6659 37.8599C84.4114 37.8477 86.157 37.8599 87.9025 37.8599Z" fill="#5C130D"/>
<path d="M88.2375 57.074C86.8033 57.074 85.3629 57.074 83.9286 57.074C83.3672 57.074 82.7506 56.9703 82.769 56.3172C82.7873 55.658 83.4221 55.6031 83.9775 55.6031C86.8521 55.6031 89.7206 55.597 92.5952 55.6092C93.1078 55.6092 93.7975 55.5604 93.8463 56.2562C93.9074 57.1534 93.12 57.0557 92.5463 57.0679C91.112 57.0985 89.6718 57.074 88.2375 57.074Z" fill="#5C130D"/>
<path d="M89.6249 65.9481C88.4897 65.9481 87.3544 65.9726 86.2192 65.9359C85.8347 65.9237 85.4624 65.6918 85.4075 65.2768C85.3403 64.7214 85.7615 64.4284 86.2315 64.4162C88.5018 64.3857 90.7783 64.3918 93.0487 64.4162C93.4515 64.4162 93.8055 64.6664 93.8604 65.0692C93.9337 65.6368 93.5064 65.9115 93.0303 65.9298C91.8952 65.9786 90.7601 65.9481 89.6249 65.9481Z" fill="#5C130D"/>
</svg>
