<svg width="191" height="190" viewBox="0 0 191 190" fill="none" xmlns="http://www.w3.org/2000/svg">
<path d="M142.671 54.3189C142.671 68.5694 142.671 82.8256 142.671 97.0761C142.671 104.453 138.644 108.521 131.335 108.521C107.276 108.521 83.2168 108.521 59.1522 108.521C51.9339 108.521 47.8213 104.448 47.8213 97.2855C47.8213 68.6373 47.8213 39.9891 47.8213 11.3409C47.8213 4.18452 51.9396 0.111328 59.1578 0.111328C83.2168 0.111328 107.276 0.111328 131.34 0.111328C138.649 0.111328 142.671 4.1732 142.671 11.5502C142.671 25.8008 142.671 40.057 142.671 54.3076V54.3189ZM85.0836 71.9185C85.0836 77.1401 85.061 82.3617 85.0893 87.5833C85.1063 90.3384 86.3451 91.5547 89.1283 91.5773C93.0089 91.6056 96.8896 91.5887 100.77 91.583C104.351 91.5774 105.403 90.5138 105.403 86.8988C105.403 76.7384 105.437 66.5781 105.369 56.412C105.358 54.8337 105.652 54.2 107.412 54.2736C111.077 54.4263 114.749 54.3019 118.42 54.3245C119.953 54.3359 121.186 53.8663 121.939 52.4576C122.702 51.015 122.318 49.7252 121.384 48.5259C113.674 38.6144 105.98 28.6916 98.2417 18.8028C96.4314 16.489 94.0443 16.5173 92.2171 18.848C84.5236 28.686 76.8754 38.5522 69.2045 48.4014C68.2825 49.5837 67.7733 50.8283 68.4804 52.3105C69.2158 53.8436 70.5001 54.3359 72.118 54.3245C75.8572 54.2963 79.5963 54.3754 83.3356 54.2849C84.7046 54.251 85.1346 54.63 85.1119 56.0386C85.0327 61.3281 85.078 66.6233 85.078 71.9128L85.0836 71.9185Z" fill="#5C130D"/>
<path d="M95.0276 149.179C69.6222 149.179 44.2169 149.179 18.8116 149.179C7.38459 149.179 0.392578 142.159 0.392578 130.691C0.392578 98.9318 0.392578 67.1778 0.392578 35.4182C0.392578 24.1151 7.43543 17.0662 18.7323 17.0605C25.5772 17.0605 32.4222 17.0888 39.2671 17.0322C40.5851 17.0209 41.1225 17.2925 41.0772 18.752C40.9698 22.135 40.9698 25.5294 41.0772 28.9124C41.1225 30.3606 40.6078 30.6605 39.2784 30.6379C34.4078 30.57 29.5427 30.5926 24.6721 30.6152C18.2119 30.6435 13.9522 34.9033 13.9522 41.3922C13.9409 69.1974 13.9409 97.0027 13.9522 124.808C13.9522 131.393 18.2176 135.619 24.8532 135.625C71.7832 135.63 118.713 135.63 165.637 135.625C172.262 135.625 176.538 131.393 176.544 124.814C176.555 97.0084 176.555 69.2031 176.544 41.3978C176.544 34.909 172.273 30.6435 165.824 30.6152C160.953 30.5982 156.083 30.57 151.218 30.6379C149.883 30.6548 149.374 30.355 149.419 28.9124C149.526 25.5294 149.498 22.135 149.43 18.752C149.408 17.547 149.617 17.0152 151.02 17.0265C158.572 17.1001 166.124 16.9643 173.67 17.1001C182.936 17.2698 190.075 24.7996 190.092 34.3603C190.132 56.6611 190.104 78.9618 190.104 101.263C190.104 111.282 190.115 121.306 190.104 131.325C190.087 141.932 182.885 149.168 172.313 149.174C146.557 149.185 120.795 149.174 95.0389 149.174L95.0276 149.179Z" fill="#5C130D"/>
<path d="M95.1321 128.852C71.9896 128.852 48.8414 128.852 25.6988 128.852C21.6598 128.852 20.7207 127.913 20.7207 123.88C20.7207 96.7137 20.7207 69.5421 20.7207 42.3761C20.7207 38.3199 21.6541 37.3864 25.6762 37.3864C30.1225 37.3864 34.5689 37.4713 39.0096 37.3412C40.7124 37.2903 41.0857 37.822 41.08 39.4513C41.0235 58.6463 41.0404 77.8413 41.046 97.0306C41.046 108.204 48.1173 115.298 59.2615 115.298C83.2526 115.298 107.244 115.298 131.235 115.298C142.373 115.298 149.444 108.198 149.444 97.0249C149.444 77.9035 149.473 58.7764 149.399 39.655C149.393 37.8164 149.795 37.2676 151.696 37.3299C156.346 37.4826 161.007 37.3638 165.663 37.3864C168.553 37.4034 169.758 38.614 169.758 41.5331C169.77 69.2648 169.77 96.9966 169.758 124.728C169.758 127.681 168.508 128.841 165.408 128.841C141.983 128.847 118.557 128.841 95.1264 128.841L95.1321 128.852Z" fill="#5C130D"/>
<path d="M95.0287 189.833C79.7154 189.833 64.4076 189.833 49.0942 189.833C45.4908 189.833 44.4386 188.781 44.4329 185.183C44.4329 183.35 44.4046 181.511 44.4386 179.678C44.5461 173.987 48.8454 169.54 54.4966 169.529C81.6613 169.484 108.826 169.484 135.991 169.529C141.557 169.54 145.885 173.919 146.037 179.469C146.094 181.511 146.066 183.559 146.049 185.607C146.026 188.639 144.844 189.827 141.806 189.827C126.775 189.838 111.751 189.827 96.7201 189.827C96.1544 189.827 95.5887 189.827 95.0287 189.827V189.833Z" fill="#5C130D"/>
<path d="M95.4693 155.951C100.402 155.951 105.341 155.996 110.274 155.922C111.642 155.9 112.242 156.115 112.231 157.71C112.197 162.728 112.27 162.728 107.191 162.728C98.2412 162.728 89.2863 162.7 80.337 162.756C78.8889 162.768 78.2382 162.587 78.2665 160.861C78.3514 155.951 78.2608 155.951 83.2107 155.951C87.3006 155.951 91.385 155.951 95.475 155.951H95.4693Z" fill="#5C130D"/>
<path d="M111.587 47.548C108.707 47.548 105.85 47.5366 102.994 47.548C99.803 47.5649 98.6434 48.6964 98.6434 51.8588C98.632 62.1492 98.6038 72.4454 98.6773 82.7359C98.6886 84.3482 98.3322 84.8913 96.6181 84.8517C91.8663 84.7499 91.8664 84.8347 91.8664 80.1788C91.8664 70.8727 91.8664 61.5666 91.8664 52.2661C91.8664 48.5606 90.8368 47.5536 87.0636 47.548C84.3879 47.548 81.7065 47.548 79.0421 47.548C78.697 46.7955 79.325 46.4788 79.6305 46.0884C84.4162 39.8994 89.2585 33.7557 93.9934 27.5271C95.0342 26.1581 95.5264 26.2146 96.539 27.544C101.234 33.7104 106.031 39.8032 110.777 45.93C111.106 46.3486 111.598 46.6994 111.592 47.548H111.587Z" fill="#5C130D"/>
</svg>
