<svg width="175" height="174" viewBox="0 0 175 174" fill="none" xmlns="http://www.w3.org/2000/svg">
<path d="M104.042 115.87C126.751 115.87 149.446 115.898 172.156 115.827C173.978 115.827 174.491 116.28 174.476 118.108C174.405 135.462 174.434 152.816 174.434 170.184C174.434 173.272 174.092 173.612 170.974 173.612C126.296 173.612 81.6173 173.612 36.9389 173.612C33.7639 173.612 33.3367 173.187 33.3367 170.085C33.3367 152.731 33.3651 135.377 33.2939 118.009C33.2939 116.238 33.7781 115.827 35.5151 115.827C58.3527 115.884 81.19 115.87 104.028 115.87H104.042ZM144.662 166.458C154.33 166.402 161.99 158.709 161.947 149.09C161.905 139.542 154.073 131.736 144.534 131.764C134.924 131.793 127.079 139.684 127.121 149.303C127.164 158.808 135.038 166.515 144.662 166.444V166.458ZM103.629 139.287C108.156 139.287 112.67 139.287 117.198 139.287C119.447 139.287 120.002 138.72 120.017 136.454C120.031 132.884 120.045 129.314 120.017 125.73C120.017 123.633 119.39 123.01 117.269 123.01C108.157 122.996 99.0444 122.996 89.9464 123.01C87.8677 123.01 87.2268 123.675 87.2125 125.758C87.184 129.328 87.1983 132.898 87.2125 136.482C87.2125 138.678 87.839 139.287 90.0743 139.287C94.602 139.301 99.1154 139.287 103.643 139.287H103.629ZM65.9983 159.092C60.2034 159.092 54.4087 159.092 48.6139 159.092C47.2186 159.092 45.9797 159.333 45.9512 161.033C45.9085 162.818 47.1332 163.158 48.6424 163.158C60.1039 163.158 71.5509 163.143 83.0124 163.158C84.4789 163.158 85.86 162.903 85.917 161.203C85.9882 159.318 84.5359 159.092 82.9982 159.092C77.3315 159.12 71.6792 159.092 66.0125 159.092H65.9983ZM65.8133 151.3C71.5369 151.3 77.2745 151.3 82.9982 151.3C84.4504 151.3 85.86 151.102 85.917 149.374C85.9597 147.546 84.5643 147.22 82.9982 147.22C71.6079 147.234 60.2176 147.234 48.8273 147.22C47.3893 147.22 46.0224 147.348 45.9512 149.161C45.8801 151.13 47.3181 151.286 48.8273 151.286C54.494 151.286 60.1467 151.286 65.8133 151.286V151.3Z" fill="#5C130D"/>
<path d="M140.805 0.000160755C159.442 0.0426603 174.449 14.9884 174.42 33.4898C174.392 52.0905 159.286 67.0503 140.592 66.9937C122.025 66.937 107.061 51.9205 107.09 33.3766C107.118 14.8751 122.196 -0.0565053 140.805 0.000160755ZM132.533 47.5289C133.273 47.5572 133.857 47.3022 134.355 46.7922C142.286 38.859 150.23 30.9256 158.175 22.9782C159.158 21.9866 159.4 20.8816 158.303 19.8616C157.278 18.9125 156.239 19.2241 155.313 20.1307C154.929 20.4991 154.559 20.8816 154.174 21.2499C147.397 27.9932 140.591 34.7224 133.857 41.5223C132.874 42.4998 132.348 42.5706 131.394 41.5223C129.785 39.7657 128.005 38.1506 126.311 36.4648C125.286 35.4448 124.189 34.9631 123.022 36.139C121.926 37.2439 122.381 38.2922 123.335 39.2555C125.827 41.7347 128.333 44.2138 130.824 46.7071C131.308 47.203 131.864 47.5289 132.533 47.5147V47.5289Z" fill="#5C130D"/>
<path d="M103.773 92.3672C81.1346 92.3672 58.4964 92.3672 35.8583 92.3672C33.0676 92.3672 33.3524 92.7638 33.3524 89.7888C33.3381 86.148 33.3239 82.5073 33.3524 78.8523C33.3666 76.6565 34.0073 76.0332 36.2285 76.0332C81.3767 76.0332 126.51 76.0332 171.659 76.0332C173.923 76.0332 174.421 76.5574 174.435 78.909C174.464 82.7482 174.364 86.6013 174.478 90.4404C174.521 91.9988 174.065 92.4238 172.485 92.4096C149.576 92.3529 126.681 92.3812 103.773 92.3812V92.3672Z" fill="#5C130D"/>
<path d="M103.902 111.831C81.1356 111.831 58.355 111.803 35.5887 111.874C33.7093 111.874 33.2393 111.349 33.3105 109.564C33.4529 106.122 33.339 102.68 33.3533 99.2371C33.3675 96.0355 33.0116 96.4322 36.2863 96.4322C59.4513 96.4322 82.6303 96.4322 105.795 96.4322C127.835 96.4322 149.876 96.4605 171.916 96.3896C173.852 96.3896 174.621 96.7296 174.493 98.8546C174.294 102.425 174.351 106.009 174.479 109.579C174.536 111.335 174.109 111.902 172.215 111.902C156.696 111.817 141.191 111.859 125.671 111.859C118.41 111.859 111.149 111.859 103.902 111.859V111.831Z" fill="#5C130D"/>
<path d="M44.4281 58.1702C40.1709 58.1702 35.9139 58.1419 31.6568 58.1986C30.4465 58.2128 29.9052 58.0144 29.9337 56.5978C30.1045 49.3587 31.0586 42.2329 32.5821 35.1638C32.8384 33.9455 33.3935 33.6054 34.5895 33.6196C42.0359 33.6621 49.4968 33.6621 56.9432 33.6196C58.2104 33.6196 58.6944 33.9455 58.6944 35.2771C58.6375 42.4312 58.6517 49.5711 58.6944 56.7252C58.6944 57.8444 58.3527 58.2128 57.2136 58.1986C52.9565 58.1419 48.6994 58.1702 44.4423 58.1702H44.4281Z" fill="#5C130D"/>
<path d="M77.4329 58.1683C73.1046 58.1683 68.7903 58.1259 64.462 58.1967C63.2376 58.2109 62.8818 57.8282 62.8818 56.6241C62.9245 49.4841 62.9388 42.33 62.8818 35.1901C62.8818 33.9293 63.3515 33.6318 64.519 33.6318C72.0366 33.6743 79.5543 33.6743 87.0719 33.6318C88.1825 33.6318 88.6952 33.901 88.9657 35.0627C90.5746 42.2451 91.4999 49.5125 91.742 56.8791C91.7847 57.97 91.4146 58.2107 90.4037 58.2107C86.0754 58.1682 81.7612 58.1967 77.4329 58.1967V58.1683Z" fill="#5C130D"/>
<path d="M12.5369 58.1698C8.87778 58.1698 5.21871 58.1274 1.55958 58.1982C0.363601 58.2265 -0.0636594 57.9431 0.00752984 56.6539C0.463141 48.9615 2.34276 41.6515 5.57475 34.6674C5.94494 33.8741 6.41469 33.6191 7.25472 33.6191C13.8468 33.6475 20.4249 33.6475 27.017 33.6191C27.9852 33.6191 28.4548 33.7042 28.17 34.9367C26.5327 41.9916 25.6501 49.1457 25.4935 56.3707C25.465 57.8581 24.9665 58.2407 23.5142 58.1982C19.8551 58.0849 16.196 58.1698 12.5369 58.1698Z" fill="#5C130D"/>
<path d="M12.862 62.5473C16.5212 62.5473 20.1806 62.604 23.8397 62.519C25.0784 62.4906 25.4342 62.8873 25.4769 64.0773C25.6905 71.373 26.5446 78.5838 28.1962 85.7096C28.481 86.942 28.0114 87.0413 27.0432 87.0271C20.5223 87.013 14.001 86.9988 7.48008 87.0271C6.56886 87.0271 6.04235 86.7579 5.64369 85.8937C2.38322 78.9946 0.503545 71.7556 0.0194578 64.134C-0.0659693 62.7173 0.475319 62.5048 1.69977 62.519C5.43009 62.5756 9.14596 62.5473 12.8763 62.5473H12.862Z" fill="#5C130D"/>
<path d="M58.6671 14.8062C58.6671 19.1128 58.6386 23.4194 58.6813 27.726C58.6813 28.831 58.4819 29.4259 57.1578 29.4118C50.0389 29.3551 42.9057 29.3976 35.7867 29.3834C35.0891 29.3834 34.1065 29.5534 34.5336 28.3067C37.8368 18.6877 41.9234 9.5362 50.5231 3.26043C52.4167 1.87211 54.5522 0.97951 56.8018 0.313684C58.1687 -0.0971449 58.7098 0.129651 58.6813 1.68797C58.5959 6.06542 58.6528 10.4287 58.6528 14.8062H58.6671Z" fill="#5C130D"/>
<path d="M62.9106 14.5503C62.9106 10.442 62.9106 6.34794 62.9106 2.23965C62.9106 -0.211156 62.9248 -0.225482 65.3595 0.482844C69.5027 1.687 72.8486 4.15204 75.7105 7.28284C81.192 13.2753 84.4951 20.4578 86.9867 28.0652C87.3 29.0285 87.1435 29.3968 86.0899 29.3968C78.7717 29.3826 71.4532 29.3684 64.1349 29.3968C62.7538 29.3968 62.9106 28.5185 62.9106 27.6543C62.9106 23.291 62.9106 18.9136 62.9106 14.5503Z" fill="#5C130D"/>
<path d="M44.6437 2.26781C37.1831 9.52107 32.9686 18.4319 30.0214 28.0368C29.7224 29.0001 29.2953 29.4109 28.2274 29.4109C22.2333 29.3542 16.2393 29.3826 10.2452 29.3967C9.13462 29.3967 8.52223 29.2976 9.36226 28.0226C17.8053 15.1453 29.3095 6.36197 44.2308 2.12618C44.2877 2.11201 44.359 2.16864 44.6437 2.26781Z" fill="#5C130D"/>
<path d="M77.1357 2.22609C83.4004 3.72775 89.1524 6.37676 94.5059 9.89006C98.2504 12.3409 101.653 15.1883 104.771 18.39C105.355 18.9991 105.74 19.4951 105.341 20.4584C104.33 22.8384 103.703 25.3599 103.39 27.924C103.248 29.114 102.75 29.4399 101.596 29.4116C98.9338 29.3266 96.2715 29.3266 93.609 29.4116C92.3846 29.4541 91.886 29.0291 91.5443 27.8675C89.793 22.0167 87.4154 16.4067 84.1549 11.2076C82.1474 7.99182 79.7982 5.04522 77.1357 2.21191V2.22609Z" fill="#5C130D"/>
<path d="M30.6603 74.0223C30.1478 70.3532 30.0196 67.0666 29.9342 63.7799C29.8915 62.3916 30.7317 62.5333 31.6002 62.5475C36.5835 62.5475 41.5667 62.5475 46.55 62.5475C50.0098 62.5475 53.4696 62.6183 56.9152 62.5191C58.3532 62.4766 58.7519 62.9725 58.6807 64.3183C58.581 66.2308 58.5668 68.1573 58.6807 70.0698C58.7661 71.5573 58.2534 71.9966 56.7584 71.9682C50.0524 71.8974 43.3323 71.9682 36.612 71.9257C34.4906 71.9257 32.497 72.1665 30.6318 74.0081L30.6603 74.0223Z" fill="#5C130D"/>
<path d="M77.4054 62.5465C81.6625 62.5465 85.9339 62.5889 90.191 62.5181C91.4154 62.5039 91.8427 62.8581 91.7145 64.0906C91.4867 66.258 91.3585 68.4538 91.2873 70.6355C91.2446 71.6838 90.8174 71.953 89.8208 71.953C81.3635 71.9247 72.9061 71.9247 64.4488 71.953C63.381 71.953 62.8686 71.6839 62.8971 70.508C62.9683 68.3264 62.9683 66.1306 62.8971 63.9489C62.8544 62.7731 63.3386 62.5039 64.4207 62.5181C68.749 62.5606 73.0771 62.5323 77.4054 62.5323V62.5465Z" fill="#5C130D"/>
<path d="M112.101 58.1685C106.99 58.1685 102.277 58.1402 97.55 58.1827C96.5249 58.1827 96.1262 57.8709 96.112 56.8509C95.9269 49.371 95.0584 41.9619 93.3357 34.6661C93.1363 33.7878 93.5067 33.632 94.2471 33.632C96.7672 33.632 99.3013 33.6603 101.821 33.632C103.245 33.6178 102.96 34.6662 103.003 35.4453C103.373 42.4153 105.538 48.776 109.453 54.5418C110.222 55.6751 111.062 56.7518 112.101 58.1685Z" fill="#5C130D"/>
<path d="M29.2654 112.158C26.0619 110.302 23.4138 108.262 20.8794 106.052C16.4515 102.199 12.6784 97.7935 9.4749 92.8777C8.69182 91.6735 8.86277 91.3476 10.2866 91.3618C16.1383 91.4043 21.9756 91.3759 27.8273 91.3759C28.5677 91.3759 29.2796 91.3051 29.2796 92.4384C29.2512 98.8984 29.2796 105.344 29.2796 112.144L29.2654 112.158Z" fill="#5C130D"/>
<path d="M108.186 71.9386C104.527 71.9386 100.867 71.882 97.2083 71.967C95.8415 71.9953 95.5142 71.5277 95.6566 70.2527C95.8844 68.2128 95.9984 66.1728 96.0696 64.1187C96.1123 62.9854 96.4396 62.5037 97.6925 62.5179C103.672 62.5745 109.667 62.4755 115.647 62.5888C118.053 62.6313 119.989 64.4162 121.142 66.0453C122.053 67.3203 121.085 69.7428 120.573 71.5703C120.402 72.1936 119.519 71.9386 118.95 71.9386C115.362 71.9528 111.774 71.9386 108.172 71.9386H108.186Z" fill="#5C130D"/>
<path d="M103.462 135.263C99.9452 135.263 96.4143 135.207 92.8976 135.292C91.5592 135.32 91.1603 134.867 91.2315 133.592C91.3312 131.878 91.3027 130.149 91.2315 128.435C91.1888 127.401 91.6017 127.047 92.6126 127.061C99.9166 127.089 107.221 127.089 114.525 127.061C115.692 127.061 116.006 127.486 115.963 128.577C115.892 130.291 115.877 132.019 115.963 133.733C116.034 134.952 115.621 135.32 114.397 135.306C110.752 135.235 107.093 135.277 103.433 135.277L103.462 135.263Z" fill="#5C130D"/>
</svg>
