<svg width="131" height="155" viewBox="0 0 131 155" fill="none" xmlns="http://www.w3.org/2000/svg">
<path fill-rule="evenodd" clip-rule="evenodd" d="M77.0588 0V42.3824C77.0588 45.4479 78.2766 48.388 80.4443 50.5557C82.612 52.7234 85.5521 53.9412 88.6177 53.9412H131V107.882C131 111.97 129.376 115.89 126.486 118.78C123.596 121.67 119.676 123.294 115.588 123.294H100.176V138.706C100.176 142.793 98.5527 146.713 95.6625 149.604C92.7722 152.494 88.8522 154.118 84.7647 154.118H15.4118C11.3243 154.118 7.40427 152.494 4.514 149.604C1.62373 146.713 0 142.793 0 138.706V46.2353C0 42.1478 1.62373 38.2278 4.514 35.3375C7.40427 32.4473 11.3243 30.8235 15.4118 30.8235H30.8235V15.4118C30.8235 11.3243 32.4473 7.40427 35.3375 4.514C38.2278 1.62373 42.1478 0 46.2353 0H77.0588ZM30.8235 46.2353H15.4118V138.706H84.7647V123.294H46.2353C42.1478 123.294 38.2278 121.67 35.3375 118.78C32.4473 115.89 30.8235 111.97 30.8235 107.882V46.2353ZM92.4706 0.331353C95.3902 0.950562 98.0672 2.40417 100.176 4.51565L126.484 30.8235C128.596 32.9328 130.049 35.6098 130.669 38.5294H92.4706V0.331353Z" fill="#5C130D"/>
</svg>
