<svg width="183" height="206" viewBox="0 0 183 206" fill="none" xmlns="http://www.w3.org/2000/svg">
<path d="M91.5289 20.5402C106.133 20.5402 120.732 20.5289 135.336 20.5402C144.125 20.5458 149.153 25.4689 149.17 34.2523C149.215 54.9335 149.159 75.6204 149.227 96.3016C149.232 98.2403 148.593 99.3877 147.007 100.484C129.181 112.789 111.388 125.145 93.6411 137.574C91.9536 138.755 90.8437 138.744 89.1732 137.574C71.4261 125.156 53.6337 112.795 35.7961 100.507C34.0633 99.3142 33.5422 98.0311 33.5479 96.019C33.6159 75.5525 33.5706 55.0804 33.5989 34.614C33.6102 25.4123 38.5198 20.5515 47.7218 20.5458C62.326 20.5402 76.9246 20.5458 91.5289 20.5458V20.5402ZM91.3873 106.962C97.4012 106.962 103.415 107.035 109.423 106.945C117.266 106.826 122.255 101.773 122.317 93.9898C122.357 89.1686 122.34 84.3473 122.317 79.526C122.3 76.1008 120.777 74.0943 118.229 74.066C115.698 74.0377 114.061 76.0895 114.033 79.4582C113.999 84.0647 114.044 88.6768 114.016 93.2833C113.993 97.5055 112.708 98.7998 108.387 98.8111C97.0048 98.845 85.6283 98.8507 74.2461 98.8111C69.9991 98.7942 68.7589 97.4772 68.7476 93.1533C68.7306 82.0073 68.7363 70.8613 68.7476 59.7209C68.7476 54.5887 69.8689 53.4526 74.9144 53.447C83.3972 53.4357 91.88 53.4583 100.357 53.4357C103.936 53.4244 105.714 52.0396 105.714 49.3605C105.714 46.6814 103.93 45.2401 100.352 45.2231C91.4383 45.1835 82.5308 45.1327 73.6176 45.2344C65.4406 45.3249 60.4687 50.4457 60.4517 58.63C60.4233 70.313 60.4233 81.9903 60.4517 93.6733C60.4687 101.875 65.4293 106.871 73.6686 106.962C79.5748 107.029 85.481 106.973 91.3816 106.973L91.3873 106.962ZM91.1325 88.4338C93.3806 88.3886 94.5245 87.0829 95.7023 85.8225C102.877 78.1469 110.063 70.4769 117.243 62.8013C119.588 60.2974 121.983 57.833 124.243 55.2557C125.89 53.3735 125.919 51.2935 124.061 49.5244C122.193 47.7496 120.182 47.987 118.314 49.6544C117.68 50.2253 117.125 50.8866 116.536 51.514C108.687 59.8791 100.804 68.2217 93.0125 76.6434C91.7214 78.0338 90.9457 78.3334 89.5186 76.7621C87.0044 73.9812 84.2693 71.3982 81.5794 68.7813C79.2181 66.4865 76.919 66.2774 75.1012 68.0861C73.3344 69.8382 73.5326 72.3308 75.7524 74.5804C79.7447 78.6273 83.8049 82.6008 87.8141 86.6308C88.8391 87.6594 89.9547 88.3999 91.1268 88.4281L91.1325 88.4338Z" fill="#5C130D"/>
<path d="M11.4756 204.591C68.4429 165.037 124.974 125.783 181.494 86.54C182.638 87.4161 182.174 88.4561 182.174 89.3209C182.202 122.228 182.213 155.135 182.191 188.041C182.179 198.995 175.254 205.823 164.212 205.823C115.67 205.834 67.1349 205.823 18.5937 205.829C16.3626 205.829 14.1314 205.863 11.4869 204.591H11.4756ZM136.526 195.525C146.079 195.525 155.632 195.53 165.186 195.525C167.847 195.525 169.591 194.174 169.67 191.523C169.755 188.844 168.028 187.47 165.406 187.278C164.336 187.199 163.249 187.148 162.19 187.278C160.095 187.521 159.398 186.724 159.455 184.605C159.585 180.004 159.585 175.392 159.421 170.791C159.33 168.219 157.858 166.495 155.106 166.642C152.569 166.772 151.3 168.394 151.272 170.915C151.238 173.809 151.255 176.697 151.255 179.591C151.255 187.572 151.255 187.51 143.288 187.307C141.493 187.261 140.858 186.787 140.904 184.944C141.017 180.337 140.977 175.731 140.921 171.124C140.904 169.649 141.119 168.751 142.92 168.609C145.337 168.423 146.589 166.767 146.47 164.455C146.34 161.934 144.715 160.64 142.189 160.617C138.542 160.589 134.89 160.589 131.243 160.617C128.853 160.634 127.285 161.911 127.058 164.229C126.82 166.693 128.134 168.428 130.688 168.621C132.511 168.756 132.698 169.661 132.664 171.124C132.591 174.013 132.642 176.907 132.642 179.8C132.642 187.465 132.642 187.403 124.844 187.307C122.93 187.284 122.211 186.854 122.279 184.808C122.432 180.315 122.369 175.81 122.307 171.311C122.262 168.349 120.642 166.58 118.19 166.586C115.767 166.591 114.119 168.389 114.051 171.328C113.971 175.075 114.028 178.828 114.028 182.576C114.028 185.666 112.533 187.226 109.543 187.256C105.862 187.295 103.773 188.782 103.75 191.382C103.728 194.004 105.8 195.53 109.475 195.53C118.49 195.542 127.506 195.53 136.521 195.53L136.526 195.525ZM169.716 161.143C169.625 159.046 168.294 157.921 166.584 157.028C157.66 152.382 148.735 147.736 139.845 143.033C137.772 141.937 135.903 141.886 133.78 143.022C124.901 147.753 115.959 152.354 107.052 157.039C103.954 158.667 103.025 160.871 104.322 163.178C105.63 165.501 107.816 165.868 111.016 164.212C117.007 161.12 123.264 158.418 128.882 154.756C134.522 151.076 139.205 151.138 144.828 154.818C150.621 158.611 157.048 161.448 163.254 164.585C166.516 166.235 169.795 164.393 169.716 161.137V161.143Z" fill="#5C130D"/>
<path d="M0.868566 86.2351C8.63221 91.616 16.0221 96.7255 23.4007 101.846C42.773 115.298 62.1113 128.796 81.5402 142.163C83.8619 143.763 83.7714 144.424 81.5233 145.978C56.4712 163.28 31.4644 180.643 6.51999 198.091C4.3285 199.623 3.47346 199.007 2.52212 197.006C1.35559 194.547 0.608101 191.998 0.608101 189.279C0.596776 155.429 0.602439 121.572 0.608101 87.7217C0.608101 87.4221 0.710014 87.1169 0.874234 86.2295L0.868566 86.2351Z" fill="#5C130D"/>
<path d="M157.365 55.5605C165.078 63.2757 172.253 70.4483 179.603 77.8018C172.853 82.4931 166.012 87.2465 159.172 92C158.175 92.6952 157.365 92.91 157.365 91.2539C157.365 79.537 157.365 67.8201 157.365 55.5605Z" fill="#5C130D"/>
<path d="M25.2075 93.0295C21.7306 90.633 18.6784 88.5304 15.6262 86.4221C11.9227 83.856 8.21924 81.2899 4.52713 78.7069C3.79663 78.1926 2.68676 77.8252 3.91557 76.61C10.8921 69.703 17.829 62.7566 25.2075 55.3975V93.0295Z" fill="#5C130D"/>
<path d="M113.925 12.0958H69.1953C79.0315 -2.02323 99.576 -5.92321 113.925 12.0958Z" fill="#5C130D"/>
</svg>
