<svg width="173" height="210" viewBox="0 0 173 210" fill="none" xmlns="http://www.w3.org/2000/svg">
<path d="M48.4142 145.738C60.0486 145.738 71.6918 145.79 83.3262 145.695C85.6444 145.677 86.4723 146.327 86.4636 148.719C86.3852 167.75 86.4287 186.772 86.4113 205.803C86.4113 208.585 86.1847 208.801 83.2826 208.801C60.0051 208.81 36.7362 208.81 13.4587 208.801C10.6002 208.801 10.3736 208.567 10.3736 205.759C10.3649 186.729 10.4085 167.707 10.3214 148.676C10.3126 146.232 11.2364 145.677 13.5023 145.703C25.1367 145.79 36.7798 145.747 48.4142 145.747V145.738Z" fill="#5C130D"/>
<path d="M160.505 135.018C160.505 141.153 160.505 147.298 160.505 153.433C160.505 155.946 159.203 157.206 156.6 157.212C144.408 157.22 132.225 157.229 120.033 157.238C115.85 157.238 115.597 157.489 115.597 161.536C115.597 170.237 115.579 178.937 115.605 187.638C115.605 189.64 115.048 191.321 113.357 192.491C110.037 194.779 105.827 192.465 105.531 188.132C105.383 185.966 105.479 183.782 105.479 181.607C105.479 173.608 105.479 165.6 105.479 157.602C105.479 151.657 107.814 149.256 113.828 149.178C119.292 149.109 124.765 149.178 130.238 149.152C133.279 149.143 133.576 148.831 133.593 145.798C133.611 141.994 133.593 138.181 133.593 134.376C133.593 133.354 133.645 132.279 132.512 131.759C131.388 131.239 130.569 131.985 129.776 132.609C125.558 135.945 121.383 139.333 117.122 142.618C114.263 144.819 111.065 144.429 109.348 141.829C107.745 139.411 108.233 136.864 110.934 134.688C116.582 130.139 122.29 125.667 127.963 121.161C128.695 120.58 129.392 119.947 130.168 119.419C132.312 117.963 133.497 116.247 133.898 113.43C134.918 106.255 141.219 101.437 148.103 101.939C155.067 102.442 160.322 108.161 160.47 115.675C160.601 122.123 160.496 128.57 160.496 135.018H160.505Z" fill="#5C130D"/>
<path d="M20.545 127.323C14.7845 127.262 15.3945 127.955 15.4381 122.218C15.5165 111.732 25.1552 103.682 35.7003 105.164C36.6676 105.302 37.1993 105.883 37.7832 106.507C44.0405 113.119 52.6682 113.154 58.9691 106.533C59.9191 105.536 60.9126 105.216 62.2372 105.138C72.5644 104.505 79.6322 111.542 81.1137 119.159C81.532 121.317 81.3142 123.492 81.3578 125.668C81.3752 126.881 80.7128 127.323 79.5973 127.314C77.4099 127.314 75.2224 127.305 73.035 127.314C71.7452 127.314 71.2223 126.664 71.2397 125.425C71.2571 123.484 71.2397 121.543 71.2049 119.601C71.1874 118.466 70.7517 117.565 69.4531 117.582C68.1546 117.608 67.7799 118.535 67.7625 119.662C67.745 121.525 67.7015 123.388 67.7451 125.252C67.7886 126.751 67.1088 127.331 65.636 127.323C54.1585 127.305 42.6722 127.297 31.1947 127.323C29.565 127.323 28.9637 126.63 29.0159 125.07C29.077 123.284 29.0247 121.499 29.0159 119.714C29.0072 118.605 28.6848 117.625 27.3863 117.573C25.9396 117.521 25.5823 118.544 25.5735 119.757C25.5648 121.387 25.4603 123.024 25.5823 124.645C25.7391 126.69 24.9199 127.531 22.8806 127.314C22.105 127.236 21.3206 127.297 20.5363 127.305L20.545 127.323Z" fill="#5C130D"/>
<path d="M48.3108 142.263C33.3125 142.263 18.3141 142.263 3.31569 142.263C0.108604 142.263 -0.126654 142.003 0.0389294 138.796C0.300377 133.9 3.53358 130.806 8.56209 130.806C35.1164 130.789 61.6795 130.789 88.2339 130.806C93.6981 130.806 96.9314 134.376 96.8094 139.94C96.7745 141.613 96.208 142.323 94.4738 142.289C91.0401 142.211 87.5977 142.271 84.164 142.271C72.2159 142.271 60.259 142.271 48.3108 142.271V142.263Z" fill="#5C130D"/>
<path d="M172.715 134.212C172.715 144.854 172.715 155.504 172.715 166.146C172.715 169.283 172.663 169.327 169.63 169.327C157.438 169.327 145.255 169.327 133.063 169.327C130.222 169.327 129.864 168.729 131.276 166.233C133.376 162.515 136.653 160.704 140.906 160.678C147.39 160.643 153.874 160.678 160.358 160.661C163.574 160.661 164.009 160.253 164.009 157.038C164.027 138.935 164.009 120.831 164.018 102.728C164.018 101.87 163.983 101.012 164.062 100.163C164.253 97.97 165.656 96.4795 167.713 96.2628C169.953 96.0288 171.461 97.0341 172.332 99.0533C172.776 100.085 172.715 101.185 172.715 102.268C172.715 112.91 172.715 123.561 172.715 134.203V134.212Z" fill="#5C130D"/>
<path d="M130.126 35.0291C130.1 54.1985 114.169 69.9535 94.9965 69.7715C75.6843 69.5895 59.8405 53.8345 60.0758 34.7345C60.3111 15.5997 75.3444 0.139451 95.2928 0.000793047C114.57 -0.129198 130.153 15.7384 130.135 35.0291H130.126ZM95.1708 65.6724C112.47 65.6551 126.135 52.084 126.135 34.9078C126.135 17.7143 112.496 4.13451 95.2057 4.10851C77.8717 4.09118 63.9888 17.8269 64.015 34.9858C64.0411 51.9974 77.9414 65.6898 95.1708 65.6724Z" fill="#5C130D"/>
<path d="M48.2753 101.237C40.8066 101.194 34.68 95.0844 34.7061 87.7009C34.7236 80.352 40.9809 74.0604 48.2666 74.0518C55.7352 74.0431 62.1145 80.3347 62.0884 87.6922C62.0623 95.2231 55.8834 101.281 48.2753 101.237Z" fill="#5C130D"/>
<path d="M146.746 97.9873C139.198 97.9959 133.15 92.051 133.124 84.5895C133.089 77.0673 139.198 70.897 146.746 70.8277C154.101 70.7584 160.524 77.1973 160.463 84.5721C160.402 91.8863 154.162 97.9786 146.746 97.9873Z" fill="#5C130D"/>
<path d="M151.13 184.094C151.13 186.971 151.217 189.848 151.104 192.717C151.017 194.901 151.81 195.828 154.076 195.759C157.431 195.646 160.795 195.767 164.15 195.724C166.311 195.698 167.889 196.443 168.9 198.437C169.885 200.378 171.087 202.206 172.116 204.121C172.56 204.953 172.917 205.959 171.837 206.591C170.739 207.224 169.946 206.47 169.614 205.577C167.296 199.303 162.433 198.229 156.429 198.644C151.147 199.008 151.13 198.722 151.13 203.905C151.13 204.841 151.174 205.768 151.113 206.704C151.043 207.831 151.278 209.356 149.649 209.408C147.958 209.46 148.167 207.926 148.132 206.799C148.089 205.092 148.071 203.385 148.132 201.678C148.193 199.615 147.269 198.645 145.187 198.731C144.097 198.775 142.999 198.792 141.91 198.731C138.485 198.541 136.071 200.005 134.485 202.986C133.901 204.078 133.247 205.144 132.532 206.158C132.097 206.782 131.408 207.033 130.685 206.591C129.97 206.158 129.796 205.456 130.188 204.771C131.696 202.146 133.177 199.494 134.824 196.955C135.565 195.811 136.977 195.793 138.232 195.767C140.576 195.733 142.921 195.698 145.265 195.759C147.365 195.811 148.193 194.892 148.167 192.812C148.089 187.457 148.141 182.092 148.141 176.737C148.141 176.113 148.141 175.497 148.141 174.873C148.141 173.877 148.254 172.958 149.579 172.932C150.886 172.906 151.104 173.79 151.113 174.804C151.13 177.907 151.113 181.018 151.113 184.12H151.13V184.094Z" fill="#5C130D"/>
<path d="M98.7335 62.0754C97.2955 62.3267 96.9382 61.5901 96.9818 60.3422C97.0166 59.4149 97.0166 58.4616 96.8423 57.5603C96.668 56.6677 96.0928 55.9831 95.0383 56.1044C94.1407 56.1998 93.6788 56.8064 93.5742 57.6643C93.5132 58.1236 93.5132 58.5916 93.5045 59.0595C93.4087 62.162 93.0601 62.4567 90.0796 61.8587C85.9574 61.0355 82.2187 59.3715 78.785 56.9624C77.3296 55.9398 77.2773 55.0992 78.5672 53.8426C79.6304 52.8027 81.7655 51.5894 79.979 49.9082C78.3841 48.4089 77.1902 50.3848 76.1793 51.4247C74.9679 52.6726 74.1225 52.768 73.0506 51.2687C70.3228 47.473 68.5188 43.3393 67.8914 38.6769C67.6822 37.091 68.2226 36.5277 69.7564 36.6057C70.6104 36.6491 71.4819 36.623 72.3272 36.519C73.1813 36.415 73.8088 35.8604 73.8611 35.0025C73.9221 34.0059 73.2511 33.4599 72.3186 33.2433C72.0223 33.1739 71.6911 33.1479 71.3861 33.1653C67.5689 33.4512 67.2726 33.4253 68.2487 28.8496C69.0591 25.0711 70.7324 21.6827 72.9896 18.5456C74.0354 17.0983 74.9504 16.9857 76.1008 18.3549C76.5453 18.8836 77.0769 19.3688 77.6259 19.7935C78.4364 20.4261 79.3602 20.6341 80.1533 19.8108C80.8679 19.0655 80.6239 18.2336 80.0574 17.4883C79.8744 17.237 79.6565 17.0117 79.4474 16.7864C77.7451 14.9145 77.989 13.2795 80.1794 11.8813C83.3778 9.85346 86.855 8.52755 90.585 7.81693C92.45 7.46162 93.6091 7.81692 93.5394 10.0874C93.4958 11.448 92.9729 13.5539 95.108 13.6059C97.3914 13.6665 96.9905 11.5 96.9556 10.0528C96.912 8.22425 97.5308 7.45297 99.4132 7.78228C103.945 8.58823 108.085 10.2694 111.797 13.0253C113.07 13.9699 113.165 14.7585 111.971 15.7811C111.379 16.2837 110.856 16.8644 110.333 17.445C109.714 18.121 109.287 18.8836 110.045 19.7068C110.786 20.5214 111.701 20.5214 112.581 19.9495C113.035 19.6548 113.409 19.2388 113.802 18.8662C115.98 16.769 116.059 16.769 117.767 19.1609C120.242 22.6446 121.715 26.5357 122.473 30.7214C122.778 32.4113 122.29 33.1566 120.468 33.1826C118.996 33.2086 116.608 32.4373 116.686 34.9505C116.765 37.3856 119.135 36.5017 120.608 36.5797C122.116 36.6664 122.778 37.1777 122.525 38.7202C121.741 43.3999 120.041 47.6723 117.139 51.4767C116.268 52.6206 115.518 52.7593 114.534 51.6587C113.915 50.9654 113.235 50.2895 112.477 49.7695C111.71 49.2409 110.821 49.2669 110.15 50.0295C109.523 50.7314 109.714 51.4594 110.228 52.1527C110.368 52.3433 110.525 52.508 110.682 52.69C112.5 54.7872 112.244 56.5868 109.915 58.0889C106.507 60.2728 102.751 61.4947 98.7858 62.0667L98.7335 62.0754ZM96.9818 29.4649C96.9818 26.7177 97.0079 24.8545 96.9818 22.9999C96.9643 21.856 96.7116 20.6948 95.2911 20.6428C93.6701 20.5908 93.5219 21.856 93.5132 23.0866C93.4958 25.8771 93.3999 28.6676 93.5394 31.4494C93.6352 33.4079 92.9729 34.8205 91.5437 36.1377C89.3127 38.1829 87.221 40.3841 85.0859 42.5333C84.2493 43.3739 83.6828 44.3532 84.6589 45.3758C85.6524 46.4157 86.6372 45.8698 87.4912 45.0291C88.9815 43.5559 90.3584 41.9354 91.9881 40.6268C95.9098 37.4897 98.3326 33.8326 96.9992 29.4649H96.9818Z" fill="#5C130D"/>
</svg>
