<svg width="195" height="184" viewBox="0 0 195 184" fill="none" xmlns="http://www.w3.org/2000/svg">
<path d="M142.731 141.424C139.481 144.621 136.401 147.615 133.377 150.666C132.682 151.371 132.004 151.483 131.1 151.286C128.415 150.7 125.702 150.226 123.034 149.578C121.622 149.234 120.57 149.6 119.598 150.581C117.117 153.085 114.585 155.537 112.121 158.052C110.137 160.077 110.453 161.638 113.053 162.975C115.359 164.159 117.682 165.309 120.129 166.544C119.525 167.119 118.948 166.916 118.451 166.916C82.573 166.927 46.6952 166.933 10.8174 166.922C3.86569 166.922 0.0676507 163.144 0.0676507 156.231C0.0563471 122.337 0.0789792 88.444 0.0224609 54.5448C0.0224609 52.6559 0.46332 52.0977 2.44146 52.0977C56.5407 52.154 110.64 52.154 164.734 52.0977C166.57 52.0977 167.107 52.5149 167.096 54.4038C167.023 74.1614 167.051 93.9247 167.051 113.682C167.051 117.505 167.062 117.415 163.298 117.015C150.101 115.616 136.898 114.303 123.707 112.899C122.006 112.718 120.734 113.113 119.559 114.37C117.49 116.58 115.275 118.656 113.144 120.815C111.024 122.963 111.262 124.469 113.946 125.912C122.82 130.683 131.704 135.436 140.583 140.201C141.199 140.533 141.798 140.888 142.72 141.407L142.731 141.424ZM104.802 80.0425C117.224 80.0425 129.653 80.0425 142.075 80.0425C142.782 80.0425 143.517 80.1158 144.184 79.941C145.483 79.5914 146.213 78.6948 146.1 77.2908C145.998 75.9939 145.229 75.244 143.974 75.0354C143.353 74.9339 142.708 74.9847 142.07 74.9847C117.292 74.9847 92.5145 74.9847 67.7369 74.9847C67.1039 74.9847 66.454 74.9339 65.8379 75.0354C64.5889 75.2497 63.8146 75.9939 63.7185 77.2965C63.6111 78.7005 64.3346 79.597 65.6401 79.941C66.3014 80.1158 67.0418 80.0425 67.7483 80.0425C80.1032 80.0425 92.4581 80.0425 104.807 80.0425H104.802ZM89.4118 111.743C96.8891 111.743 104.366 111.731 111.844 111.754C113.381 111.754 114.704 111.483 115.099 109.763C115.529 107.875 114.201 106.685 111.669 106.685C96.8551 106.679 82.0361 106.679 67.2227 106.685C64.815 106.685 63.645 107.576 63.7015 109.312C63.7524 110.97 64.8376 111.743 67.1887 111.743C74.5983 111.754 82.0022 111.743 89.4118 111.743ZM34.0351 87.2373C34.7925 87.2655 35.4085 86.9272 35.9172 86.4197C40.5121 81.8581 45.1071 77.3021 49.6737 72.7179C50.7589 71.6297 50.9228 70.3667 49.8772 69.1374C48.809 67.88 47.3169 67.9646 45.8474 69.4137C42.3829 72.8138 38.9127 76.2139 35.5385 79.7041C34.4477 80.8375 33.7695 81.0743 32.5939 79.7718C30.5254 77.4769 28.2533 75.3568 26.066 73.169C24.8566 71.9624 23.4888 71.5564 22.1776 72.8589C20.872 74.1558 21.2337 75.5147 22.4545 76.7326C25.6365 79.9184 28.8128 83.1098 31.9948 86.2956C32.5543 86.8595 33.1817 87.2937 34.0351 87.2429V87.2373ZM33.9108 118.937C34.5777 118.977 35.1994 118.819 35.6685 118.357C40.4104 113.654 45.1806 108.974 49.849 104.198C51.1037 102.913 50.6515 101.069 49.1425 100.302C47.7635 99.6027 46.7235 100.223 45.7626 101.187C42.2811 104.666 38.7431 108.094 35.3237 111.635C34.2612 112.735 33.6565 112.634 32.6787 111.579C30.5706 109.318 28.3607 107.147 26.1452 104.988C24.6474 103.522 23.1723 103.397 22.0928 104.638C20.8777 106.036 21.3072 107.322 22.511 108.523C25.5969 111.602 28.6659 114.697 31.7405 117.787C32.3452 118.391 32.9613 118.966 33.9051 118.937H33.9108ZM34.0634 150.66C34.7303 150.66 35.3237 150.451 35.7928 149.983C40.4895 145.309 45.1975 140.646 49.8546 135.932C50.8888 134.883 50.8493 133.598 49.8037 132.532C48.7581 131.472 47.543 131.489 46.3674 132.369C45.9209 132.707 45.5366 133.13 45.141 133.53C41.8403 136.812 38.517 140.065 35.2729 143.398C34.3403 144.356 33.7752 144.492 32.7917 143.431C30.6384 141.103 28.3381 138.915 26.1056 136.665C24.9018 135.453 23.5284 135.036 22.2002 136.304C20.8551 137.584 21.2337 138.96 22.4489 140.178C25.58 143.33 28.7167 146.471 31.8422 149.623C32.4639 150.248 33.1421 150.7 34.0634 150.66ZM80.1427 143.443C84.5851 143.443 89.0331 143.414 93.4754 143.46C95.2501 143.477 96.5895 142.98 96.7817 141.035C96.9399 139.451 95.5948 138.396 93.4359 138.391C84.619 138.368 75.7965 138.368 66.9796 138.391C64.7472 138.396 63.5829 139.372 63.7185 141.069C63.8824 143.099 65.2897 143.465 67.0248 143.454C71.3993 143.42 75.7739 143.443 80.1484 143.443H80.1427Z" fill="#5C130D"/>
<path d="M83.4651 47.0843C56.5567 47.0843 29.6484 47.0617 2.74002 47.1293C0.688406 47.1293 -0.0745715 46.7685 0.00455407 44.5243C0.191064 39.3988 0.0384623 34.2565 0.0723732 29.1254C0.117588 22.765 4.01167 18.9477 10.4321 18.9083C13.7931 18.8895 15.4736 20.5585 15.4736 23.9153C15.4736 30.8564 18.4408 35.3954 24.1039 37.1152C31.6265 39.3988 39.3582 33.9069 39.6182 26.0749C39.6803 24.1803 39.6804 22.2745 39.6238 20.3799C39.5899 19.3255 39.8895 18.8688 41.0424 18.8913C44.5014 18.9533 47.9659 18.9533 51.4249 18.8913C52.6287 18.8688 52.8265 19.4157 52.7983 20.4194C52.7474 22.1786 52.7531 23.9378 52.7983 25.6914C52.9565 32.3731 58.2409 37.6114 64.8366 37.6509C71.5058 37.6904 76.8355 32.3844 76.9485 25.5787C76.9768 23.9604 77.0276 22.3421 76.9372 20.7295C76.8637 19.427 77.1746 18.8349 78.6554 18.88C81.8995 18.9872 85.155 18.9872 88.3991 18.88C89.8686 18.8293 90.1398 19.4044 90.1342 20.7126C90.1285 23.233 89.8742 25.7704 90.4451 28.2796C91.7846 34.1493 97.2838 38.1415 103.297 37.5663C109.379 36.9855 114.047 32.1251 114.245 26.1256C114.307 24.231 114.33 22.3252 114.245 20.4306C114.194 19.2014 114.669 18.8688 115.839 18.8913C119.156 18.9533 122.48 18.9759 125.797 18.8857C127.154 18.8462 127.431 19.365 127.436 20.5942C127.436 23.1146 127.176 25.652 127.73 28.1611C129.03 34.0591 134.495 38.1133 140.486 37.5776C146.681 37.025 151.372 32.1477 151.553 26.0298C151.609 24.1352 151.575 22.235 151.575 20.3348C151.575 19.6074 151.53 18.88 152.609 18.9195C154.791 18.9984 156.99 18.7053 159.16 19.1169C163.755 19.9965 166.875 23.4473 167.016 28.2683C167.186 34.0309 167.016 39.7992 167.106 45.5674C167.135 47.2872 166.123 47.0899 165.049 47.0899C149.58 47.0899 134.117 47.0899 118.648 47.0899C106.926 47.0899 95.1983 47.0899 83.4764 47.0899L83.4651 47.0843Z" fill="#5C130D"/>
<path d="M141.527 183.409C139.119 178.628 136.824 174.207 134.665 169.724C133.919 168.179 132.902 167.147 131.348 166.403C126.849 164.255 122.412 161.977 117.365 159.456C119.112 157.911 120.621 156.643 122.039 155.289C122.734 154.624 123.424 154.799 124.193 154.962C126.742 155.509 129.324 155.932 131.845 156.598C133.518 157.043 134.682 156.547 135.818 155.397C139.882 151.292 144.008 147.238 148.083 143.144C150.18 141.035 149.925 139.462 147.258 138.024C138.384 133.248 129.517 128.467 120.598 123.775C118.97 122.918 118.58 122.541 120.067 120.956C122.164 118.718 124.187 117.911 127.403 118.3C140.363 119.873 153.373 121.024 166.355 122.405C168 122.58 169.192 122.208 170.323 121.035C172.668 118.599 175.065 116.208 177.506 113.868C181.474 110.079 185.95 107.345 191.67 107.08C193.648 106.989 194.253 107.728 194.19 109.6C193.998 115.391 191.127 119.873 187.29 123.877C184.95 126.318 182.542 128.698 180.1 131.038C178.976 132.115 178.631 133.276 178.801 134.816C180.31 148.721 181.734 162.631 183.26 176.536C183.441 178.165 182.305 178.768 181.468 179.62C178.648 182.501 178.625 182.479 176.709 178.932C172.295 170.767 167.881 162.603 163.467 154.444C161.562 150.925 160.325 150.762 157.437 153.632C153.543 157.511 149.677 161.419 145.732 165.247C144.471 166.465 144.115 167.717 144.55 169.408C145.178 171.856 145.517 174.376 146.15 176.818C146.444 177.945 146.178 178.639 145.376 179.394C144.104 180.595 142.945 181.915 141.532 183.392L141.527 183.409Z" fill="#5C130D"/>
<path d="M146.472 16.8221C146.472 19.7034 146.506 22.5903 146.461 25.4716C146.399 29.5032 143.477 32.5087 139.605 32.5763C135.689 32.6496 132.546 29.5878 132.501 25.4829C132.433 19.647 132.439 13.8111 132.501 7.97516C132.546 3.88719 135.711 0.785962 139.594 0.853625C143.448 0.921288 146.376 3.9492 146.472 7.96387C146.472 8.10484 146.472 8.2458 146.472 8.38677C146.472 11.2004 146.472 14.0141 146.472 16.8221Z" fill="#5C130D"/>
<path d="M34.5496 16.7487C34.5496 19.7033 34.5948 22.658 34.5383 25.607C34.4592 29.5822 31.3959 32.5988 27.5413 32.5819C23.7716 32.565 20.6518 29.6273 20.5896 25.7705C20.4936 19.7259 20.4936 13.6757 20.5896 7.63118C20.6575 3.80258 23.8507 0.836672 27.5866 0.853588C31.3451 0.870503 34.3801 3.84766 34.5383 7.67626C34.544 7.81723 34.544 7.95819 34.544 8.09916C34.544 10.9805 34.544 13.8674 34.544 16.7487H34.5496Z" fill="#5C130D"/>
<path d="M109.166 16.946C109.166 19.8273 109.211 22.7143 109.154 25.5956C109.075 29.5765 106.029 32.5931 102.174 32.5819C98.4046 32.5706 95.2791 29.6441 95.2112 25.7817C95.1095 19.7371 95.1039 13.6869 95.2112 7.64233C95.2791 3.80246 98.4611 0.847885 102.197 0.853524C106.035 0.864801 109.047 3.90398 109.16 7.87918C109.16 8.02014 109.16 8.16111 109.16 8.30207C109.16 11.1834 109.16 14.0703 109.16 16.9516L109.166 16.946Z" fill="#5C130D"/>
<path d="M71.8568 16.8952C71.8568 19.7766 71.8963 22.6635 71.8455 25.5448C71.7776 29.5426 68.7765 32.5536 64.9163 32.5818C61.0731 32.6044 57.942 29.6046 57.8911 25.6238C57.812 19.7202 57.8233 13.811 57.8911 7.90172C57.9363 3.92088 61.0109 0.881679 64.8372 0.847848C68.7426 0.819655 71.7946 3.90959 71.8511 8.0314C71.8907 10.986 71.8568 13.9406 71.8568 16.8896V16.8952Z" fill="#5C130D"/>
</svg>
