<svg width="212" height="207" viewBox="0 0 212 207" fill="none" xmlns="http://www.w3.org/2000/svg">
<path d="M169.445 69.0262C169.445 77.8342 169.567 86.6422 169.42 95.4441C168.994 120.632 157.287 139.198 135.818 151.926C128.459 156.29 120.527 159.291 112.338 161.696C105.979 163.565 100.034 162.012 94.0644 160.01C80.4492 155.438 68.2182 148.633 58.4686 137.901C47.0241 125.295 42.268 110.23 42.3046 93.4293C42.3412 75.7402 42.2681 58.0512 42.329 40.3622C42.3656 29.9837 47.3594 22.7827 56.8955 18.82C70.1388 13.3173 83.4491 7.96672 96.7046 2.48835C102.857 -0.0560467 108.948 -0.0499032 115.088 2.47015C128.429 7.94243 141.812 13.3112 155.116 18.8748C164.567 22.8253 169.402 30.075 169.481 40.3317C169.555 49.8945 169.5 59.4634 169.5 69.0262C169.482 69.0262 169.463 69.0262 169.451 69.0262H169.445ZM162.976 68.6549C162.976 59.013 163.055 49.371 162.945 39.7352C162.872 33.0333 159.696 27.975 153.543 25.3758C139.568 19.4653 125.477 13.8164 111.405 8.13108C107.899 6.71279 104.21 6.62756 100.704 8.03976C86.4124 13.786 72.1142 19.52 57.9381 25.534C52.042 28.0358 48.9141 32.9846 48.8714 39.3943C48.7616 58.526 48.6032 77.6577 48.9324 96.7833C49.1946 112.135 54.804 125.484 65.9559 136.276C75.9799 145.979 88.1318 151.78 101.442 155.438C104.607 156.309 107.759 156.193 110.893 155.317C117.643 153.424 124.154 150.94 130.307 147.562C151.824 135.734 163.146 117.82 162.976 93.0275C162.921 84.9073 162.97 76.7812 162.964 68.661L162.976 68.6549Z" fill="#5C130D"/>
<path d="M106.004 181.813C119.838 181.813 133.667 181.722 147.502 181.844C156.129 181.923 161.849 190.615 158.733 198.577C156.837 203.41 152.312 206.387 146.733 206.393C130.771 206.411 114.814 206.399 98.8517 206.399C87.4498 206.399 76.0541 206.429 64.6522 206.387C59.0427 206.362 54.4575 202.947 52.8173 197.743C51.2381 192.727 53.0064 187.346 57.2866 184.181C59.7012 182.391 62.4389 181.771 65.4266 181.783C78.9564 181.825 92.4799 181.801 106.01 181.801V181.813H106.004Z" fill="#5C130D"/>
<path d="M105.966 177.163C94.7902 177.163 83.62 177.126 72.4437 177.199C70.6877 177.211 70.0232 176.773 70.1147 174.929C70.2671 171.903 70.1634 168.86 70.1939 165.822C70.2183 163.509 71.1267 161.549 72.7364 159.912C74.9924 157.611 76.1753 157.459 79.0837 158.871C86.4065 162.426 93.9488 165.39 101.991 166.9C105.808 167.618 109.564 167.216 113.265 166.212C120.313 164.301 127.154 161.811 133.611 158.372C135.05 157.605 136.142 157.739 137.38 158.56C139.867 160.216 141.459 162.444 141.569 165.481C141.684 168.665 141.544 171.861 141.69 175.038C141.77 176.779 141.16 177.205 139.483 177.193C128.307 177.126 117.137 177.157 105.961 177.157L105.966 177.163Z" fill="#5C130D"/>
<path d="M174.212 87.6158C174.212 85.114 174.31 82.6061 174.176 80.1104C174.09 78.4547 174.541 77.8826 176.303 77.9008C182.315 77.9617 188.041 79.2765 193.601 81.4313C198.79 83.4401 203.631 86.1245 208.198 89.2837C211.954 91.8768 212.509 95.2185 209.747 98.816C204.9 105.122 199.254 110.576 192.559 114.941C191.248 115.799 190.651 115.726 189.785 114.338C185.864 108.05 181.157 102.42 175.218 97.909C174.389 97.276 174.139 96.5699 174.157 95.5838C174.206 92.9298 174.176 90.2758 174.176 87.6219C174.188 87.6219 174.2 87.6219 174.212 87.6219V87.6158Z" fill="#5C130D"/>
<path d="M37.5978 87.8596C39.0367 93.9893 36.921 98.4025 31.842 102.195C27.6593 105.317 24.7631 109.877 21.995 114.338C21.2755 115.495 20.7938 115.958 19.4158 115.063C12.4467 110.546 6.57491 104.885 1.66052 98.2381C-0.424749 95.4137 -0.156481 92.1023 2.5629 90.1301C12.2576 83.1056 22.7996 78.2481 35.0612 77.8829C37.2501 77.816 37.7562 78.583 37.6281 80.5734C37.4757 82.99 37.5915 85.4248 37.5915 87.8535L37.5978 87.8596Z" fill="#5C130D"/>
<path d="M174.141 64.3087C174.141 61.9591 174.196 59.6095 174.116 57.2599C174.074 56.0668 174.452 55.4642 175.653 55.2268C185.457 53.2789 195.152 53.985 204.719 56.5781C208.084 57.4912 209.676 60.553 208.773 63.8826C207.377 69.014 205.383 73.9081 202.889 78.6134C202.255 79.8186 201.719 80.0134 200.463 79.3986C192.603 75.5577 184.402 73.0133 175.531 73.2994C174.348 73.3359 174.123 72.8002 174.129 71.8141C174.153 69.3123 174.135 66.8105 174.135 64.3087H174.141Z" fill="#5C130D"/>
<path d="M37.5982 64.5338C37.5982 66.8895 37.5616 69.2452 37.6104 71.5948C37.6348 72.7636 37.4213 73.3844 36.0006 73.3479C27.2815 73.1105 19.1844 75.5393 11.4713 79.3741C9.98359 80.1168 9.42862 79.7759 8.75792 78.4428C6.45925 73.8897 4.52659 69.2026 3.14861 64.2964C2.0572 60.4007 3.64843 57.4607 7.56288 56.4624C16.721 54.1249 25.9706 53.3945 35.3543 55.1111C37.1408 55.4398 37.7628 56.1398 37.6348 57.9355C37.4824 60.1268 37.5982 62.3364 37.5982 64.5399V64.5338Z" fill="#5C130D"/>
<path d="M22.9226 24.9975C28.2638 25.1862 33.4953 26.0689 38.6231 27.5663C39.2389 27.7429 40.5558 27.5663 39.8729 29.0394C37.2511 34.6882 37.5803 40.7205 37.5986 46.7102C37.6108 50.6546 37.5985 50.6851 33.6291 50.1616C28.477 49.4798 23.3188 49.3459 18.1666 50.0033C16.7276 50.1859 16.3131 49.6259 16.0144 48.4389C14.6181 42.9788 13.8071 37.4396 13.7157 31.7968C13.6364 26.915 16.1605 24.5654 21.1053 24.8758C21.7151 24.9124 22.3188 24.9549 22.9286 24.9975H22.9226Z" fill="#5C130D"/>
<path d="M174.22 42.8028C174.384 38.6271 174.025 33.7392 171.97 29.1252C171.574 28.2365 171.823 27.9687 172.671 27.713C179.11 25.7469 185.713 24.8095 192.42 24.913C195.969 24.9678 198.109 27.4391 198.109 31.0001C198.109 36.935 197.261 42.7724 195.81 48.5308C195.518 49.6873 195.066 50.083 193.774 49.9491C187.859 49.3343 181.951 49.3222 176.098 50.5457C174.775 50.8196 174.098 50.6247 174.195 49.0543C174.305 47.2403 174.22 45.4142 174.22 42.8089V42.8028Z" fill="#5C130D"/>
<path d="M159.734 138.241C159.643 137.401 160.222 137.048 160.57 136.592C167.746 127.12 171.941 116.456 173.471 104.708C173.538 104.196 173.349 103.502 173.874 103.253C174.569 102.924 174.922 103.691 175.325 104.056C181.501 109.729 186.239 116.468 189.855 123.985C191.355 127.102 190.33 130.261 187.276 131.734C178.843 135.807 169.953 138.211 160.527 138.375C160.252 138.375 159.978 138.284 159.728 138.235L159.734 138.241Z" fill="#5C130D"/>
<path d="M38.123 103.175C39.5863 116.019 44.1227 127.724 52.5796 138.291C49.22 138.456 46.3421 138.127 43.4581 137.682C37.1108 136.702 31.0502 134.785 25.2273 132.131C21.6421 130.5 20.3435 127.298 22.0081 123.877C25.6908 116.311 30.471 109.511 36.7451 103.826C37.0683 103.534 37.3425 103.132 38.123 103.181V103.175Z" fill="#5C130D"/>
<path d="M158.367 70.3765C158.135 78.7219 158.83 89.0577 158.056 99.3632C156.672 117.783 147.49 131.454 132.039 141.157C124.917 145.631 117.21 148.796 109.083 150.951C107.272 151.432 105.43 151.633 103.668 151.164C89.9128 147.548 77.4074 141.62 67.475 131.144C58.201 121.368 53.7623 109.51 53.5611 96.2283C53.2807 77.4801 53.4329 58.7198 53.4816 39.9655C53.4938 35.0228 55.8658 31.3401 60.4631 29.4348C74.2064 23.7312 87.9862 18.125 101.772 12.5371C104.638 11.3745 107.564 11.5084 110.442 12.6832C124.003 18.2224 137.587 23.713 151.123 29.307C155.983 31.3158 158.361 35.1323 158.373 40.3794C158.391 49.717 158.373 59.0606 158.373 70.3765H158.367ZM58.8108 81.4185C58.701 107.362 79.5901 128.441 105.564 128.599C131.673 128.758 152.837 107.909 153.007 81.8628C153.178 55.8466 132.173 34.6576 106.126 34.5724C79.9806 34.4871 58.9205 55.3353 58.8108 81.4185Z" fill="#5C130D"/>
<path d="M105.796 123.98C82.3216 123.95 63.3896 104.928 63.4445 81.4193C63.4993 57.984 82.5471 39.1506 106.131 39.1993C129.472 39.248 148.392 58.2579 148.373 81.6384C148.355 105.092 129.332 124.011 105.796 123.98ZM118.253 72.9034C118.253 66.1468 118.283 59.384 118.24 52.6274C118.216 49.0056 115.826 47.0699 112.259 47.6604C105.887 48.7134 99.5342 49.9003 93.1442 50.7951C85.5958 51.8543 85.2666 53.1326 85.3702 60.2301C85.4739 67.3337 86.1933 68.2103 93.3881 68.2164C95.1989 68.2164 95.4917 68.8433 95.4673 70.4442C95.382 76.7444 95.4307 83.0506 95.4307 89.3507C95.4307 93.003 93.6442 95.101 90.0712 95.6447C86.9738 96.1135 85.5531 97.6779 85.4738 100.837C85.4189 103.114 85.4128 105.396 85.4738 107.673C85.5653 110.881 87.2114 112.749 90.382 112.774C101.412 112.865 112.442 112.865 123.466 112.774C126.521 112.749 128.161 110.844 128.252 107.813C128.289 106.522 128.258 105.232 128.258 103.941C128.258 96.5882 127.783 96.0039 120.399 95.2734C118.649 95.103 118.179 94.4456 118.204 92.7351C118.301 86.1306 118.246 79.5201 118.24 72.9156L118.253 72.9034Z" fill="#5C130D"/>
<path d="M113.667 75.7219C113.667 82.8559 113.71 89.99 113.637 97.124C113.618 98.6458 114.021 99.2788 115.612 99.3762C117.807 99.5041 119.978 99.9545 122.173 100.143C123.313 100.241 123.667 100.63 123.709 101.799C123.935 108.172 123.971 108.166 117.551 108.166C109.112 108.166 100.674 108.136 92.2351 108.196C90.6925 108.209 89.9854 107.825 90.1439 106.182C90.3269 104.301 89.4183 101.969 90.5036 100.642C91.5157 99.4066 93.9179 99.924 95.7044 99.6623C98.6514 99.2281 100.125 97.5318 100.125 94.5735C100.125 85.0107 100.089 75.4479 100.156 65.879C100.168 64.2477 99.8264 63.5477 98.0338 63.6694C95.918 63.8094 93.7777 63.6025 91.6498 63.639C90.4608 63.6573 90.1132 63.1947 90.0522 62.0381C89.723 56.0911 89.6986 56.1215 95.5276 55.1963C100.85 54.3502 106.174 53.4614 111.478 52.5179C113.063 52.2379 113.74 52.4023 113.71 54.3197C113.588 61.4537 113.661 68.5878 113.661 75.7219H113.667Z" fill="#5C130D"/>
</svg>
