<svg width="40" height="40" viewBox="0 0 40 40" fill="none" xmlns="http://www.w3.org/2000/svg">
<path d="M35.561 36.9363V38.2666C35.561 38.5742 35.3117 38.8235 35.0041 38.8235H4.99636C4.68879 38.8235 4.43945 38.5742 4.43945 38.2666V36.9363C4.43945 36.6287 4.68879 36.3794 4.99636 36.3794H35.0041C35.3117 36.3794 35.561 36.6287 35.561 36.9363Z" fill="#4F5D99"/>
<path d="M21.1597 8.97057V36.3824H5.27734V1.17645L8.80101 2.90583L10.9421 3.95879L13.3068 5.11774L21.1597 8.97057Z" fill="#FDC72E"/>
<path d="M34.7192 21.053V36.3824H21.1602V13.2589L26.0427 16.0647L27.9249 17.147L30.0072 18.341L34.7192 21.053Z" fill="#ED524E"/>
<path d="M18.9175 11.694V12.8234C18.9175 12.9469 18.8174 13.0469 18.6939 13.0469H14.2586C14.1351 13.0469 14.0352 12.9469 14.0352 12.8234V11.694C14.0352 11.5705 14.1351 11.4645 14.2586 11.4645H18.6939C18.8174 11.4645 18.9175 11.5705 18.9175 11.694Z" fill="#E9E9FF"/>
<path d="M12.4058 11.694V12.8234C12.4058 12.9469 12.3 13.0469 12.1765 13.0469H7.74707C7.61768 13.0469 7.51758 12.9469 7.51758 12.8234V11.694C7.51758 11.5705 7.61768 11.4645 7.74707 11.4645H12.1765C12.3 11.4645 12.4058 11.5705 12.4058 11.694Z" fill="#E9E9FF"/>
<path d="M18.9175 15.2725V16.4018C18.9175 16.5253 18.8174 16.6253 18.6939 16.6253H14.2586C14.1351 16.6253 14.0352 16.5253 14.0352 16.4018V15.2725C14.0352 15.149 14.1351 15.043 14.2586 15.043H18.6939C18.8174 15.043 18.9175 15.149 18.9175 15.2725Z" fill="#E9E9FF"/>
<path d="M12.4058 15.2725V16.4018C12.4058 16.5253 12.3 16.6253 12.1765 16.6253H7.74707C7.61768 16.6253 7.51758 16.5253 7.51758 16.4018V15.2725C7.51758 15.149 7.61768 15.043 7.74707 15.043H12.1765C12.3 15.043 12.4058 15.149 12.4058 15.2725Z" fill="#E9E9FF"/>
<path d="M12.4058 8.1156V9.24497C12.4058 9.36847 12.3 9.46843 12.1765 9.46843H7.74707C7.61768 9.46843 7.51758 9.36847 7.51758 9.24497V8.1156C7.51758 7.99209 7.61768 7.88611 7.74707 7.88611H12.1765C12.3 7.88611 12.4058 7.99209 12.4058 8.1156Z" fill="#E9E9FF"/>
<path d="M18.9175 18.8509V19.9803C18.9175 20.1038 18.8174 20.2037 18.6939 20.2037H14.2586C14.1351 20.2037 14.0352 20.1038 14.0352 19.9803V18.8509C14.0352 18.7274 14.1351 18.6214 14.2586 18.6214H18.6939C18.8174 18.6214 18.9175 18.7274 18.9175 18.8509Z" fill="#E9E9FF"/>
<path d="M12.4058 18.8509V19.9803C12.4058 20.1038 12.3 20.2037 12.1765 20.2037H7.74707C7.61768 20.2037 7.51758 20.1038 7.51758 19.9803V18.8509C7.51758 18.7274 7.61768 18.6214 7.74707 18.6214H12.1765C12.3 18.6214 12.4058 18.7274 12.4058 18.8509Z" fill="#E9E9FF"/>
<path d="M18.9175 22.4293V23.5587C18.9175 23.6822 18.8174 23.7821 18.6939 23.7821H14.2586C14.1351 23.7821 14.0352 23.6822 14.0352 23.5587V22.4293C14.0352 22.3058 14.1351 22.1998 14.2586 22.1998H18.6939C18.8174 22.1998 18.9175 22.3058 18.9175 22.4293Z" fill="#E9E9FF"/>
<path d="M12.4058 22.4293V23.5587C12.4058 23.6822 12.3 23.7821 12.1765 23.7821H7.74707C7.61768 23.7821 7.51758 23.6822 7.51758 23.5587V22.4293C7.51758 22.3058 7.61768 22.1998 7.74707 22.1998H12.1765C12.3 22.1998 12.4058 22.3058 12.4058 22.4293Z" fill="#E9E9FF"/>
<path d="M18.9175 26.0078V27.1371C18.9175 27.2606 18.8174 27.3606 18.6939 27.3606H14.2586C14.1351 27.3606 14.0352 27.2606 14.0352 27.1371V26.0078C14.0352 25.8842 14.1351 25.7783 14.2586 25.7783H18.6939C18.8174 25.7783 18.9175 25.8842 18.9175 26.0078Z" fill="#E9E9FF"/>
<path d="M12.4058 26.0078V27.1371C12.4058 27.2606 12.3 27.3606 12.1765 27.3606H7.74707C7.61768 27.3606 7.51758 27.2606 7.51758 27.1371V26.0078C7.51758 25.8842 7.61768 25.7783 7.74707 25.7783H12.1765C12.3 25.7783 12.4058 25.8842 12.4058 26.0078Z" fill="#E9E9FF"/>
<path d="M18.9175 29.5862V30.7155C18.9175 30.8391 18.8174 30.939 18.6939 30.939H14.2586C14.1351 30.939 14.0352 30.8391 14.0352 30.7155V29.5862C14.0352 29.4627 14.1351 29.3567 14.2586 29.3567H18.6939C18.8174 29.3567 18.9175 29.4627 18.9175 29.5862Z" fill="#E9E9FF"/>
<path d="M12.4058 29.5862V30.7155C12.4058 30.8391 12.3 30.939 12.1765 30.939H7.74707C7.61768 30.939 7.51758 30.8391 7.51758 30.7155V29.5862C7.51758 29.4627 7.61768 29.3567 7.74707 29.3567H12.1765C12.3 29.3567 12.4058 29.4627 12.4058 29.5862Z" fill="#E9E9FF"/>
<path d="M18.9175 33.1646V34.294C18.9175 34.4175 18.8174 34.5174 18.6939 34.5174H14.2586C14.1351 34.5174 14.0352 34.4175 14.0352 34.294V33.1646C14.0352 33.0411 14.1351 32.9351 14.2586 32.9351H18.6939C18.8174 32.9351 18.9175 33.0411 18.9175 33.1646Z" fill="#E9E9FF"/>
<path d="M12.4058 33.1646V34.294C12.4058 34.4175 12.3 34.5174 12.1765 34.5174H7.74707C7.61768 34.5174 7.51758 34.4175 7.51758 34.294V33.1646C7.51758 33.0411 7.61768 32.9351 7.74707 32.9351H12.1765C12.3 32.9351 12.4058 33.0411 12.4058 33.1646Z" fill="#E9E9FF"/>
<path d="M32.914 23.1832V24.169C32.914 24.2768 32.8266 24.364 32.7188 24.364H28.8474C28.7396 24.364 28.6523 24.2768 28.6523 24.169V23.1832C28.6523 23.0754 28.7396 22.9829 28.8474 22.9829H32.7188C32.8266 22.9829 32.914 23.0754 32.914 23.1832Z" fill="#E9E9FF"/>
<path d="M27.2296 23.1832V24.169C27.2296 24.2768 27.1373 24.364 27.0295 24.364H23.1632C23.0503 24.364 22.9629 24.2768 22.9629 24.169V23.1832C22.9629 23.0754 23.0503 22.9829 23.1632 22.9829H27.0295C27.1373 22.9829 27.2296 23.0754 27.2296 23.1832Z" fill="#E9E9FF"/>
<path d="M32.914 26.3066V27.2924C32.914 27.4002 32.8266 27.4875 32.7188 27.4875H28.8474C28.7396 27.4875 28.6523 27.4002 28.6523 27.2924V26.3066C28.6523 26.1988 28.7396 26.1063 28.8474 26.1063H32.7188C32.8266 26.1063 32.914 26.1988 32.914 26.3066Z" fill="#E9E9FF"/>
<path d="M27.2296 26.3066V27.2924C27.2296 27.4002 27.1373 27.4875 27.0295 27.4875H23.1632C23.0503 27.4875 22.9629 27.4002 22.9629 27.2924V26.3066C22.9629 26.1988 23.0503 26.1063 23.1632 26.1063H27.0295C27.1373 26.1063 27.2296 26.1988 27.2296 26.3066Z" fill="#E9E9FF"/>
<path d="M27.2296 20.0598V21.0455C27.2296 21.1533 27.1373 21.2406 27.0295 21.2406H23.1632C23.0503 21.2406 22.9629 21.1533 22.9629 21.0455V20.0598C22.9629 19.9519 23.0503 19.8594 23.1632 19.8594H27.0295C27.1373 19.8594 27.2296 19.9519 27.2296 20.0598Z" fill="#E9E9FF"/>
<path d="M32.914 29.4301V30.4159C32.914 30.5237 32.8266 30.6109 32.7188 30.6109H28.8474C28.7396 30.6109 28.6523 30.5237 28.6523 30.4159V29.4301C28.6523 29.3223 28.7396 29.2298 28.8474 29.2298H32.7188C32.8266 29.2298 32.914 29.3223 32.914 29.4301Z" fill="#E9E9FF"/>
<path d="M27.2296 29.4301V30.4159C27.2296 30.5237 27.1373 30.6109 27.0295 30.6109H23.1632C23.0503 30.6109 22.9629 30.5237 22.9629 30.4159V29.4301C22.9629 29.3223 23.0503 29.2298 23.1632 29.2298H27.0295C27.1373 29.2298 27.2296 29.3223 27.2296 29.4301Z" fill="#E9E9FF"/>
<path d="M32.914 32.5536V33.5394C32.914 33.6472 32.8266 33.7344 32.7188 33.7344H28.8474C28.7396 33.7344 28.6523 33.6472 28.6523 33.5394V32.5536C28.6523 32.4458 28.7396 32.3533 28.8474 32.3533H32.7188C32.8266 32.3533 32.914 32.4458 32.914 32.5536Z" fill="#E9E9FF"/>
<path d="M27.2296 32.5536V33.5394C27.2296 33.6472 27.1373 33.7344 27.0295 33.7344H23.1632C23.0503 33.7344 22.9629 33.6472 22.9629 33.5394V32.5536C22.9629 32.4458 23.0503 32.3533 23.1632 32.3533H27.0295C27.1373 32.3533 27.2296 32.4458 27.2296 32.5536Z" fill="#E9E9FF"/>
<path d="M1.17578 37.9266C1.17578 38.2437 1.23694 38.5449 1.34112 38.8235H10.9625C10.9014 37.9582 10.1811 37.272 9.29784 37.272C9.04641 37.272 8.80631 37.3286 8.59342 37.4306C8.22874 36.7466 7.50851 36.2822 6.67957 36.2822C6.36925 36.2822 6.07485 36.3479 5.80755 36.4657C5.35003 35.8089 4.58678 35.3785 3.72383 35.3785C2.31731 35.3785 1.17578 36.5201 1.17578 37.9266Z" fill="#7BD681"/>
<g opacity="0.3">
<path d="M2.00134 37.823C2.1887 37.9544 2.59453 37.7168 2.90049 37.286C3.20646 36.8552 3.30022 36.3994 3.11286 36.2619C2.91925 36.1308 2.51967 36.3683 2.20746 36.7991C1.90133 37.2299 1.80773 37.6857 2.00134 37.823Z" fill="white"/>
</g>
<g opacity="0.2">
<path d="M16.0187 36.3824H8.57152L5.27734 21.094V1.17645L8.80101 2.90583L16.0187 36.3824Z" fill="white"/>
<path d="M20.0414 36.3824H17.9297L10.9414 3.9588L13.3061 5.11775L20.0414 36.3824Z" fill="white"/>
</g>
<g opacity="0.2">
<path d="M30.4249 36.3824H24.0014L21.1602 23.2V13.2589L26.0427 16.0647L30.4249 36.3824Z" fill="white"/>
<path d="M33.8906 36.3824H32.073L27.9258 17.147L30.0082 18.341L33.8906 36.3824Z" fill="white"/>
</g>
<path d="M38.8219 37.9266C38.8219 38.2437 38.7607 38.5449 38.6566 38.8235H29.0352C29.0963 37.9582 29.8165 37.272 30.6998 37.272C30.9513 37.272 31.1914 37.3286 31.4043 37.4306C31.7689 36.7466 32.4892 36.2822 33.3181 36.2822C33.6284 36.2822 33.9228 36.3479 34.1901 36.4657C34.6477 35.8089 35.4109 35.3785 36.2739 35.3785C37.6804 35.3785 38.8219 36.5201 38.8219 37.9266Z" fill="#7BD681"/>
<g opacity="0.3">
<path d="M37.997 37.823C37.8096 37.9544 37.4038 37.7168 37.0978 37.286C36.7918 36.8552 36.6981 36.3994 36.8854 36.2619C37.0791 36.1308 37.4786 36.3683 37.7908 36.7991C38.097 37.2299 38.1906 37.6857 37.997 37.823Z" fill="white"/>
</g>
</svg>
