<svg width="153" height="182" viewBox="0 0 153 182" fill="none" xmlns="http://www.w3.org/2000/svg">
<path d="M36.4624 83.8328H40.0206C39.7495 82.7458 39.0379 81.9306 38.2246 81.9306C37.4113 81.9306 36.7335 82.7458 36.4624 83.8328ZM40.0206 85.735H36.4624C36.7335 86.8219 37.4452 87.6372 38.2246 87.6372C39.004 87.6372 39.7495 86.8219 40.0206 85.735ZM36.4624 67.6301H40.0206C39.7495 66.5431 39.0379 65.7279 38.2246 65.7279C37.4113 65.7279 36.7335 66.5431 36.4624 67.6301ZM40.0206 69.5323H36.4624C36.7335 70.6193 37.4452 71.4345 38.2246 71.4345C39.004 71.4345 39.7495 70.6193 40.0206 69.5323ZM87.0897 95.1101C85.1069 94.8489 83.0912 95.1798 81.295 96.0612C79.7856 96.7787 78.1511 97.1941 76.483 97.2841C74.8107 97.196 73.1737 96.7684 71.6711 96.0272C69.8814 95.164 67.8787 94.8452 65.9103 95.1101H48.4585V87.6372H41.41C41.1129 88.1946 40.6746 88.664 40.1393 88.9979C39.6039 89.3318 38.9903 89.5185 38.3601 89.5394C37.3951 89.4453 36.4945 89.0116 35.8183 88.3151C35.1421 87.6186 34.734 86.7045 34.6664 85.735H33.6159C33.3643 85.735 33.1229 85.6348 32.945 85.4564C32.767 85.2781 32.6671 85.0361 32.6671 84.7839C32.6671 84.5316 32.767 84.2898 32.945 84.1114C33.1229 83.933 33.3643 83.8328 33.6159 83.8328H34.6664C34.734 82.8633 35.1421 81.9491 35.8183 81.2526C36.4945 80.5561 37.3951 80.1224 38.3601 80.0284C38.9903 80.0492 39.6039 80.236 40.1393 80.5699C40.6746 80.9038 41.1129 81.3731 41.41 81.9306H48.4585V71.3326H41.41C41.1129 71.8901 40.6746 72.3594 40.1393 72.6933C39.6039 73.0272 38.9903 73.2139 38.3601 73.2348C37.3951 73.1408 36.4945 72.707 35.8183 72.0106C35.1421 71.3141 34.734 70.3999 34.6664 69.4304H33.6159C33.367 69.4219 33.1305 69.319 32.9543 69.1424C32.7782 68.9659 32.6756 68.7289 32.6671 68.4793C32.6671 68.2271 32.767 67.9851 32.945 67.8068C33.1229 67.6284 33.3643 67.5282 33.6159 67.5282H34.6664C34.734 66.5587 35.1421 65.6446 35.8183 64.9481C36.4945 64.2516 37.3951 63.8178 38.3601 63.7238C38.9903 63.7447 39.6039 63.9314 40.1393 64.2654C40.6746 64.5993 41.1129 65.0685 41.41 65.626H48.4585V60.2251L52.22 58.0851V91.1358H65.7748C68.2587 90.8494 70.7729 91.2734 73.0266 92.3587C74.0404 93.0019 75.2155 93.3432 76.4153 93.3432C77.6151 93.3432 78.7902 93.0019 79.804 92.3587C82.0578 91.2734 84.5719 90.8494 87.0558 91.1358H100.611V58.5267L104.406 60.2251V65.626H113.555C114.31 65.626 115.034 65.9266 115.568 66.4617C116.102 66.9968 116.402 67.7226 116.402 68.4793C116.402 69.2361 116.102 69.9618 115.568 70.4969C115.034 71.032 114.31 71.3326 113.555 71.3326H104.406V81.8287H113.555C114.31 81.8287 115.034 82.1293 115.568 82.6644C116.102 83.1995 116.402 83.9252 116.402 84.682C116.402 85.4387 116.102 86.1644 115.568 86.6995C115.034 87.2346 114.31 87.5353 113.555 87.5353H104.406V95.1101H87.0897ZM96.9508 87.909H87.0897C84.1029 87.6369 81.0976 88.1643 78.3807 89.4375V60.8365C78.3807 58.0172 81.295 56.3187 85.1581 56.3187C90.8173 56.3187 93.8671 58.1531 96.9847 57.5756L96.9508 87.909ZM74.6193 89.3356C71.9024 88.0624 68.8971 87.535 65.9103 87.8071H56.0153V57.4057C59.1668 57.9832 62.2166 56.1489 67.8758 56.1489C71.705 56.1489 74.6532 57.8473 74.6532 60.6666L74.6193 89.3356ZM100.746 101.055C119.655 104.078 127.856 111.245 133.176 122.42V31.0127C127.89 42.1542 119.621 49.3554 100.746 52.3786C103.762 33.4245 110.912 25.2042 122.061 19.8712H30.9388C42.0538 25.1702 49.2379 33.4584 52.2538 52.3786C33.311 49.3554 25.1442 42.1882 19.8239 31.0127V122.284C25.1103 111.143 33.3787 103.942 52.2538 100.919C49.2379 119.907 42.0877 128.093 30.9388 133.426H122.061C110.946 128.127 103.762 119.839 100.746 100.919M149.239 94.125C149.239 129.044 118.74 164.676 76.5508 177.856C34.1581 164.676 3.76146 129.044 3.76146 94.125V3.80439H149.239V94.125ZM153 94.125V0H0V94.2609C0 131.286 31.7183 168.039 75.4325 181.626L76.5508 182L77.6691 181.626C121.316 168.039 153 131.252 153 94.2609" fill="#50247A"/>
</svg>
