<svg width="119" height="129" viewBox="0 0 119 129" fill="none" xmlns="http://www.w3.org/2000/svg">
<path d="M118.77 69.1935C118.77 101.99 92.1832 128.577 59.3831 128.577C26.5831 128.577 0 101.99 0 69.1935C0 36.3972 26.5868 9.80664 59.3831 9.80664C92.1795 9.80664 118.77 36.3934 118.77 69.1935Z" fill="#353E2B"/>
<path d="M106.127 72.5659C107.987 46.7527 88.5685 24.3198 62.7553 22.4604C36.9422 20.601 14.5092 40.0194 12.6499 65.8325C10.7905 91.6456 30.2089 114.079 56.022 115.938C81.8351 117.797 104.268 98.379 106.127 72.5659Z" fill="#FFF6F1"/>
<path d="M93.184 69.1935C93.184 87.8593 78.0526 102.994 59.3868 102.994C40.721 102.994 25.5859 87.863 25.5859 69.1935C25.5859 50.5239 40.7173 35.3926 59.3868 35.3926C78.0564 35.3926 93.184 50.5239 93.184 69.1935Z" fill="#353E2B"/>
<path d="M82.3424 69.1937C82.3424 81.8732 72.0626 92.1492 59.3831 92.1492C46.7036 92.1492 36.4238 81.8732 36.4238 69.1937C36.4238 56.5142 46.7036 46.2344 59.3831 46.2344C72.0626 46.2344 82.3424 56.5142 82.3424 69.1937Z" fill="#FFF6F1"/>
<path d="M70.2244 69.1941C70.2244 75.1804 65.3728 80.032 59.3865 80.032C53.4002 80.032 48.5449 75.1804 48.5449 69.1941C48.5449 63.2078 53.4002 58.3525 59.3865 58.3525C65.3728 58.3525 70.2244 63.2041 70.2244 69.1941Z" fill="#353E2B"/>
<path d="M102.886 6.61099C103.396 5.85572 103.206 4.84002 102.462 4.33775C101.718 3.8392 100.706 4.04383 100.196 4.7991L57.496 68.2413C56.9863 68.9966 57.1797 70.0123 57.9201 70.5145C58.6642 71.0131 59.6762 70.8085 60.1859 70.0532L102.89 6.61099H102.886Z" fill="#A5AC8A"/>
<path d="M99.5004 5.83377L88.4468 22.2561L86.5977 16.4223L97.6513 0L99.5004 5.83377Z" fill="#BCBCBC"/>
<path opacity="0.2" d="M102.462 4.33789L57.9199 70.5147C58.664 71.0132 59.676 70.8049 60.182 70.0496L102.89 6.61113C103.399 5.85586 103.206 4.84016 102.466 4.33789H102.462Z" fill="black"/>
<path d="M101.372 7.09402L90.3184 23.5164L96.42 23.0327L107.474 6.61035L101.372 7.09402Z" fill="#BCBCBC"/>
</svg>
