<svg width="71" height="71" viewBox="0 0 71 71" fill="none" xmlns="http://www.w3.org/2000/svg">
<path d="M14.9414 49.2595C14.9603 37.4759 24.5592 27.946 36.393 27.9649C48.2142 27.9837 57.7441 37.6014 57.7064 49.4729C57.675 61.2502 48.0384 70.711 36.0979 70.6922C24.4524 70.6796 14.9226 61.0242 14.9414 49.2532V49.2595ZM37.14 63.165C37.366 63.165 37.592 63.165 37.818 63.165C38.7555 63.165 39.2243 62.7067 39.2243 61.7901C39.2243 61.0158 39.5842 60.5262 40.3041 60.3211C40.5929 60.2395 40.8754 60.139 41.1579 60.0323C43.6376 59.0655 45.0627 57.0943 45.1318 54.5454C45.2197 51.6011 44.1587 49.881 41.4843 48.6819C40.2036 48.1043 38.8476 47.7402 37.4916 47.3824C36.3302 47.0748 35.1437 46.8362 34.089 46.2272C33.4361 45.8506 32.9401 45.3546 32.9087 44.5259C32.8522 43.1762 33.5491 42.2533 34.9491 41.9897C37.5167 41.4937 39.8019 42.2722 41.9238 43.6533C42.3381 43.9233 42.5265 43.9546 42.765 43.4838C43.1919 42.63 43.6502 41.7951 44.1336 40.9789C44.3596 40.6023 44.2654 40.4202 43.9202 40.213C42.6457 39.4534 41.3148 38.8068 39.8709 38.4489C39.3499 38.3234 39.1929 38.0974 39.218 37.5826C39.2431 36.936 39.5005 36.1136 39.105 35.6867C38.6718 35.2158 37.8243 35.5548 37.1589 35.5297C36.5374 35.5046 35.7463 35.3226 35.332 35.6239C34.8298 35.988 35.1625 36.8355 35.1625 37.4696C35.1625 37.9969 34.9553 38.1476 34.4782 38.2229C33.48 38.3799 32.5383 38.7126 31.6657 39.2274C29.255 40.6525 28.2819 42.8246 28.4326 45.5492C28.5707 48.0729 30.1716 49.4164 32.3437 50.2828C33.9069 50.9043 35.5455 51.2872 37.1463 51.7769C38.0127 52.0406 38.8602 52.3356 39.6072 52.8692C40.3418 53.3903 40.5929 54.0934 40.4736 54.9661C40.3606 55.7822 39.8458 56.253 39.1238 56.5292C38.5337 56.7553 37.9122 56.8431 37.2844 56.8557C34.5787 56.9122 32.1742 56.0019 29.9581 54.5266C29.5187 54.2315 29.3241 54.219 29.0918 54.7338C28.69 55.6252 28.2443 56.4979 27.7609 57.3391C27.5035 57.7848 27.6165 57.9732 28.012 58.2243C29.8137 59.3606 31.7662 60.1076 33.863 60.4843C35.1499 60.7166 35.1437 60.7103 35.1499 62.0287C35.1499 63.347 35.0244 63.1524 36.2486 63.1713C36.5499 63.1713 36.8513 63.1713 37.1526 63.1713L37.14 63.165Z" fill="#533115"/>
<path d="M0.0125558 17.0407C1.72014 16.2309 3.25194 15.5027 4.78375 14.7807C14.6589 10.1162 24.534 5.46432 34.3903 0.781015C35.1562 0.416898 35.7526 0.398064 36.5373 0.774737C47.8249 6.14233 59.1251 11.4723 70.4253 16.8085C70.532 16.8587 70.6388 16.9215 70.8585 17.0345C70.576 17.1851 70.3751 17.3044 70.1679 17.3986C64.6371 19.8783 59.1126 22.3581 53.5755 24.8253C53.1235 25.0262 52.9351 25.271 52.9477 25.7796C52.9791 27.349 52.9602 28.9185 52.9602 30.4503C40.8251 22.1384 29.2361 22.7599 18.0238 32.2834C17.9422 32.1453 17.9861 31.8754 17.9861 31.6117C17.9861 29.6593 17.9861 27.7006 17.9924 25.7482C17.9924 25.3338 17.9171 25.0702 17.4839 24.8818C14.3701 23.507 11.2562 22.1195 8.16125 20.7007C7.56485 20.4308 7.43302 20.5752 7.48324 21.1716C7.52091 21.5922 7.50835 22.0254 7.48324 22.446C7.43302 23.4253 7.53346 24.2352 8.34959 25.0388C9.71817 26.3885 9.71817 29.1822 8.55676 30.8584C8.29309 31.2413 8.26797 31.5301 8.4312 31.9444C9.37288 34.3489 10.2706 36.7596 11.2123 39.164C11.4258 39.7102 11.3065 39.8357 10.7415 39.8295C7.88502 39.8043 5.02859 39.8106 2.17215 39.8295C1.60086 39.8295 1.48786 39.7102 1.70131 39.164C2.63671 36.791 3.52189 34.3928 4.4573 32.0135C4.63308 31.574 4.62052 31.2601 4.3443 30.8521C3.00083 28.8557 3.35239 25.9867 5.12903 24.4235C5.38015 24.2038 5.41154 23.9778 5.41154 23.7079C5.41154 22.4774 5.3927 21.2532 5.41782 20.0227C5.42409 19.6021 5.26715 19.4012 4.89675 19.238C3.31472 18.5474 1.74525 17.8318 0 17.047L0.0125558 17.0407Z" fill="#533115"/>
</svg>
