<svg width="59" height="70" viewBox="0 0 59 70" fill="none" xmlns="http://www.w3.org/2000/svg">
<path d="M27.4891 13.0931C28.3168 13.698 29.29 13.8435 30.2359 13.889C31.3409 13.8662 32.3641 13.7162 33.2327 13.0568C34.0967 12.4019 34.074 11.5197 33.2009 10.8876C31.8366 9.89621 28.8534 9.89166 27.4982 10.8739C26.5842 11.5379 26.566 12.4156 27.4891 13.0886V13.0931Z" fill="#533115"/>
<path d="M44.4162 55.7906C46.5535 55.7679 48.6954 55.7906 50.8328 55.777C51.9151 55.7679 52.4881 55.1767 52.4926 54.0717C52.5017 51.2203 52.5017 48.3645 52.4926 45.5132C52.4926 44.4354 51.8878 43.8442 50.8055 43.8351C48.6954 43.8215 46.5808 43.8533 44.4708 43.8169C43.825 43.8033 43.6886 44.0534 43.6977 44.6355C43.725 46.3636 43.7068 48.0916 43.7068 49.8197H43.7113C43.7113 51.5751 43.725 53.3304 43.7022 55.0858C43.6931 55.6269 43.8796 55.7952 44.4162 55.7906Z" fill="#533115"/>
<path d="M49.9551 57.932C49.9733 61.4154 49.9687 64.9034 49.9551 68.3868C49.9551 68.9325 50.0961 69.169 50.6963 69.1599C52.8109 69.128 54.921 69.1599 57.0356 69.1462C58.1725 69.1371 58.7546 68.5505 58.7637 67.4182C58.7773 66.0175 58.7637 64.6169 58.7637 63.2208C58.7637 61.7928 58.7728 60.3649 58.7637 58.9415C58.7546 57.8001 58.1816 57.2044 57.0538 57.1953C54.9392 57.1816 52.8291 57.2044 50.7145 57.1771C50.1415 57.168 49.9551 57.359 49.9551 57.932Z" fill="#533115"/>
<path d="M15.1083 63.2574C15.1083 61.4748 15.0947 59.6921 15.1174 57.9095C15.1219 57.4002 14.9855 57.1728 14.4216 57.1819C12.2843 57.2092 10.1424 57.1819 8.00048 57.2001C6.96364 57.2092 6.29515 57.8458 6.28605 58.8963C6.26332 61.7476 6.26332 64.6035 6.2906 67.4548C6.2997 68.5144 6.95455 69.1374 8.00503 69.1465C10.1469 69.1602 12.2843 69.1329 14.4262 69.1647C14.9855 69.1738 15.1219 68.9646 15.1174 68.4507C15.0947 66.7227 15.1083 64.9946 15.1083 63.2665V63.2574Z" fill="#533115"/>
<path d="M48.3559 18.1951C48.3559 17.1128 48.3559 17.1219 47.3372 17.5721C42.0075 19.9505 36.6687 22.3061 31.348 24.7118C30.5977 25.0528 29.9883 25.0028 29.2607 24.6708C23.89 22.2515 18.5012 19.8686 13.126 17.463C12.5939 17.2265 12.3393 17.2174 12.3438 17.9177C12.3665 21.2147 12.362 24.5071 12.3438 27.8041C12.3438 28.3543 12.5575 28.5044 13.0669 28.5272C13.94 28.5681 14.8268 28.6181 15.6863 28.7727C21.2979 29.7959 26.0365 32.4199 29.8701 36.6491C30.2612 37.0811 30.4385 37.0402 30.8114 36.6354C35.3453 31.7286 40.8933 28.9046 47.6146 28.5272C48.174 28.4953 48.3786 28.318 48.3695 27.745C48.3377 26.126 48.3604 24.5026 48.3559 22.8836C48.3559 21.3193 48.3559 19.7549 48.3559 18.186V18.1951Z" fill="#533115"/>
<path d="M11.146 55.7993C16.2029 55.772 21.2552 55.7856 26.3121 55.7856C31.3963 55.7856 36.4759 55.7856 41.56 55.7856C41.9966 55.7856 42.3331 55.8175 42.3331 55.1672C42.3286 51.6792 42.3559 48.1912 42.4059 44.7032C42.415 44.0302 42.2103 43.8119 41.5146 43.8165C31.3781 43.8392 21.2416 43.8392 11.1005 43.8165C10.4366 43.8165 10.2047 43.9665 10.2092 44.676C10.2456 48.0821 10.2502 51.4882 10.2092 54.8943C10.2001 55.6492 10.4457 55.7993 11.146 55.7947V55.7993ZM37.1171 52.1112C34.8933 52.1112 32.6741 52.1067 30.4504 52.1112C29.9638 52.1112 29.5409 52.0294 29.5681 51.42C29.5909 50.8606 30.0002 50.8061 30.4504 50.8061C31.5463 50.8152 32.6468 50.8061 33.7428 50.8061C34.866 50.8061 35.9938 50.8106 37.1171 50.8061C37.5809 50.8061 37.9265 50.9016 37.9402 51.47C37.9538 52.0794 37.5627 52.1112 37.1216 52.1112H37.1171ZM30.4231 47.5045C32.6741 47.5045 34.9206 47.5045 37.1717 47.5045C37.6037 47.5045 37.9266 47.5773 37.9311 48.1185C37.9356 48.6869 37.6173 48.8051 37.1398 48.8006C35.9893 48.7915 34.8342 48.8006 33.6837 48.8006C32.615 48.8006 31.5418 48.796 30.4731 48.8006C29.9865 48.8006 29.5682 48.7278 29.5636 48.123C29.5636 47.5455 29.9774 47.5 30.4185 47.5L30.4231 47.5045ZM15.4889 47.4954C17.7127 47.5045 19.941 47.5045 22.1647 47.4954C22.6286 47.4954 23.0288 47.5909 23.0424 48.123C23.0561 48.7005 22.6468 48.8188 22.142 48.8097C21.0415 48.7915 19.9455 48.8051 18.845 48.8051C17.7172 48.8051 16.594 48.796 15.4662 48.8051C15.0069 48.8097 14.6022 48.7187 14.5885 48.1821C14.5749 47.5955 14.9978 47.4954 15.4889 47.4954ZM15.398 50.8061C16.5531 50.8152 17.7081 50.8061 18.8587 50.8061C19.9865 50.8061 21.1097 50.8242 22.2375 50.8061C22.6923 50.797 23.0151 50.9561 23.0379 51.4245C23.0606 51.9475 22.7195 52.1158 22.2284 52.1112C19.9501 52.1021 17.6672 52.1067 15.3889 52.1112C14.9569 52.1112 14.5976 51.993 14.584 51.5018C14.5703 50.9789 14.9114 50.8061 15.398 50.8106V50.8061Z" fill="#533115"/>
<path d="M47.6703 57.1719C42.6452 57.2038 37.6156 57.1856 32.5906 57.1856C27.511 57.1856 22.4268 57.1992 17.3472 57.1719C16.6696 57.1719 16.4604 57.3448 16.465 58.0405C16.5013 61.4466 16.4968 64.8528 16.465 68.2589C16.4604 68.9046 16.5832 69.1638 17.3108 69.1638C27.4473 69.1411 37.5838 69.1411 47.7203 69.1638C48.4115 69.1638 48.598 68.9638 48.5934 68.2862C48.5661 64.9073 48.557 61.5285 48.6116 58.1497C48.6252 57.3766 48.4388 57.1674 47.6703 57.1719ZM28.4978 65.4712C26.2195 65.4621 23.9457 65.4621 21.6674 65.4667C21.199 65.4667 20.8215 65.3348 20.8397 64.7982C20.8579 64.2707 21.249 64.157 21.7083 64.157C22.8588 64.1661 24.0139 64.157 25.1644 64.157C26.2604 64.157 27.3609 64.1661 28.4569 64.1524C28.948 64.1433 29.2845 64.3252 29.2754 64.8346C29.2663 65.2939 28.9525 65.4758 28.4978 65.4712ZM28.5614 62.1606C27.3836 62.1515 26.2013 62.1606 25.0235 62.1606C23.9002 62.1606 22.7724 62.1606 21.6492 62.1652C21.2172 62.1652 20.8624 62.0424 20.8397 61.5558C20.8124 61.0146 21.1808 60.8555 21.6446 60.8555C23.9502 60.8555 26.2513 60.86 28.5569 60.8555C29.0344 60.8555 29.2982 61.1056 29.28 61.5467C29.2663 61.956 28.9889 62.1606 28.5569 62.1561L28.5614 62.1606ZM43.4137 65.4621C41.1354 65.4621 38.8617 65.4621 36.5833 65.4621C36.1468 65.4621 35.8148 65.3439 35.8193 64.8255C35.8239 64.3389 36.1195 64.1615 36.5697 64.1615C37.7202 64.1615 38.8753 64.1615 40.0258 64.1615C41.1491 64.1615 42.2769 64.1615 43.4001 64.1615C43.8685 64.1615 44.2141 64.2843 44.1959 64.8482C44.1823 65.3803 43.8321 65.4576 43.4092 65.4576L43.4137 65.4621ZM43.3819 62.1606C42.2541 62.1606 41.1309 62.1606 40.0076 62.1606C38.9117 62.1606 37.8112 62.1561 36.7152 62.1606C36.265 62.1606 35.8603 62.0924 35.833 61.5421C35.8012 60.9282 36.2332 60.8373 36.7107 60.8327C38.9344 60.8327 41.1582 60.8327 43.3819 60.8327C43.8094 60.8327 44.2232 60.8691 44.2096 61.4785C44.1959 62.0424 43.8458 62.1561 43.3865 62.1561L43.3819 62.1606Z" fill="#533115"/>
<path d="M1.72693 55.7764C3.86883 55.7901 6.00618 55.7628 8.14807 55.7901C8.70742 55.7992 8.8393 55.5854 8.83475 55.0716C8.81202 53.3435 8.82566 51.6154 8.82566 49.8874H8.8393C8.8393 48.132 8.81656 46.3766 8.85294 44.6213C8.86659 44.021 8.70288 43.8073 8.07077 43.8209C5.9607 43.8573 3.84609 43.83 1.73148 43.8437C0.690091 43.8482 0.0261484 44.4667 0.0170533 45.5263C-0.00568444 48.3776 -0.00568444 51.2334 0.0170533 54.0847C0.0261484 55.1261 0.699186 55.7719 1.73148 55.781L1.72693 55.7764Z" fill="#533115"/>
<path d="M3.35609 32.0467C3.60166 32.0467 3.85178 32.0467 4.09734 32.0467C4.72945 32.0467 5.36156 32.0285 5.99367 32.0512C6.53938 32.074 6.76221 31.8466 6.83952 31.3009C7.17603 28.8634 6.90318 26.4805 6.22105 24.1385C5.6617 22.2194 5.64806 22.2422 3.64714 22.2285C3.0696 22.2285 2.73763 22.3968 2.52389 22.9425C1.61893 25.2799 1.15053 27.7129 1.387 30.2004C1.578 32.2058 1.1187 32.0421 3.36064 32.0421L3.35609 32.0467Z" fill="#533115"/>
<path d="M29.8406 23.4065C30.1953 23.5657 30.5 23.552 30.8547 23.3974C39.1631 19.6821 47.4715 15.9804 55.7844 12.2741C55.9436 12.2013 56.18 12.2059 56.1618 11.8876C55.989 11.7921 55.8026 11.6784 55.607 11.592C47.4715 7.96302 39.3359 4.34772 31.2094 0.700586C30.5682 0.414091 30.0589 0.445923 29.4404 0.723324C21.987 4.05668 14.5245 7.37184 7.06193 10.6961C6.19335 11.0826 5.32932 11.4874 4.36523 11.9285C4.56533 12.1013 4.6199 12.1695 4.68811 12.2013C13.0692 15.9394 21.4549 19.6684 29.8361 23.4065H29.8406ZM26.5755 9.85026C28.5718 8.31773 32.3918 8.38595 34.2972 9.99578C35.5387 11.0463 35.5796 12.7925 34.3518 13.8748C33.2013 14.8935 31.8097 15.2255 30.1953 15.1709C29.0039 15.2391 27.7988 14.9344 26.7255 14.1932C25.0429 13.029 24.9884 11.0735 26.5755 9.85026Z" fill="#533115"/>
<path d="M4.17372 33.4655C3.04138 33.4564 2.09094 34.4296 2.11368 35.571C2.13642 36.6624 3.11869 37.6265 4.17827 37.6038C5.28332 37.581 6.18374 36.6442 6.17919 35.5164C6.17919 34.3704 5.29242 33.4655 4.16917 33.4609L4.17372 33.4655Z" fill="#533115"/>
<path d="M4.21055 20.8465C4.73352 20.8693 5.17918 20.8965 5.15644 20.1144C5.10642 18.4954 5.1428 16.872 5.1428 15.253C5.1428 13.8387 5.1337 13.8615 3.81946 13.3067C3.32833 13.0975 3.16007 13.2248 3.16462 13.716C3.16462 14.8165 3.16462 15.9124 3.16462 17.0129C3.16462 18.0589 3.19645 19.1003 3.15552 20.1417C3.12369 21.0193 3.71942 20.8238 4.2151 20.842L4.21055 20.8465Z" fill="#533115"/>
</svg>
