<svg width="64" height="68" viewBox="0 0 64 68" fill="none" xmlns="http://www.w3.org/2000/svg">
<path d="M44.1156 67.0961H43.5302C32.5505 67.0961 21.5722 67.0921 10.5925 67.1C8.79294 67.1 7.07085 66.7719 5.47738 65.9384C1.96493 64.1008 0.0341372 61.2026 0.0249492 57.215C-0.00786519 41.6085 -0.00786519 26.0007 0.022324 10.3942C0.0328246 5.04807 4.22256 0.792704 9.59755 0.524939C9.90207 0.509188 10.2079 0.501313 10.5137 0.501313C21.7113 0.5 32.9089 0.5 44.1064 0.5C47.0505 0.5 49.635 1.44243 51.7509 3.51761C53.6134 5.34471 54.5808 7.58921 54.586 10.2012C54.6031 18.1462 54.59 26.0913 54.6005 34.0376C54.6005 34.4878 54.5558 34.5902 54.0334 34.5049C48.182 33.5401 43.0708 35.0745 38.9086 39.322C30.7825 47.6175 33.1333 61.3391 43.5381 66.6459C43.7442 66.7509 43.9476 66.8598 44.1524 66.9661C44.1406 67.0094 44.1274 67.0527 44.1156 67.0974V67.0961ZM27.9486 18.855C22.8624 18.855 17.7762 18.8458 12.6913 18.8603C10.6305 18.8655 9.31272 20.5693 9.7695 22.5762C10.1055 24.0489 11.2265 24.8443 12.9971 24.8456C22.9504 24.8482 32.9049 24.8469 42.8582 24.8443C43.1627 24.8443 43.4711 24.8272 43.7704 24.7774C44.9386 24.5857 45.7078 23.9006 46.0543 22.7862C46.6961 20.7294 45.314 18.8642 43.1417 18.859C38.0778 18.8472 33.0139 18.855 27.9486 18.855ZM24.5871 31.6697C23.692 31.6697 22.7981 31.6697 21.9029 31.6697C18.8249 31.6697 15.7483 31.6592 12.6703 31.6749C11.1884 31.6828 10.1055 32.5216 9.78 33.8538C9.27597 35.9172 10.6082 37.6248 12.7569 37.6275C20.6363 37.6353 28.5144 37.6301 36.3937 37.6301C36.525 37.6301 36.6563 37.6301 36.7862 37.6196C37.9885 37.5185 38.8312 36.9095 39.2696 35.7899C40.0703 33.7409 38.7065 31.692 36.5027 31.6789C32.5308 31.6539 28.559 31.6723 24.5858 31.671L24.5871 31.6697ZM21.3897 50.0326C24.2918 50.0326 27.1939 50.0392 30.0947 50.03C31.6659 50.0247 32.8157 49.1361 33.1058 47.7369C33.5323 45.6854 32.2066 44.0394 30.0816 44.0315C25.9575 44.0158 21.8347 44.0263 17.7106 44.0263C16.0305 44.0263 14.3504 44.0118 12.6703 44.0328C11.2068 44.0512 10.1055 44.9096 9.78131 46.2288C9.27728 48.2816 10.6174 50.0155 12.749 50.0274C15.6288 50.0431 18.5086 50.0313 21.3897 50.0313V50.0326Z" fill="#533115"/>
<path d="M63.8312 51.8269C63.7301 59.2166 57.7946 65.0786 50.5256 64.9683C43.4233 64.862 37.7083 58.7481 37.8159 51.3727C37.921 44.2139 43.9234 38.4032 51.1097 38.5042C58.1057 38.6027 63.9296 44.7009 63.8312 51.8269ZM43.3419 58.9988C44.6046 58.8491 45.6848 58.6995 46.769 58.6024C47.2822 58.5564 47.6721 58.3477 48.0225 57.9907C50.6017 55.359 53.1809 52.726 55.7785 50.1113C56.167 49.7202 56.1329 49.4472 55.7667 49.0836C54.7757 48.1018 53.807 47.095 52.8265 46.1027C52.2989 45.5685 51.8487 45.5672 51.3263 46.0975C48.7864 48.6767 46.2519 51.2624 43.7055 53.8351C43.4115 54.1317 43.2618 54.4533 43.2238 54.8668C43.1214 55.9956 43.0164 57.1244 42.8602 58.2467C42.7814 58.8163 42.8733 59.1143 43.3406 59.0001L43.3419 58.9988ZM57.0373 48.317C57.7211 48.4443 58.0467 47.897 58.3039 47.4783C58.5481 47.0806 58.4181 46.591 58.0007 46.2025C57.2224 45.4766 56.5018 44.6891 55.751 43.933C55.2968 43.4749 54.7508 43.4828 54.2861 43.9396C53.6508 44.5644 53.5642 45.1091 54.0485 45.6105C54.8335 46.4243 55.6328 47.2237 56.4243 48.0309C56.5949 48.2055 56.7603 48.3787 57.0386 48.3183L57.0373 48.317Z" fill="#533115"/>
</svg>
