<svg width="55" height="68" viewBox="0 0 55 68" fill="none" xmlns="http://www.w3.org/2000/svg">
<path d="M54.9548 33.9931C54.9548 44.2623 54.9004 54.5269 54.9994 64.7916C55.0192 66.7895 54.5785 67.5135 52.212 67.4998C35.7008 67.399 19.1896 67.4173 2.67845 67.4815C0.727804 67.4906 -0.00492598 67.124 2.49024e-05 65.1353C0.079239 44.3723 0.0693372 23.6093 0.0148775 2.85089C0.0148775 1.13247 0.415899 0.490935 2.44081 0.500099C19.1995 0.578001 35.9583 0.573418 52.7121 0.500099C54.6528 0.490935 54.9994 1.11414 54.9895 2.73174C54.9202 13.1522 54.9548 23.568 54.9548 33.9885V33.9931ZM27.6309 12.3869C32.3045 12.3869 36.9831 12.2999 41.6518 12.4236C43.9292 12.4832 43.6123 11.2047 43.6519 9.90783C43.6965 8.57434 43.6718 7.60745 41.6567 7.62578C32.2253 7.70826 22.7939 7.70826 13.3625 7.62578C11.3573 7.60745 11.3078 8.55601 11.3623 9.89408C11.4118 11.1817 11.0751 12.4786 13.3575 12.419C18.1103 12.2953 22.8681 12.3823 27.6259 12.3823L27.6309 12.3869ZM27.7448 58.1333C22.8979 58.1333 18.0509 58.1241 13.204 58.1425C12.4366 58.1425 11.4613 57.8996 11.4069 59.114C11.3474 60.4154 12.3178 60.3237 13.2387 60.3237C22.7691 60.3237 32.2996 60.3283 41.83 60.3237C42.6271 60.3237 43.5579 60.4841 43.6272 59.311C43.7064 57.9729 42.6865 58.1379 41.7954 58.1379C37.1118 58.1379 32.4283 58.1379 27.7448 58.1379V58.1333ZM27.4477 55.8742C32.0471 55.8742 36.6514 55.9017 41.2508 55.8513C42.1766 55.8421 43.6321 56.3828 43.6024 54.7102C43.5777 53.2026 42.2459 53.6792 41.3844 53.6746C32.1857 53.6425 22.982 53.6425 13.7833 53.6746C12.8674 53.6746 11.3722 53.1339 11.4415 54.8156C11.5108 56.4653 12.9911 55.8329 13.8972 55.8467C18.4124 55.9063 22.9325 55.8742 27.4527 55.8742H27.4477ZM23.289 34.4147C22.7988 34.4147 22.3037 34.4696 21.8235 34.4055C19.9521 34.1443 19.4025 34.8225 19.6451 36.5455C20.1006 39.8082 20.0214 39.8173 23.5712 39.4141C24.3782 39.3224 25.1852 39.2262 25.9971 39.1391C26.4823 39.0842 26.8734 39.0337 27.0913 38.4701C28.0567 35.9589 26.913 34.4192 24.0217 34.4147C23.7791 34.4147 23.5316 34.4147 23.289 34.4147ZM23.5167 33.654C27.423 33.5669 27.0071 34.323 27.1507 30.6937C27.2101 29.2732 26.6655 28.8149 25.2 28.8424C24.1455 28.8608 23.0662 28.6866 22.0314 28.4621C20.6551 28.1642 20.1996 28.6179 19.9422 29.8781C19.1698 33.6677 19.1055 33.654 23.2692 33.6586C23.3533 33.6586 23.4325 33.6586 23.5167 33.6586V33.654ZM31.7995 34.4055C31.7995 34.4055 31.7995 34.4147 31.7995 34.4238C30.9034 34.4238 30.0024 34.4513 29.1063 34.4192C27.8438 34.3734 27.7893 35.2074 27.9527 35.9452C28.1903 36.9991 27.0021 38.5618 28.8191 39.0429C30.3638 39.4507 32.0471 39.4095 33.671 39.5836C34.2007 39.6386 34.5621 39.5561 34.8542 39.0612C36.488 36.2935 35.3642 34.4055 32.0471 34.4101C31.9679 34.4101 31.8837 34.4101 31.8045 34.4101L31.7995 34.4055ZM31.5767 33.6494C35.8197 33.6494 36.0424 33.3286 35.0473 29.626C34.7503 28.5171 34.1958 28.3567 33.1561 28.5079C31.8689 28.6958 30.5668 28.792 29.2696 28.9249C28.7993 28.9753 28.3092 28.8974 28.0121 29.4106C26.8784 31.3536 28.2646 33.6402 30.6014 33.6448C30.9282 33.6448 31.2549 33.6448 31.5817 33.6448L31.5767 33.6494ZM30.1162 28.1871C31.1658 28.0405 32.2105 27.8893 33.26 27.7518C34.0225 27.651 34.4681 27.431 34.1017 26.5787C33.2353 24.5808 32.1709 22.7295 30.1608 21.5105C29.6212 21.1806 29.0072 20.7407 28.3686 20.9698C27.5764 21.2493 27.9626 22.0192 27.9379 22.5737C27.8784 23.7834 28.0022 25.0023 27.8982 26.2029C27.7646 27.7747 28.3042 28.5354 30.1162 28.1871ZM16.1052 34.4147C14.2404 34.4116 13.2931 34.7721 13.2634 35.4961C13.1793 37.6269 15.0557 41.2883 16.1201 40.94C17.2786 40.5597 19.259 41.0042 19.3976 39.272C19.6847 35.6886 18.7094 34.4147 16.1052 34.4147ZM27.121 24.4662C27.121 23.8567 27.0714 23.2427 27.1309 22.6424C27.3289 20.7132 26.4674 20.5482 24.9277 21.4739C23.284 22.4637 22.3186 23.9438 21.4175 25.5064C20.6254 26.8766 20.6204 27.5685 22.6107 27.8664C27.1358 28.5354 27.121 28.6271 27.121 24.4662ZM27.116 43.497C27.116 40.9736 26.172 39.8082 24.2841 40.0006C20.3779 40.3993 20.1303 40.8896 22.2839 43.9644C22.5513 44.3448 22.8384 44.7114 23.1553 45.0551C24.0712 46.0449 25.2396 47.3096 26.5219 46.9659C27.8339 46.6131 26.8586 44.9863 27.1111 43.9507C27.1457 43.8086 27.1111 43.6483 27.116 43.497ZM27.9081 43.3916C27.9081 44.0744 27.9676 44.7618 27.8982 45.44C27.7052 47.2638 28.532 47.3967 29.9875 46.5718C31.7401 45.5775 32.7006 44.0057 33.666 42.3973C34.5819 40.8713 34.1166 40.3581 32.3491 40.0969C27.9081 39.4462 27.918 39.3866 27.9131 43.3916H27.9081ZM39.112 34.4009C36.0474 34.4055 35.7899 34.6804 35.681 39.0063C35.6315 41.0317 37.7852 40.4497 38.9338 40.9171C39.9239 41.3204 41.8597 37.6361 41.7409 35.4778C41.6221 33.3974 39.8002 34.9279 39.1169 34.4009H39.112ZM16.328 33.6586C18.4322 34.2589 19.0263 33.0033 19.0263 31.1336C19.0263 30.8358 19.0312 30.5104 19.15 30.2401C20.0313 28.2055 18.6847 27.7793 16.9617 27.2523C14.9616 26.6429 14.8032 28.0038 14.2635 29.012C13.9764 29.5435 13.8229 30.1438 13.6645 30.7304C12.8624 33.6082 12.907 33.6586 16.328 33.6586ZM39.1912 33.6448C39.8695 33.1499 41.7013 34.6071 41.7508 32.4992C41.7954 30.4692 40.0131 26.7987 39.112 27.1011C37.899 27.5044 35.8296 27.1194 35.6959 28.902C35.4137 32.5909 36.2702 33.6448 39.1962 33.6448H39.1912ZM31.8193 21.5197C32.7204 22.8257 33.5422 23.8522 34.176 24.9703C35.6909 27.6602 35.7206 27.6922 38.7506 26.0655C37.1267 23.733 35.0721 22.3491 31.8193 21.5197ZM38.7704 41.7695C37.3891 42.104 36.1316 39.4324 34.8493 41.7007C33.9185 43.3458 32.9679 44.968 31.4035 46.7735C34.7998 45.8249 37.0871 44.299 38.7654 41.7695H38.7704ZM23.6058 46.7506C21.9819 44.9359 20.868 43.3825 20.1798 41.6091C19.9471 41.0042 19.5461 40.743 18.8777 40.9584C18.041 41.2333 17.0113 41.357 16.4419 41.8886C15.9072 42.3881 16.833 42.9013 17.234 43.2908C18.8728 44.8672 20.769 46.0632 23.6108 46.746L23.6058 46.7506ZM23.2048 21.5518C20.5858 22.0467 18.9025 23.2931 17.3529 24.7228C16.9221 25.1169 16.0755 25.5522 16.4271 26.1434C16.8776 26.9041 17.9965 26.8124 18.8233 27.0919C19.452 27.3027 19.9224 27.1194 20.1551 26.4871C20.769 24.7824 21.9077 23.3252 23.1999 21.5564L23.2048 21.5518Z" fill="#533115"/>
</svg>
