<svg width="1051" height="836" viewBox="0 0 1051 836" fill="none" xmlns="http://www.w3.org/2000/svg">
<circle cx="45" cy="94" r="45" fill="#FFF2DE"/>
<circle cx="79" cy="224" r="45" fill="#EEDEC7"/>
<circle cx="103" cy="354" r="45" fill="#A5AC8A"/>
<circle cx="128" cy="484" r="45" fill="#C2C4AC"/>
<circle cx="103" cy="614" r="45" fill="#FFF2DE"/>
<circle cx="79" cy="744" r="45" fill="#D4C2A8"/>
<path d="M191.5 1C275 291.5 348 434 237 835.5" stroke="#2C2C2C" stroke-width="3"/>
<path d="M124 92H170" stroke="#2C2C2C" stroke-width="3"/>
<path d="M158 224H204" stroke="#2C2C2C" stroke-width="3"/>
<path d="M183 358H229" stroke="#2C2C2C" stroke-width="3"/>
<path d="M201 490H247" stroke="#2C2C2C" stroke-width="3"/>
<path d="M183 622H229" stroke="#2C2C2C" stroke-width="3"/>
<path d="M162 755H208" stroke="#2C2C2C" stroke-width="3"/>
<path d="M267 92H303" stroke="#2C2C2C" stroke-width="3"/>
<path d="M301 224H341" stroke="#2C2C2C" stroke-width="3"/>
<path d="M324 358H366" stroke="#2C2C2C" stroke-width="3"/>
<path d="M335 490H377" stroke="#2C2C2C" stroke-width="3"/>
<path d="M317 622H368" stroke="#2C2C2C" stroke-width="3"/>
<path d="M296 755H347" stroke="#2C2C2C" stroke-width="3"/>
<circle cx="218.5" cy="92.5" r="22" fill="white" stroke="#FFF2DE"/>
<circle cx="255.5" cy="224.5" r="22" fill="white" stroke="#EEDEC7"/>
<circle cx="280.5" cy="358.5" r="22" fill="white" stroke="#A5AC8A"/>
<circle cx="292.5" cy="490.5" r="22" fill="white" stroke="#C2C4AC"/>
<circle cx="282.5" cy="622.5" r="22" fill="white" stroke="#FFF2DE"/>
<circle cx="257.5" cy="754.5" r="22" fill="white" stroke="#D4C2A8"/>
<circle cx="218.5" cy="92.5" r="18.5" fill="#FFF2DE"/>
<circle cx="255.5" cy="224.5" r="18.5" fill="#EEDEC7"/>
<circle cx="280.5" cy="358.5" r="18.5" fill="#A5AC8A"/>
<circle cx="292.5" cy="490.5" r="18.5" fill="#C2C4AC"/>
<circle cx="282.5" cy="622.5" r="18.5" fill="#FFF2DE"/>
<circle cx="257.5" cy="754.5" r="18.5" fill="#D4C2A8"/>
<path d="M38.76 108.4C30.64 108.4 27.08 102.84 27.08 93.76C27.08 84.68 30.64 79.12 38.76 79.12C46.88 79.12 50.48 84.68 50.48 93.76C50.48 102.84 46.88 108.4 38.76 108.4ZM38.76 104.2C43 104.2 45.32 101.08 45.32 93.76C45.32 86.48 43 83.32 38.76 83.32C34.52 83.32 32.24 86.48 32.24 93.76C32.24 101.08 34.52 104.2 38.76 104.2ZM64.4269 108H59.2669V87.56C58.1869 88.52 55.2669 88.96 53.7869 88.96H52.6269V85.16C56.9069 84.92 59.2669 83.2 60.3069 79.52H64.4269V108Z" fill="#2C2C2C"/>
<path d="M67.76 238.4C59.64 238.4 56.08 232.84 56.08 223.76C56.08 214.68 59.64 209.12 67.76 209.12C75.88 209.12 79.48 214.68 79.48 223.76C79.48 232.84 75.88 238.4 67.76 238.4ZM67.76 234.2C72 234.2 74.32 231.08 74.32 223.76C74.32 216.48 72 213.32 67.76 213.32C63.52 213.32 61.24 216.48 61.24 223.76C61.24 231.08 63.52 234.2 67.76 234.2ZM102.627 238H81.6269V235.64C81.6269 229.56 83.7869 226.48 89.3869 224.44L93.3869 223C96.3469 221.88 97.4669 220.24 97.4669 217.92C97.4669 215 95.4269 213.32 92.4669 213.32C89.1469 213.32 87.4269 215.16 87.0269 219.08H82.2669C82.2669 212.72 85.7469 209.12 92.4269 209.12C98.9869 209.12 102.627 212.72 102.627 218.04C102.627 222.16 100.187 224.88 95.7069 226.48L91.4269 228.04C88.3869 229.16 86.9469 230.92 86.7869 233.8H102.627V238Z" fill="#2C2C2C"/>
<path d="M90.76 368.4C82.64 368.4 79.08 362.84 79.08 353.76C79.08 344.68 82.64 339.12 90.76 339.12C98.88 339.12 102.48 344.68 102.48 353.76C102.48 362.84 98.88 368.4 90.76 368.4ZM90.76 364.2C95 364.2 97.32 361.08 97.32 353.76C97.32 346.48 95 343.32 90.76 343.32C86.52 343.32 84.24 346.48 84.24 353.76C84.24 361.08 86.52 364.2 90.76 364.2ZM115.587 368.4C108.907 368.4 104.627 365.6 104.627 358.44H109.387C109.827 362.6 111.987 364.2 115.627 364.2C119.387 364.2 121.427 362.32 121.427 359.56C121.427 356.8 119.587 355.44 116.267 355.44H112.867V351.52H115.867C118.987 351.52 121.027 350.4 121.027 347.72C121.027 345.08 118.827 343.32 115.587 343.32C112.107 343.32 110.147 345 109.787 348.28H105.027C105.027 342.72 108.747 339.12 115.587 339.12C122.027 339.12 126.187 342.48 126.187 347.24C126.187 350.84 124.267 352.72 121.427 353.36C124.587 354.16 126.587 356.12 126.587 360.32C126.587 365.12 122.267 368.4 115.587 368.4Z" fill="#2C2C2C"/>
<path d="M115.76 498.4C107.64 498.4 104.08 492.84 104.08 483.76C104.08 474.68 107.64 469.12 115.76 469.12C123.88 469.12 127.48 474.68 127.48 483.76C127.48 492.84 123.88 498.4 115.76 498.4ZM115.76 494.2C120 494.2 122.32 491.08 122.32 483.76C122.32 476.48 120 473.32 115.76 473.32C111.52 473.32 109.24 476.48 109.24 483.76C109.24 491.08 111.52 494.2 115.76 494.2ZM148.427 498H143.387V490.96H129.627V486.08L142.307 469.52H148.427V486.8H152.227V490.96H148.427V498ZM143.387 486.8V474.68L134.187 486.8H143.387Z" fill="#2C2C2C"/>
<path d="M90.76 628.4C82.64 628.4 79.08 622.84 79.08 613.76C79.08 604.68 82.64 599.12 90.76 599.12C98.88 599.12 102.48 604.68 102.48 613.76C102.48 622.84 98.88 628.4 90.76 628.4ZM90.76 624.2C95 624.2 97.32 621.08 97.32 613.76C97.32 606.48 95 603.32 90.76 603.32C86.52 603.32 84.24 606.48 84.24 613.76C84.24 621.08 86.52 624.2 90.76 624.2ZM115.427 628.4C108.387 628.4 105.027 624.4 105.027 620.44H110.067C110.427 622.32 111.907 624.48 115.427 624.48C118.747 624.48 120.947 622.4 120.947 618.8C120.947 615.24 118.747 613.08 115.427 613.08C112.227 613.08 110.707 614.96 110.187 616.8H105.187L107.587 599.52H124.507V603.72H111.787L110.707 611.32C111.987 609.96 113.987 609.44 116.107 609.44C122.267 609.44 126.107 612.76 126.107 618.64C126.107 624.52 122.227 628.4 115.427 628.4Z" fill="#2C2C2C"/>
<path d="M66.76 758.4C58.64 758.4 55.08 752.84 55.08 743.76C55.08 734.68 58.64 729.12 66.76 729.12C74.88 729.12 78.48 734.68 78.48 743.76C78.48 752.84 74.88 758.4 66.76 758.4ZM66.76 754.2C71 754.2 73.32 751.08 73.32 743.76C73.32 736.48 71 733.32 66.76 733.32C62.52 733.32 60.24 736.48 60.24 743.76C60.24 751.08 62.52 754.2 66.76 754.2ZM91.9069 758.4C84.7469 758.4 80.6269 754.32 80.6269 745.68C80.6269 734.8 84.6669 729.12 91.9469 729.12C97.5069 729.12 101.107 731.52 101.827 736.8H97.0669C96.7469 734.68 95.2269 733.04 92.1869 733.04C88.3069 733.04 86.2269 736.24 85.7869 742.88C87.2669 740.52 89.5869 739.44 92.6669 739.44C98.8269 739.44 102.667 742.76 102.667 748.64C102.667 754.44 98.7869 758.4 91.9069 758.4ZM91.7469 754.48C95.1469 754.48 97.5069 752.36 97.5069 748.8C97.5069 745.2 95.1469 743.08 91.7469 743.08C88.3069 743.08 85.9869 745.2 85.9869 748.8C85.9869 752.36 88.3069 754.48 91.7469 754.48Z" fill="#2C2C2C"/>
<rect x="384" y="717" width="608" height="74" rx="17" fill="#D4C2A8"/>
<path d="M436.765 753.54C436.765 761.31 432.775 766 424.655 766H414.995V741.08H424.655C432.775 741.08 436.765 745.77 436.765 753.54ZM432.88 753.54C432.88 747.345 430.185 744.16 424.83 744.16H418.88V762.92H424.83C430.185 762.92 432.88 759.735 432.88 753.54ZM443.274 766H439.564V747.94H443.099V752.105C444.044 748.92 445.654 747.73 448.279 747.73C448.769 747.73 449.469 747.835 449.924 747.94V751.195L448.139 751.125C445.199 751.125 443.274 753.4 443.274 757.425V766ZM456.092 766H452.382V747.94H456.092V766ZM454.237 744.79C452.802 744.79 452.032 743.95 452.032 742.83C452.032 741.71 452.802 740.835 454.237 740.835C455.637 740.835 456.442 741.71 456.442 742.83C456.442 743.95 455.637 744.79 454.237 744.79ZM469.534 766H465.054L458.194 747.94H462.044L467.294 762.71L472.509 747.94H476.394L469.534 766ZM485.661 766.35C479.921 766.35 476.736 762.71 476.736 756.97C476.736 751.405 479.746 747.59 485.451 747.59C491.156 747.59 494.166 751.475 494.166 756.655C494.166 757.005 494.131 757.32 494.096 757.67H480.446C480.551 761.94 482.581 763.795 485.661 763.795C488.216 763.795 489.826 762.465 490.386 760.4H493.781C492.976 764.075 490.351 766.35 485.661 766.35ZM485.451 750.145C482.651 750.145 480.831 751.825 480.446 755.22H490.456C490.071 751.825 488.251 750.145 485.451 750.145ZM512.352 766H508.642V754.73C508.642 752 507.662 750.6 505.107 750.6C502.412 750.6 500.662 752.63 500.662 755.92V766H496.952V747.94H500.487V751.09C501.467 748.99 503.217 747.59 506.227 747.59C510.357 747.59 512.352 749.69 512.352 754.065V766ZM531.254 766.175C527.474 766.175 526.144 765.055 526.144 761.38V750.6H523.204V747.94H526.144V742.48H529.854V747.94H534.019V750.6H529.854V761.485C529.854 763.06 530.449 763.515 532.094 763.515L534.019 763.48V766C533.284 766.07 531.989 766.175 531.254 766.175ZM543.971 766.35C538.231 766.35 535.046 762.71 535.046 756.97C535.046 751.23 538.231 747.59 543.971 747.59C549.711 747.59 552.896 751.23 552.896 756.97C552.896 762.71 549.711 766.35 543.971 766.35ZM543.971 763.515C547.296 763.515 549.186 761.345 549.186 756.97C549.186 752.63 547.296 750.425 543.971 750.425C540.646 750.425 538.756 752.63 538.756 756.97C538.756 761.345 540.646 763.515 543.971 763.515ZM586.472 753.54C586.472 761.31 582.482 766 574.362 766H564.702V741.08H574.362C582.482 741.08 586.472 745.77 586.472 753.54ZM582.587 753.54C582.587 747.345 579.892 744.16 574.537 744.16H568.587V762.92H574.537C579.892 762.92 582.587 759.735 582.587 753.54ZM597.496 766.35C591.756 766.35 588.571 762.71 588.571 756.97C588.571 751.405 591.581 747.59 597.286 747.59C602.991 747.59 606.001 751.475 606.001 756.655C606.001 757.005 605.966 757.32 605.931 757.67H592.281C592.386 761.94 594.416 763.795 597.496 763.795C600.051 763.795 601.661 762.465 602.221 760.4H605.616C604.811 764.075 602.186 766.35 597.496 766.35ZM597.286 750.145C594.486 750.145 592.666 751.825 592.281 755.22H602.291C601.906 751.825 600.086 750.145 597.286 750.145ZM612.498 766H608.788V741.08H612.498V766ZM619.71 766H616V747.94H619.71V766ZM617.855 744.79C616.42 744.79 615.65 743.95 615.65 742.83C615.65 741.71 616.42 740.835 617.855 740.835C619.255 740.835 620.06 741.71 620.06 742.83C620.06 743.95 619.255 744.79 617.855 744.79ZM633.152 766H628.672L621.812 747.94H625.662L630.912 762.71L636.127 747.94H640.012L633.152 766ZM649.279 766.35C643.539 766.35 640.354 762.71 640.354 756.97C640.354 751.405 643.364 747.59 649.069 747.59C654.774 747.59 657.784 751.475 657.784 756.655C657.784 757.005 657.749 757.32 657.714 757.67H644.064C644.169 761.94 646.199 763.795 649.279 763.795C651.834 763.795 653.444 762.465 654.004 760.4H657.399C656.594 764.075 653.969 766.35 649.279 766.35ZM649.069 750.145C646.269 750.145 644.449 751.825 644.064 755.22H654.074C653.689 751.825 651.869 750.145 649.069 750.145ZM664.28 766H660.57V747.94H664.105V752.105C665.05 748.92 666.66 747.73 669.285 747.73C669.775 747.73 670.475 747.835 670.93 747.94V751.195L669.145 751.125C666.205 751.125 664.28 753.4 664.28 757.425V766Z" fill="black"/>
<rect x="413" y="585" width="608" height="74" rx="17" fill="#FFF2DE"/>
<path d="M456.16 634.35C448.285 634.35 444.05 629.135 444.05 621.54C444.05 613.945 448.285 608.73 456.16 608.73C462.95 608.73 467.36 612.79 467.36 617.97H463.72C463.265 614.505 460.815 611.915 456.16 611.915C450.735 611.915 447.935 615.38 447.935 621.54C447.935 627.7 450.735 631.165 456.16 631.165C460.745 631.165 463.265 628.715 463.72 624.9H467.36C467.36 630.185 463.09 634.35 456.16 634.35ZM478.371 634.35C472.631 634.35 469.446 630.71 469.446 624.97C469.446 619.23 472.631 615.59 478.371 615.59C484.111 615.59 487.296 619.23 487.296 624.97C487.296 630.71 484.111 634.35 478.371 634.35ZM478.371 631.515C481.696 631.515 483.586 629.345 483.586 624.97C483.586 620.63 481.696 618.425 478.371 618.425C475.046 618.425 473.156 620.63 473.156 624.97C473.156 629.345 475.046 631.515 478.371 631.515ZM493.816 634H490.106V609.08H493.816V634ZM501.028 634H497.318V609.08H501.028V634ZM510.305 634.35C506.105 634.35 503.83 632.25 503.83 628.89C503.83 626.195 505.475 624.06 509.955 623.675L513.455 623.395C515.59 623.185 516.22 622.695 516.22 621.54C516.22 619.475 515.03 618.25 512.405 618.25C509.955 618.25 508.625 619.3 508.45 621.54H504.81C504.81 617.9 507.05 615.59 512.37 615.59C517.655 615.59 519.93 617.9 519.93 621.54V629.38C519.93 631.83 520.14 633.405 520.49 634H517.165C516.605 633.3 516.395 632.565 516.395 630.885C515.415 633.195 513.42 634.35 510.305 634.35ZM511.32 631.795C514.505 631.795 516.22 629.31 516.22 626.335V624.795C515.835 625.285 514.855 625.565 513.455 625.67L511.145 625.88C508.555 626.09 507.54 627.175 507.54 628.645C507.54 630.5 508.66 631.795 511.32 631.795ZM533.022 634.35C529.907 634.35 527.947 632.985 526.967 630.675V634H523.432V609.08H527.142V619.02C528.157 616.78 530.117 615.59 533.022 615.59C537.887 615.59 540.932 619.055 540.932 624.97C540.932 630.885 537.887 634.35 533.022 634.35ZM532.182 631.515C535.157 631.515 537.222 629.52 537.222 624.97C537.222 620.455 535.157 618.425 532.182 618.425C529.172 618.425 527.142 620.455 527.142 624.97C527.142 629.52 529.172 631.515 532.182 631.515ZM551.959 634.35C546.219 634.35 543.034 630.71 543.034 624.97C543.034 619.23 546.219 615.59 551.959 615.59C557.699 615.59 560.884 619.23 560.884 624.97C560.884 630.71 557.699 634.35 551.959 634.35ZM551.959 631.515C555.284 631.515 557.174 629.345 557.174 624.97C557.174 620.63 555.284 618.425 551.959 618.425C548.634 618.425 546.744 620.63 546.744 624.97C546.744 629.345 548.634 631.515 551.959 631.515ZM567.405 634H563.695V615.94H567.23V620.105C568.175 616.92 569.785 615.73 572.41 615.73C572.9 615.73 573.6 615.835 574.055 615.94V619.195L572.27 619.125C569.33 619.125 567.405 621.4 567.405 625.425V634ZM581.433 634.35C577.233 634.35 574.958 632.25 574.958 628.89C574.958 626.195 576.603 624.06 581.083 623.675L584.583 623.395C586.718 623.185 587.348 622.695 587.348 621.54C587.348 619.475 586.158 618.25 583.533 618.25C581.083 618.25 579.753 619.3 579.578 621.54H575.938C575.938 617.9 578.178 615.59 583.498 615.59C588.783 615.59 591.058 617.9 591.058 621.54V629.38C591.058 631.83 591.268 633.405 591.618 634H588.293C587.733 633.3 587.523 632.565 587.523 630.885C586.543 633.195 584.548 634.35 581.433 634.35ZM582.448 631.795C585.633 631.795 587.348 629.31 587.348 626.335V624.795C586.963 625.285 585.983 625.565 584.583 625.67L582.273 625.88C579.683 626.09 578.668 627.175 578.668 628.645C578.668 630.5 579.788 631.795 582.448 631.795ZM600.868 634.175C597.088 634.175 595.758 633.055 595.758 629.38V618.6H592.818V615.94H595.758V610.48H599.468V615.94H603.633V618.6H599.468V629.485C599.468 631.06 600.063 631.515 601.708 631.515L603.633 631.48V634C602.898 634.07 601.603 634.175 600.868 634.175ZM609.993 634H606.283V615.94H609.993V634ZM608.138 612.79C606.703 612.79 605.933 611.95 605.933 610.83C605.933 609.71 606.703 608.835 608.138 608.835C609.538 608.835 610.343 609.71 610.343 610.83C610.343 611.95 609.538 612.79 608.138 612.79ZM621.72 634.35C615.98 634.35 612.795 630.71 612.795 624.97C612.795 619.23 615.98 615.59 621.72 615.59C627.46 615.59 630.645 619.23 630.645 624.97C630.645 630.71 627.46 634.35 621.72 634.35ZM621.72 631.515C625.045 631.515 626.935 629.345 626.935 624.97C626.935 620.63 625.045 618.425 621.72 618.425C618.395 618.425 616.505 620.63 616.505 624.97C616.505 629.345 618.395 631.515 621.72 631.515ZM648.856 634H645.146V622.73C645.146 620 644.166 618.6 641.611 618.6C638.916 618.6 637.166 620.63 637.166 623.92V634H633.456V615.94H636.991V619.09C637.971 616.99 639.721 615.59 642.731 615.59C646.861 615.59 648.856 617.69 648.856 622.065V634Z" fill="black"/>
<rect x="443" y="453" width="608" height="74" rx="17" fill="#C2C4AC"/>
<path d="M479.88 502H475.995V477.08H479.88V502ZM499.011 502H495.301V490.73C495.301 488 494.321 486.6 491.766 486.6C489.071 486.6 487.321 488.63 487.321 491.92V502H483.611V483.94H487.146V487.09C488.126 484.99 489.876 483.59 492.886 483.59C497.016 483.59 499.011 485.69 499.011 490.065V502ZM508.821 502.175C505.041 502.175 503.711 501.055 503.711 497.38V486.6H500.771V483.94H503.711V478.48H507.421V483.94H511.586V486.6H507.421V497.485C507.421 499.06 508.016 499.515 509.661 499.515L511.586 499.48V502C510.851 502.07 509.556 502.175 508.821 502.175ZM521.538 502.35C515.798 502.35 512.613 498.71 512.613 492.97C512.613 487.405 515.623 483.59 521.328 483.59C527.033 483.59 530.043 487.475 530.043 492.655C530.043 493.005 530.008 493.32 529.973 493.67H516.323C516.428 497.94 518.458 499.795 521.538 499.795C524.093 499.795 525.703 498.465 526.263 496.4H529.658C528.853 500.075 526.228 502.35 521.538 502.35ZM521.328 486.145C518.528 486.145 516.708 487.825 516.323 491.22H526.333C525.948 487.825 524.128 486.145 521.328 486.145ZM540.005 501.3C535.14 501.3 532.13 497.73 532.13 492.445C532.13 487.16 535.14 483.59 540.005 483.59C543.155 483.59 545.08 484.955 546.095 487.3V483.94H549.63V500.67C549.63 506.27 546.62 509.21 540.985 509.21C535.735 509.21 533.11 506.655 533.11 502.84H536.575C536.82 505.36 538.43 506.725 541.16 506.725C544.17 506.725 545.92 505.115 545.92 501.615V497.87C544.905 500.11 542.91 501.3 540.005 501.3ZM540.88 498.64C543.855 498.64 545.92 496.54 545.92 492.445C545.92 488.385 543.855 486.25 540.88 486.25C537.87 486.25 535.84 488.385 535.84 492.445C535.84 496.54 537.87 498.64 540.88 498.64ZM556.843 502H553.133V483.94H556.668V488.105C557.613 484.92 559.223 483.73 561.848 483.73C562.338 483.73 563.038 483.835 563.493 483.94V487.195L561.708 487.125C558.768 487.125 556.843 489.4 556.843 493.425V502ZM569.66 502H565.95V483.94H569.66V502ZM567.805 480.79C566.37 480.79 565.6 479.95 565.6 478.83C565.6 477.71 566.37 476.835 567.805 476.835C569.205 476.835 570.01 477.71 570.01 478.83C570.01 479.95 569.205 480.79 567.805 480.79ZM579.812 502.175C576.032 502.175 574.702 501.055 574.702 497.38V486.6H571.762V483.94H574.702V478.48H578.412V483.94H582.577V486.6H578.412V497.485C578.412 499.06 579.007 499.515 580.652 499.515L582.577 499.48V502C581.842 502.07 580.547 502.175 579.812 502.175ZM585.473 508.86V506.2H587.083C589.498 506.2 590.898 504.66 590.898 503.015C590.898 502.665 590.828 502.28 590.688 501.93L583.828 483.94H587.678L592.893 499.025L598.143 483.94H602.028L595.098 501.93C593.033 507.25 590.968 508.86 587.048 508.86H585.473Z" fill="black"/>
<rect x="413" y="321" width="608" height="74" rx="17" fill="#A5AC8A"/>
<path d="M455.215 370H451.33V348.265H443.595V345.08H462.985V348.265H455.215V370ZM467.293 370H463.583V351.94H467.118V356.105C468.063 352.92 469.673 351.73 472.298 351.73C472.788 351.73 473.488 351.835 473.943 351.94V355.195L472.158 355.125C469.218 355.125 467.293 357.4 467.293 361.425V370ZM482.525 370.35C478.395 370.35 476.4 368.25 476.4 363.875V351.94H480.11V363.21C480.11 365.94 481.09 367.34 483.645 367.34C486.34 367.34 488.09 365.31 488.09 362.02V351.94H491.8V370H488.265V366.885C487.25 368.95 485.535 370.35 482.525 370.35ZM502.442 370.35C496.772 370.35 494.602 367.865 494.602 364.4H498.172C498.347 366.465 499.257 367.865 502.477 367.865C505.627 367.865 506.572 366.5 506.572 364.96C506.572 363.525 505.522 362.79 503.807 362.545L500.482 362.055C496.702 361.53 495.092 360.2 495.092 357.19C495.092 354.075 497.052 351.59 502.442 351.59C507.832 351.59 509.792 354.075 509.792 357.26H506.222C506.047 355.58 505.487 354.075 502.407 354.075C499.782 354.075 498.802 355.16 498.802 356.91C498.802 358.38 499.642 358.905 501.042 359.115L504.367 359.605C508.042 360.13 510.282 361.46 510.282 364.75C510.282 367.865 508.112 370.35 502.442 370.35ZM519.383 370.175C515.603 370.175 514.273 369.055 514.273 365.38V354.6H511.333V351.94H514.273V346.48H517.983V351.94H522.148V354.6H517.983V365.485C517.983 367.06 518.578 367.515 520.223 367.515L522.148 367.48V370C521.413 370.07 520.118 370.175 519.383 370.175ZM545.344 370H541.389L537.539 356.84L533.654 370H529.734L523.399 351.94H527.249L531.904 365.8L535.859 351.94H539.219L543.174 365.8L547.794 351.94H551.679L545.344 370ZM560.949 370.35C555.209 370.35 552.024 366.71 552.024 360.97C552.024 355.23 555.209 351.59 560.949 351.59C566.689 351.59 569.874 355.23 569.874 360.97C569.874 366.71 566.689 370.35 560.949 370.35ZM560.949 367.515C564.274 367.515 566.164 365.345 566.164 360.97C566.164 356.63 564.274 354.425 560.949 354.425C557.624 354.425 555.734 356.63 555.734 360.97C555.734 365.345 557.624 367.515 560.949 367.515ZM576.395 370H572.685V351.94H576.22V356.105C577.165 352.92 578.775 351.73 581.4 351.73C581.89 351.73 582.59 351.835 583.045 351.94V355.195L581.26 355.125C578.32 355.125 576.395 357.4 576.395 361.425V370ZM592.152 370.175C588.372 370.175 587.042 369.055 587.042 365.38V354.6H584.102V351.94H587.042V346.48H590.752V351.94H594.917V354.6H590.752V365.485C590.752 367.06 591.347 367.515 592.992 367.515L594.917 367.48V370C594.182 370.07 592.887 370.175 592.152 370.175ZM612.967 370H609.257V358.73C609.257 356 608.277 354.6 605.722 354.6C603.027 354.6 601.277 356.63 601.277 359.92V370H597.567V345.08H601.277V354.81C602.257 352.85 603.972 351.59 606.842 351.59C610.972 351.59 612.967 353.69 612.967 358.065V370ZM615.859 376.86V374.2H617.469C619.884 374.2 621.284 372.66 621.284 371.015C621.284 370.665 621.214 370.28 621.074 369.93L614.214 351.94H618.064L623.279 367.025L628.529 351.94H632.414L625.484 369.93C623.419 375.25 621.354 376.86 617.434 376.86H615.859Z" fill="black"/>
<rect x="384" y="187" width="608" height="74" rx="17" fill="#EEDEC7"/>
<path d="M437.15 236H433.125L430.955 230.26H419.545L417.34 236H413.35L422.87 211.08H427.63L437.15 236ZM429.975 227.25L425.25 214.685L420.525 227.25H429.975ZM446.623 236.35C441.058 236.35 437.873 232.71 437.873 226.97C437.873 221.23 441.058 217.59 446.623 217.59C452.328 217.59 454.813 221.23 454.813 224.59H451.383C451.033 222.35 449.703 220.425 446.623 220.425C443.473 220.425 441.583 222.63 441.583 226.97C441.583 231.345 443.473 233.515 446.623 233.515C449.318 233.515 450.998 232.08 451.383 229.21H454.813C454.813 232.92 452.118 236.35 446.623 236.35ZM465.32 236.35C459.755 236.35 456.57 232.71 456.57 226.97C456.57 221.23 459.755 217.59 465.32 217.59C471.025 217.59 473.51 221.23 473.51 224.59H470.08C469.73 222.35 468.4 220.425 465.32 220.425C462.17 220.425 460.28 222.63 460.28 226.97C460.28 231.345 462.17 233.515 465.32 233.515C468.015 233.515 469.695 232.08 470.08 229.21H473.51C473.51 232.92 470.815 236.35 465.32 236.35ZM484.191 236.35C478.451 236.35 475.266 232.71 475.266 226.97C475.266 221.23 478.451 217.59 484.191 217.59C489.931 217.59 493.116 221.23 493.116 226.97C493.116 232.71 489.931 236.35 484.191 236.35ZM484.191 233.515C487.516 233.515 489.406 231.345 489.406 226.97C489.406 222.63 487.516 220.425 484.191 220.425C480.866 220.425 478.976 222.63 478.976 226.97C478.976 231.345 480.866 233.515 484.191 233.515ZM502.052 236.35C497.922 236.35 495.927 234.25 495.927 229.875V217.94H499.637V229.21C499.637 231.94 500.617 233.34 503.172 233.34C505.867 233.34 507.617 231.31 507.617 228.02V217.94H511.327V236H507.792V232.885C506.777 234.95 505.062 236.35 502.052 236.35ZM530.228 236H526.518V224.73C526.518 222 525.538 220.6 522.983 220.6C520.288 220.6 518.538 222.63 518.538 225.92V236H514.828V217.94H518.363V221.09C519.343 218.99 521.093 217.59 524.103 217.59C528.233 217.59 530.228 219.69 530.228 224.065V236ZM540.038 236.175C536.258 236.175 534.928 235.055 534.928 231.38V220.6H531.988V217.94H534.928V212.48H538.638V217.94H542.803V220.6H538.638V231.485C538.638 233.06 539.233 233.515 540.878 233.515L542.803 233.48V236C542.068 236.07 540.773 236.175 540.038 236.175ZM551.228 236.35C547.028 236.35 544.753 234.25 544.753 230.89C544.753 228.195 546.398 226.06 550.878 225.675L554.378 225.395C556.513 225.185 557.143 224.695 557.143 223.54C557.143 221.475 555.953 220.25 553.328 220.25C550.878 220.25 549.548 221.3 549.373 223.54H545.733C545.733 219.9 547.973 217.59 553.293 217.59C558.578 217.59 560.853 219.9 560.853 223.54V231.38C560.853 233.83 561.063 235.405 561.413 236H558.088C557.528 235.3 557.318 234.565 557.318 232.885C556.338 235.195 554.343 236.35 551.228 236.35ZM552.243 233.795C555.428 233.795 557.143 231.31 557.143 228.335V226.795C556.758 227.285 555.778 227.565 554.378 227.67L552.068 227.88C549.478 228.09 548.463 229.175 548.463 230.645C548.463 232.5 549.583 233.795 552.243 233.795ZM573.944 236.35C570.829 236.35 568.869 234.985 567.889 232.675V236H564.354V211.08H568.064V221.02C569.079 218.78 571.039 217.59 573.944 217.59C578.809 217.59 581.854 221.055 581.854 226.97C581.854 232.885 578.809 236.35 573.944 236.35ZM573.104 233.515C576.079 233.515 578.144 231.52 578.144 226.97C578.144 222.455 576.079 220.425 573.104 220.425C570.094 220.425 568.064 222.455 568.064 226.97C568.064 231.52 570.094 233.515 573.104 233.515ZM588.367 236H584.657V217.94H588.367V236ZM586.512 214.79C585.077 214.79 584.307 213.95 584.307 212.83C584.307 211.71 585.077 210.835 586.512 210.835C587.912 210.835 588.717 211.71 588.717 212.83C588.717 213.95 587.912 214.79 586.512 214.79ZM595.579 236H591.869V211.08H595.579V236ZM602.791 236H599.081V217.94H602.791V236ZM600.936 214.79C599.501 214.79 598.731 213.95 598.731 212.83C598.731 211.71 599.501 210.835 600.936 210.835C602.336 210.835 603.141 211.71 603.141 212.83C603.141 213.95 602.336 214.79 600.936 214.79ZM612.943 236.175C609.163 236.175 607.833 235.055 607.833 231.38V220.6H604.893V217.94H607.833V212.48H611.543V217.94H615.708V220.6H611.543V231.485C611.543 233.06 612.138 233.515 613.783 233.515L615.708 233.48V236C614.973 236.07 613.678 236.175 612.943 236.175ZM618.603 242.86V240.2H620.213C622.628 240.2 624.028 238.66 624.028 237.015C624.028 236.665 623.958 236.28 623.818 235.93L616.958 217.94H620.808L626.023 233.025L631.273 217.94H635.158L628.228 235.93C626.163 241.25 624.098 242.86 620.178 242.86H618.603Z" fill="black"/>
<rect x="340" y="55" width="608" height="74" rx="17" fill="#FFF2DE"/>
<path d="M382.025 104.35C375.27 104.35 372.05 101.41 372.05 96.09H375.795C376.18 99.695 377.755 101.41 382.095 101.41C386.365 101.41 388.115 99.625 388.115 96.86C388.115 95.04 387.1 93.745 383.145 93.185L379.68 92.66C374.535 91.925 372.68 90.07 372.68 86.29C372.68 81.845 375.725 78.73 382.025 78.73C388.325 78.73 391.37 81.775 391.37 86.64H387.73C387.345 83.35 385.7 81.67 381.92 81.67C378.21 81.67 376.565 83.42 376.565 86.08C376.565 87.97 377.44 88.985 380.94 89.475L384.405 90C389.34 90.7 392 92.59 392 96.615C392 101.34 388.78 104.35 382.025 104.35ZM401.446 104.175C397.666 104.175 396.336 103.055 396.336 99.38V88.6H393.396V85.94H396.336V80.48H400.046V85.94H404.211V88.6H400.046V99.485C400.046 101.06 400.641 101.515 402.286 101.515L404.211 101.48V104C403.476 104.07 402.181 104.175 401.446 104.175ZM412.986 104.35C408.856 104.35 406.861 102.25 406.861 97.875V85.94H410.571V97.21C410.571 99.94 411.551 101.34 414.106 101.34C416.801 101.34 418.551 99.31 418.551 96.02V85.94H422.261V104H418.726V100.885C417.711 102.95 415.996 104.35 412.986 104.35ZM432.938 104.35C428.073 104.35 425.063 100.885 425.063 94.97C425.063 89.055 428.073 85.59 432.938 85.59C435.843 85.59 437.838 86.78 438.853 89.02V79.08H442.563V104H439.028V100.675C438.013 102.985 436.088 104.35 432.938 104.35ZM433.813 101.515C436.788 101.515 438.853 99.52 438.853 94.97C438.853 90.455 436.788 88.425 433.813 88.425C430.803 88.425 428.773 90.455 428.773 94.97C428.773 99.52 430.803 101.515 433.813 101.515ZM454.29 104.35C448.55 104.35 445.365 100.71 445.365 94.97C445.365 89.405 448.375 85.59 454.08 85.59C459.785 85.59 462.795 89.475 462.795 94.655C462.795 95.005 462.76 95.32 462.725 95.67H449.075C449.18 99.94 451.21 101.795 454.29 101.795C456.845 101.795 458.455 100.465 459.015 98.4H462.41C461.605 102.075 458.98 104.35 454.29 104.35ZM454.08 88.145C451.28 88.145 449.46 89.825 449.075 93.22H459.085C458.7 89.825 456.88 88.145 454.08 88.145ZM480.982 104H477.272V92.73C477.272 90 476.292 88.6 473.737 88.6C471.042 88.6 469.292 90.63 469.292 93.92V104H465.582V85.94H469.117V89.09C470.097 86.99 471.847 85.59 474.857 85.59C478.987 85.59 480.982 87.69 480.982 92.065V104ZM490.792 104.175C487.012 104.175 485.682 103.055 485.682 99.38V88.6H482.742V85.94H485.682V80.48H489.392V85.94H493.557V88.6H489.392V99.485C489.392 101.06 489.987 101.515 491.632 101.515L493.557 101.48V104C492.822 104.07 491.527 104.175 490.792 104.175ZM505.412 95.39H496.032V92.555H505.412V95.39ZM520.503 104.35C512.628 104.35 508.393 99.135 508.393 91.54C508.393 83.945 512.628 78.73 520.503 78.73C527.293 78.73 531.703 82.79 531.703 87.97H528.063C527.608 84.505 525.158 81.915 520.503 81.915C515.078 81.915 512.278 85.38 512.278 91.54C512.278 97.7 515.078 101.165 520.503 101.165C525.088 101.165 527.608 98.715 528.063 94.9H531.703C531.703 100.185 527.433 104.35 520.503 104.35ZM542.713 104.35C536.973 104.35 533.788 100.71 533.788 94.97C533.788 89.405 536.798 85.59 542.503 85.59C548.208 85.59 551.218 89.475 551.218 94.655C551.218 95.005 551.183 95.32 551.148 95.67H537.498C537.603 99.94 539.633 101.795 542.713 101.795C545.268 101.795 546.878 100.465 547.438 98.4H550.833C550.028 102.075 547.403 104.35 542.713 104.35ZM542.503 88.145C539.703 88.145 537.883 89.825 537.498 93.22H547.508C547.123 89.825 545.303 88.145 542.503 88.145ZM569.405 104H565.695V92.73C565.695 90 564.715 88.6 562.16 88.6C559.465 88.6 557.715 90.63 557.715 93.92V104H554.005V85.94H557.54V89.09C558.52 86.99 560.27 85.59 563.28 85.59C567.41 85.59 569.405 87.69 569.405 92.065V104ZM579.214 104.175C575.434 104.175 574.104 103.055 574.104 99.38V88.6H571.164V85.94H574.104V80.48H577.814V85.94H581.979V88.6H577.814V99.485C577.814 101.06 578.409 101.515 580.054 101.515L581.979 101.48V104C581.244 104.07 579.949 104.175 579.214 104.175ZM591.932 104.35C586.192 104.35 583.007 100.71 583.007 94.97C583.007 89.405 586.017 85.59 591.722 85.59C597.427 85.59 600.437 89.475 600.437 94.655C600.437 95.005 600.402 95.32 600.367 95.67H586.717C586.822 99.94 588.852 101.795 591.932 101.795C594.487 101.795 596.097 100.465 596.657 98.4H600.052C599.247 102.075 596.622 104.35 591.932 104.35ZM591.722 88.145C588.922 88.145 587.102 89.825 586.717 93.22H596.727C596.342 89.825 594.522 88.145 591.722 88.145ZM606.934 104H603.224V85.94H606.759V90.105C607.704 86.92 609.314 85.73 611.939 85.73C612.429 85.73 613.129 85.835 613.584 85.94V89.195L611.799 89.125C608.859 89.125 606.934 91.4 606.934 95.425V104ZM623.48 104.35C617.74 104.35 614.555 100.71 614.555 94.97C614.555 89.405 617.565 85.59 623.27 85.59C628.975 85.59 631.985 89.475 631.985 94.655C631.985 95.005 631.95 95.32 631.915 95.67H618.265C618.37 99.94 620.4 101.795 623.48 101.795C626.035 101.795 627.645 100.465 628.205 98.4H631.6C630.795 102.075 628.17 104.35 623.48 104.35ZM623.27 88.145C620.47 88.145 618.65 89.825 618.265 93.22H628.275C627.89 89.825 626.07 88.145 623.27 88.145ZM641.946 104.35C637.081 104.35 634.071 100.885 634.071 94.97C634.071 89.055 637.081 85.59 641.946 85.59C644.851 85.59 646.846 86.78 647.861 89.02V79.08H651.571V104H648.036V100.675C647.021 102.985 645.096 104.35 641.946 104.35ZM642.821 101.515C645.796 101.515 647.861 99.52 647.861 94.97C647.861 90.455 645.796 88.425 642.821 88.425C639.811 88.425 637.781 90.455 637.781 94.97C637.781 99.52 639.811 101.515 642.821 101.515Z" fill="black"/>
</svg>
