<svg width="74" height="75" viewBox="0 0 74 75" fill="none" xmlns="http://www.w3.org/2000/svg">
<path d="M39.31 34.9964C39.1569 35.2631 39.0026 35.5289 38.8512 35.796C37.597 38.0119 36.8041 40.3842 36.5434 42.9152C36.0651 47.5559 37.1658 51.8138 39.8574 55.6181C42.7695 59.7343 46.7556 62.2903 51.6449 63.4618C51.7136 63.4784 51.7827 63.4932 51.8522 63.5034C52.0443 63.5309 52.1541 63.6166 52.1431 63.8337C52.135 64.002 52.1626 64.1716 52.1698 64.3408C52.2457 66.1042 52.3419 67.8677 52.3436 69.6333C52.3445 70.6038 52.3695 70.4453 51.5579 70.7268C49.8649 71.3145 48.1264 71.7521 46.3948 72.21C44.4511 72.7235 42.4663 72.9868 40.476 73.2251C38.6257 73.4468 36.7702 73.616 34.9147 73.7852C33.7199 73.8941 32.522 73.9734 31.3255 74.0629C29.0583 74.2317 26.7886 74.3606 24.5176 74.4594C21.4982 74.5904 18.4776 74.7129 15.4548 74.5675C14.279 74.5111 13.1452 74.2529 12.0157 73.912C8.45103 72.8362 4.87238 71.808 1.29926 70.7607C0.988032 70.6696 0.677233 70.5754 0.36813 70.4775C0.00093801 70.3613 -0.00966226 70.3583 0.00305803 69.9852C0.0318907 69.1245 0.0649634 68.2633 0.11118 67.4034C0.211247 65.542 0.311313 63.681 0.427916 61.8205C0.590735 59.2132 0.730234 56.6039 0.950295 54.0013C1.17756 51.3131 1.5808 48.6486 2.27999 46.0346C3.29083 42.255 5.36339 39.1924 8.4718 36.8289C10.0131 35.657 11.7693 34.951 13.6354 34.4753C15.3433 34.0398 17.0796 33.8753 18.8329 33.8231C22.532 33.7129 26.2323 33.6807 29.9326 33.7286C32.9473 33.768 35.9319 34.0936 38.8644 34.8238C38.9873 34.8543 39.1095 34.8904 39.2307 34.9277C39.2536 34.9349 39.2706 34.9612 39.3104 34.9964H39.31Z" fill="#533115"/>
<path d="M25.6211 32.1537C22.5801 32.1431 19.858 31.4108 17.3983 29.8195C14.0257 27.6376 11.8981 24.586 11.2277 20.6033C10.7537 17.787 11.1904 15.0733 12.5561 12.5607C14.8759 8.293 18.5274 5.88165 23.2878 5.15321C26.8355 4.61047 30.1877 5.27871 33.2503 7.15156C36.5869 9.19232 38.7943 12.1112 39.5799 15.9748C40.4246 20.1279 39.3925 23.8533 36.6712 27.0783C34.3761 29.7983 31.3991 31.3545 27.9044 31.9544C27.1077 32.0914 26.3072 32.1401 25.6207 32.1529L25.6211 32.1537Z" fill="#533115"/>
<path d="M8.80922 13.9738C9.37018 13.8958 9.88451 13.6834 10.4298 13.6283C10.5481 14.1629 10.2988 14.6035 10.1622 15.0661C9.80691 16.2694 9.61696 17.4885 9.81158 18.7452C9.89426 19.2786 10.0431 19.7912 10.2542 20.2873C10.2852 20.3598 10.3573 20.4374 10.2797 20.5193C10.2059 20.5973 10.122 20.5447 10.0448 20.5184C9.23069 20.2403 8.41659 19.9604 7.60249 19.6823C7.2459 19.5606 6.88846 19.4423 6.49922 19.3113C6.50515 19.8209 6.61497 20.2733 6.68578 20.73C6.96732 22.5431 7.24123 24.3578 7.61775 26.1548C7.77421 26.901 7.95357 27.6414 8.21518 28.3596C8.34663 28.72 8.51581 29.0592 8.74731 29.3667C9.08016 29.8085 9.54657 30.0222 10.0651 30.1528C10.2224 30.1922 10.3335 30.1049 10.459 30.0425C11.9117 29.3196 13.3881 29.3005 14.8823 29.9035C15.1456 30.0099 15.3869 30.157 15.6048 30.3398C16.3926 30.9999 16.399 31.9298 15.6163 32.5925C15.1634 32.9754 14.6266 33.1883 14.0563 33.3159C13.0129 33.5491 11.9821 33.5088 10.9725 33.1357C10.6664 33.0225 10.3742 32.8808 10.1169 32.6786C9.67335 32.3309 9.36722 31.9077 9.43209 31.3078C9.44778 31.1606 9.38248 31.1153 9.25952 31.0716C8.27115 30.718 7.6716 29.9793 7.28575 29.041C6.88125 28.0569 6.64847 27.0232 6.44198 25.9848C6.00694 23.7969 5.69148 21.5882 5.34125 19.3859C5.29206 19.0772 5.24372 18.7719 5.5117 18.5154C5.61897 18.4128 5.51636 18.2699 5.48923 18.1537C5.33785 17.5029 5.26026 16.8482 5.32217 16.1791C5.35905 15.7827 5.46463 15.4036 5.57657 15.0237C5.63212 14.8363 5.73727 14.7477 5.92511 14.7086C6.24269 14.6429 6.55519 14.5543 6.87023 14.4763C6.96902 14.4517 7.04449 14.4275 7.05679 14.2927C7.12548 13.5422 7.36971 12.8333 7.61097 12.1277C8.87452 8.43246 11.1714 5.55089 14.4871 3.49232C16.5474 2.21308 18.7849 1.38033 21.1653 0.922399C23.2162 0.528071 25.2828 0.403412 27.3635 0.57556C31.2652 0.898231 34.896 2.0244 38.09 4.34543C40.3598 5.99525 42.0592 8.10258 42.9933 10.7819C43.3579 11.8283 43.5742 12.9053 43.6361 14.0103C43.6497 14.2524 43.7285 14.3652 43.9664 14.4038C44.2026 14.4419 44.4307 14.5263 44.6664 14.5683C44.8878 14.6082 45.0014 14.7252 45.0714 14.9376C45.3665 15.8314 45.4097 16.7363 45.2198 17.6547C45.1341 18.0689 45.1172 18.5391 44.8636 18.861C44.6266 19.162 44.1551 19.1684 43.7862 19.2994C42.7758 19.6573 41.7582 19.9952 40.7422 20.3382C40.6146 20.381 40.4887 20.4773 40.3466 20.3895C40.3114 20.3132 40.336 20.2462 40.364 20.1826C41.02 18.6956 41.0077 17.1649 40.6477 15.6164C40.5552 15.2187 40.4488 14.8189 40.2953 14.4419C40.1825 14.1651 40.1893 13.8878 40.1694 13.6079C40.1609 13.4883 40.2589 13.4909 40.3483 13.5125C40.7872 13.6189 41.226 13.7249 41.6649 13.8301C41.7569 13.8521 41.8468 13.9149 41.9727 13.8314C41.9519 13.1818 41.8201 12.5356 41.6492 11.8975C40.9008 9.10409 39.2463 6.94673 36.9435 5.25705C34.8243 3.70221 32.4384 2.75073 29.8774 2.22962C26.0719 1.45538 22.3169 1.64703 18.6543 2.97121C15.0896 4.2602 12.2721 6.48371 10.373 9.80455C9.68183 11.0126 9.18659 12.3007 8.8283 13.6435C8.80371 13.736 8.76682 13.8305 8.81007 13.9747L8.80922 13.9738Z" fill="#533115"/>
<path d="M73.0774 41.8865C72.3019 37.9971 70.3163 34.8124 67.2214 32.3438C64.0155 29.7866 60.3275 28.5705 56.2379 28.5472C54.7462 28.5285 53.2804 28.7126 51.8388 29.0848C48.3496 29.9859 45.3828 31.7561 43.0287 34.4914C40.6907 37.208 39.3848 40.3609 39.144 43.9536C39.0477 45.3905 39.1524 46.8072 39.4577 48.2034C40.1319 51.2864 41.5773 53.9661 43.8187 56.1943C47.2769 59.6322 51.4932 61.2676 56.3329 61.3096C58.115 61.3252 59.8734 61.0424 61.5787 60.4866C66.1784 58.9868 69.6468 56.1443 71.791 51.7816C73.3348 48.6406 73.7622 45.3176 73.0779 41.8861L73.0774 41.8865Z" fill="#533115"/>
<path d="M54.0884 45.6685C52.0871 44.0887 50.1799 42.583 48.1701 40.9959C49.0402 40.6105 49.8335 40.2501 50.6361 39.9105C50.8278 39.8295 50.9991 39.9949 51.1687 40.0682C53.7331 41.1804 56.2979 42.2917 58.8551 43.4213C59.2482 43.5951 59.5823 43.615 59.9974 43.4607C61.4064 42.9379 62.8345 42.4651 64.2566 41.9775C64.7255 41.8168 65.2068 41.7536 65.6965 41.8673C66.1956 41.983 66.69 42.0106 67.2064 41.9559C68.0405 41.8673 68.7206 42.2116 68.8707 42.7187C69.0394 43.289 68.6341 44.0017 67.8395 44.3541C67.2429 44.6187 66.6022 44.7879 65.9751 44.9782C61.3144 46.3949 56.6575 47.8242 51.9875 49.2099C50.1489 49.7556 48.2435 49.9146 46.3295 49.9646C45.8588 49.9769 45.646 49.8459 45.9377 49.3922C46.1709 49.0296 46.0662 48.8037 45.7685 48.5382C45.1045 47.9463 44.4791 47.3116 43.8244 46.7086C43.5645 46.4691 43.4619 46.2927 43.8944 46.1617C43.9143 46.1557 43.9342 46.1455 43.9512 46.1337C44.9896 45.4103 46.0076 45.3929 47.1126 46.062C47.8305 46.4966 48.6539 46.7587 49.432 47.0936C49.6418 47.1839 49.8335 47.2776 50.0938 47.1759C51.3752 46.6755 52.6663 46.2011 54.088 45.6673L54.0884 45.6685Z" fill="#C2C4AC"/>
</svg>
