<svg width="146" height="167" viewBox="0 0 146 167" fill="none" xmlns="http://www.w3.org/2000/svg">
<path d="M44.331 61.3731L42.0023 52.9443L40.2081 52.959L38.1284 52.9809L35.9681 61.4537L35.1699 64.5659L41.4164 64.5074L45.1951 64.4707L44.331 61.3731Z" fill="#533115"/>
<path d="M44.3322 61.3731L42.0035 52.9443L40.2094 52.959L39.5723 52.9663V64.522L41.4177 64.5074L45.1963 64.4707L44.3322 61.3731Z" fill="#4A270A"/>
<path d="M47.5316 67.0782C46.6162 64.9032 45.6789 63.5997 44.8953 63.6144C44.5511 63.6144 42.7204 63.651 40.7871 63.6803C44.4633 64.2515 46.9091 73.7714 46.9238 74.4305L49.9921 73.603C49.9921 73.603 48.447 69.2531 47.5316 67.0782Z" fill="#533115"/>
<path d="M40.0322 63.6948C37.8427 63.7314 35.7556 63.7681 35.7556 63.7681C35.7556 63.7681 33.6173 62.5378 31.3105 73.5076L34.7597 74.6207C34.7597 74.6207 36.4074 64.4125 40.0322 63.6875V63.6948Z" fill="#7B7D80"/>
<path d="M40.0323 63.6948C36.4074 64.4198 34.7598 74.6281 34.7598 74.6281L37.2569 74.5841C37.2569 74.5841 38.1357 70.1317 40.5156 70.0878L40.4058 63.6875C40.2813 63.6875 40.1568 63.6875 40.0323 63.6875V63.6948Z" fill="#4A270A"/>
<path d="M40.787 63.688C40.6626 63.688 40.5307 63.688 40.4062 63.688L40.5161 70.0883C42.8887 70.0517 43.7089 74.4821 43.7089 74.4821L46.9237 74.4308C46.9091 73.7718 44.4632 64.2519 40.787 63.6807V63.688Z" fill="#2C2E30"/>
<path d="M31.7201 73.6475L10.7031 163.054L13.5811 164.563L34.7592 74.6287L31.7201 73.6475Z" fill="#A16433"/>
<g style="mix-blend-mode:multiply">
<path d="M33.2157 74.1309L11.9277 163.699L13.5827 164.563L34.7609 74.6288L33.2157 74.1309Z" fill="#A16433"/>
</g>
<path d="M49.4996 73.7422L46.9219 74.4379L71.1537 162.746L74.7713 162.197L49.4996 73.7422Z" fill="#A16433"/>
<g style="mix-blend-mode:multiply">
<path d="M49.5012 73.7422L48.0586 74.1303L72.9055 162.475L74.7729 162.197L49.5012 73.7422Z" fill="#A16433"/>
</g>
<path d="M37.9512 72.4608C37.9512 72.4608 38.537 73.5886 38.559 74.8115L42.528 74.7456C42.528 74.7456 42.6232 73.0467 43.0407 72.3803C43.0407 72.3803 42.1619 70.0735 40.5142 70.1028C38.8665 70.1321 37.9512 72.4681 37.9512 72.4681V72.4608Z" fill="#282A2C"/>
<path d="M42.2514 74.7529L39.3588 74.7969L38.8315 74.8115L38.7949 159.685L39.3368 159.678L42.5882 159.619L42.2514 74.7529Z" fill="#A16433"/>
<g style="mix-blend-mode:multiply">
<path d="M40.4277 159.656L42.588 159.619L42.2512 74.7529L40.4277 74.7822V159.656Z" fill="#A16433"/>
</g>
<path d="M10.705 162.044L14.2713 162.747C14.2713 162.747 14.1029 165.486 12.7701 165.962C11.4373 166.438 9.05737 165.691 10.705 162.044Z" fill="#533115"/>
<path d="M75.0501 161.816L70.9199 162.746C70.9199 162.746 71.0884 165.485 72.4211 165.961C73.7539 166.437 76.6978 165.463 75.0501 161.816Z" fill="#533115"/>
<path d="M38.6041 158.14H42.9759C42.9759 158.14 43.5032 160.805 42.1045 161.53C40.7058 162.255 37.4324 161.545 38.6041 158.14Z" fill="#533115"/>
<path d="M15.3689 51.0923L1.38197 57.2436C1.38197 57.2436 -0.543983 58.4592 0.598406 62.1573C1.74079 65.8555 4.34778 64.962 5.29977 64.7717C6.35429 64.5593 19.9385 60.517 19.9385 60.517L15.3689 51.085V51.0923Z" fill="#533115"/>
<g style="mix-blend-mode:multiply">
<path d="M8.85775 58.0932C7.48835 58.679 6.13359 59.3015 4.76419 59.88C4.09048 60.1656 3.11652 60.5903 2.36957 60.2974C1.2345 59.8507 0.831739 58.8474 0.868354 57.7856C0.392359 58.452 -0.127574 59.7994 0.604726 62.1574C1.74711 65.8556 4.3541 64.9622 5.30609 64.7718C6.36061 64.5594 19.9448 60.5171 19.9448 60.5171L17.0961 54.6367C14.35 55.7791 11.6039 56.9142 8.86508 58.0785L8.85775 58.0932Z" fill="#533115"/>
</g>
<path d="M119.158 6.12891L12.8205 50.6601C12.198 50.8651 12.1541 53.9408 13.2745 57.3533C14.3949 60.7585 16.2623 63.2117 16.8848 63.0067L128.868 35.6333L120.417 7.12483L119.151 6.12891H119.158Z" fill="#1D0D00"/>
<g style="mix-blend-mode:screen">
<path d="M121.699 11.439L12.5059 54.0003C12.6084 54.7985 12.7915 55.6846 13.0551 56.6146L123.545 17.6562L121.699 11.4316V11.439Z" fill="#1D0D00"/>
</g>
<g style="mix-blend-mode:multiply">
<path d="M105.054 28.6839C87.2367 34.5423 30.0879 53.2673 25.8992 54.4609C23.0139 55.2811 19.3011 56.3869 16.3207 55.3031C14.2629 54.5561 13.1205 52.9743 12.5493 51.0045C12.2125 51.9198 12.337 54.5195 13.267 57.3535C14.3874 60.7587 16.2548 63.2119 16.8772 63.0069L128.861 35.6335L124.796 21.9248C118.213 24.2023 111.644 26.5163 105.046 28.6913L105.054 28.6839Z" fill="#1D0D00"/>
</g>
<g style="mix-blend-mode:multiply">
<path d="M121.639 37.3981L128.867 35.6333L120.416 7.12483L119.149 6.12891L113.035 8.69196C110.647 19.1126 115.18 29.1817 121.639 37.3981Z" fill="#1D0D00"/>
</g>
<path d="M118.441 25.7472C119.862 29.709 122.095 34.3517 125.464 37.3469L142.072 33.2826L132.582 1.25909L131.161 0.138672L116.471 6.29C114.626 12.5878 116.288 19.7424 118.441 25.7399V25.7472Z" fill="#533115"/>
<path d="M124.605 8.31115C127.652 7.32986 130.757 6.44378 133.832 5.48447L132.58 1.25909L131.16 0.138672L116.47 6.29C115.994 7.90838 115.752 9.57803 115.693 11.2696C118.659 10.2737 121.632 9.26314 124.613 8.30382L124.605 8.31115Z" fill="#76431A"/>
<path d="M119.324 28.0311C120.737 31.3924 122.722 34.9074 125.453 37.3387L142.062 33.2744L138.525 21.3379C132.146 23.652 125.783 26.0026 119.316 28.0238L119.324 28.0311Z" fill="#76431A"/>
<path d="M143.264 14.5208C146.281 23.6672 145.739 32.0741 142.07 33.2824C138.394 34.4907 132.975 28.0537 129.965 18.9073C126.956 9.75354 127.483 1.36138 131.159 0.145759C134.828 -1.06254 140.254 5.37438 143.271 14.5208H143.264Z" fill="black"/>
<path d="M132.083 1.8085C131.519 1.99158 131.043 2.39434 130.662 2.97286C133.584 4.04202 137.136 9.13151 139.333 15.8174C141.529 22.5033 141.705 28.7059 139.992 31.2982C140.643 31.5399 141.266 31.5765 141.83 31.3934C144.942 30.3682 145.279 22.9134 142.591 14.7409C139.904 6.56845 135.195 0.775959 132.083 1.80118V1.8085Z" fill="#96A5A8"/>
<path d="M139.334 15.8182C137.13 9.1396 133.585 4.04279 130.663 2.97363C128.95 5.5733 129.126 11.7759 131.322 18.4545C133.527 25.1404 137.071 30.2299 139.993 31.299C141.706 28.6994 141.538 22.4968 139.334 15.8182Z" fill="#292D2F"/>
<path d="M135.714 9.97343C136.549 11.9067 136.381 13.8327 135.341 14.2867C134.301 14.7334 132.778 13.5397 131.943 11.6065C131.108 9.67319 131.277 7.74724 132.316 7.29321C133.356 6.83919 134.88 8.04016 135.714 9.97343Z" fill="white"/>
<path d="M138.314 17.7583C138.666 18.5638 138.593 19.3693 138.161 19.5524C137.729 19.7428 137.092 19.2375 136.747 18.432C136.403 17.6264 136.469 16.8282 136.901 16.6378C137.333 16.4474 137.97 16.9527 138.314 17.7509V17.7583Z" fill="white"/>
<path d="M0.510002 46.8006C0.510002 46.8006 -0.420019 47.0935 0.231728 49.0927C0.883476 51.0919 2.31146 50.2351 2.31146 50.2351L17.3017 44.4719L15.0388 39.7266L0.510002 46.8006Z" fill="#533115"/>
<g style="mix-blend-mode:multiply">
<path d="M13.5603 45.9077L17.3097 44.465L15.0469 39.7197L11.9492 41.2283C11.9858 42.854 12.5644 44.6261 13.5603 45.9077Z" fill="#533115"/>
</g>
<path d="M5.65009 56.621L3.83398 47.8041L5.80387 47.3721L10.0878 54.9953L5.65009 56.621Z" fill="#B29882"/>
<g style="mix-blend-mode:multiply">
<path d="M7.10786 49.7013L5.80436 47.3799L3.8418 47.8119L4.42031 50.6459C5.35766 50.4922 6.2291 50.0821 7.10786 49.7086V49.7013Z" fill="#B29882"/>
</g>
<g style="mix-blend-mode:multiply">
<path d="M5.36475 55.2521L5.64302 56.6142L10.0808 54.9958L9.23129 53.4873C7.97173 54.1391 6.68289 54.8201 5.35742 55.2521H5.36475Z" fill="#B29882"/>
</g>
<path d="M1.93164 45.7248L3.83562 50.0893L6.96254 48.903L5.16109 43.96L1.93164 45.7248Z" fill="#B29882"/>
<path d="M5.15989 47.3212C5.15989 47.7679 4.80106 48.1267 4.35436 48.1267C3.90766 48.1267 3.54883 47.7679 3.54883 47.3212C3.54883 46.8745 3.90766 46.5156 4.35436 46.5156C4.80106 46.5156 5.15989 46.8745 5.15989 47.3212Z" fill="#17181A"/>
<path d="M13.8818 43.3961C14.2333 44.2089 14.7679 45.1463 15.5148 45.7321L18.942 44.6556L16.5181 38.0796L16.2032 37.8672L13.2081 39.3538C12.9078 40.6939 13.3545 42.1731 13.8891 43.4034L13.8818 43.3961Z" fill="#533115"/>
<path d="M14.9371 39.6535C15.5595 39.4045 16.1966 39.1775 16.8264 38.9359L16.5042 38.0717L16.1893 37.8594L13.1942 39.3459C13.1136 39.6901 13.0917 40.0416 13.099 40.4005C13.7068 40.1515 14.3146 39.9025 14.9297 39.6535H14.9371Z" fill="#76431A"/>
<path d="M14.1016 43.8654C14.4457 44.5538 14.9071 45.2641 15.5149 45.7328L18.9421 44.6563L18.034 42.2031C16.7305 42.7743 15.427 43.3528 14.1016 43.8654Z" fill="#76431A"/>
<path d="M18.9347 40.7011C19.689 42.5758 19.6963 44.3479 18.9347 44.6482C18.1804 44.9484 16.9575 43.6742 16.2032 41.7995C15.4489 39.9248 15.4416 38.1527 16.2032 37.8524C16.9575 37.5449 18.1804 38.8191 18.9347 40.7011Z" fill="black"/>
<path d="M16.415 38.1905C16.2978 38.2344 16.2026 38.3296 16.1367 38.4541C16.7665 38.6372 17.5794 39.6551 18.1286 41.0245C18.6778 42.3939 18.8023 43.69 18.4801 44.2612C18.6192 44.3052 18.751 44.3052 18.8682 44.2612C19.5053 44.0049 19.476 42.4378 18.8023 40.7608C18.1286 39.0839 17.0594 37.9342 16.4223 38.1978L16.415 38.1905Z" fill="#96A5A8"/>
<path d="M18.1222 41.0313C17.5657 39.6619 16.7601 38.644 16.1303 38.4609C15.8081 39.0321 15.9253 40.3283 16.4818 41.6977C17.0311 43.0671 17.8439 44.085 18.4737 44.2681C18.7959 43.6969 18.6787 42.4007 18.1222 41.0313Z" fill="#292D2F"/>
<path d="M17.2869 39.8522C17.492 40.2477 17.4773 40.6504 17.2649 40.7603C17.0526 40.8701 16.7157 40.6358 16.518 40.2477C16.3203 39.8522 16.3276 39.4495 16.54 39.3396C16.7523 39.2298 17.0892 39.4641 17.2869 39.8522Z" fill="white"/>
<path d="M17.9384 41.4477C18.0189 41.6161 18.0189 41.7845 17.9311 41.8285C17.8432 41.8724 17.704 41.7772 17.6162 41.6161C17.5356 41.455 17.5356 41.2866 17.6235 41.2353C17.7114 41.1914 17.8505 41.2866 17.9384 41.4477Z" fill="white"/>
<path d="M43.4808 48.0383C42.4702 44.9334 41.7891 41.0742 42.6533 37.7422L30.4678 42.7877C30.4678 42.7877 30.4458 42.8244 30.4385 42.839C29.9332 43.9228 29.6329 45.0579 29.567 46.2515C29.4718 48.1482 29.6549 50.0522 30.1895 51.8756C30.9731 54.5485 32.2326 57.2433 34.1732 59.2718L48.5922 55.808C46.0804 53.9919 44.3961 50.865 43.4734 48.031L43.4808 48.0383Z" fill="#4A270A"/>
<path d="M31.052 44.1136C30.6419 44.2528 30.2391 44.3919 29.8291 44.5383C29.6899 45.0949 29.5947 45.6734 29.5654 46.2593C29.5508 46.5522 29.5581 46.8451 29.5508 47.138C32.7216 45.8418 41.1504 41.9607 42.2562 41.5066C42.2489 41.0819 42.2562 40.6572 42.2782 40.2324C40.7477 40.7524 33.2635 43.3593 31.0447 44.1136H31.052Z" fill="#533115"/>
<g style="mix-blend-mode:multiply">
<path d="M43.9783 49.3789C42.8652 49.7084 34.1142 52.6816 30.8262 53.7434C31.6024 55.7719 32.6935 57.7198 34.1874 59.2796L48.6064 55.8158C46.4828 54.2853 44.9669 51.8175 43.9856 49.3789H43.9783Z" fill="#4A270A"/>
</g>
</svg>
